<?xml version="1.0" encoding="UTF-8" standalone="no"?><svg xmlns="http://www.w3.org/2000/svg" xmlns:xlink="http://www.w3.org/1999/xlink" contentScriptType="application/ecmascript" contentStyleType="text/css" height="312px" preserveAspectRatio="none" style="width:1113px;height:312px;" version="1.1" viewBox="0 0 1113 312" width="1113px" zoomAndPan="magnify"><defs><filter height="300%" id="f4wa6a0kkewkt" width="300%" x="-1" y="-1"><feGaussianBlur result="blurOut" stdDeviation="2.0"/><feColorMatrix in="blurOut" result="blurOut2" type="matrix" values="0 0 0 0 0 0 0 0 0 0 0 0 0 0 0 0 0 0 .4 0"/><feOffset dx="4.0" dy="4.0" in="blurOut2" result="blurOut3"/><feBlend in="SourceGraphic" in2="blurOut3" mode="normal"/></filter></defs><g><!--class member--><rect fill="#FEFECE" filter="url(#f4wa6a0kkewkt)" height="142.4375" id="member" style="stroke: #A80036; stroke-width: 1.5;" width="238" x="6" y="8"/><ellipse cx="95.25" cy="24" fill="#FFAAAA" rx="11" ry="11" style="stroke: #A80036; stroke-width: 1.0;"/><path d="M95.6875,21.5313 L95.6875,28.0469 L96.8125,28.0469 C97.2656,28.0469 97.4063,28.0781 97.5625,28.2031 C97.7969,28.375 97.9219,28.625 97.9219,28.9063 C97.9219,29.1875 97.7813,29.4844 97.5156,29.625 C97.4063,29.7031 97.1406,29.75 96.8125,29.75 L92.875,29.75 C92.4844,29.75 92.2656,29.7031 92.1094,29.5781 C91.8906,29.4219 91.75,29.1563 91.75,28.9063 C91.75,28.6094 91.9063,28.3281 92.1563,28.1719 C92.3125,28.0625 92.4375,28.0469 92.875,28.0469 L93.9844,28.0469 L93.9844,21.5313 L92.1563,21.5313 L92.1563,23.125 C92.1563,23.5781 92.125,23.7188 92.0156,23.8906 C91.8438,24.1094 91.5938,24.2344 91.3125,24.2344 C91.0313,24.2344 90.7344,24.0938 90.5781,23.8281 C90.5,23.6875 90.4688,23.5156 90.4688,23.125 L90.4688,19.8438 L99.2344,19.8438 L99.2344,23.125 C99.2344,23.5938 99.2188,23.7188 99.0781,23.8906 C98.9063,24.1094 98.6563,24.2344 98.3906,24.2344 C98.0938,24.2344 97.8125,24.0781 97.6563,23.8281 C97.5625,23.6875 97.5313,23.5156 97.5313,23.125 L97.5313,21.5313 Z "/><text fill="#000000" font-family="sans-serif" font-size="12" lengthAdjust="spacingAndGlyphs" textLength="51" x="115.75" y="28.1543">member</text><line style="stroke: #A80036; stroke-width: 1.5;" x1="7" x2="243" y1="40" y2="40"/><text fill="#000000" font-family="sans-serif" font-size="11" lengthAdjust="spacingAndGlyphs" text-decoration="underline" textLength="110" x="12" y="54.2104">member_id: BIGINT</text><line style="stroke: #000000; stroke-width: 1.0;" x1="12" x2="122" y1="56.2104" y2="56.2104"/><text fill="#000000" font-family="sans-serif" font-size="11" lengthAdjust="spacingAndGlyphs" textLength="118" x="12" y="67.0151">name: VARCHAR_255</text><text fill="#000000" font-family="sans-serif" font-size="11" lengthAdjust="spacingAndGlyphs" textLength="116" x="12" y="79.8198">school: VARCHAR_32</text><text fill="#000000" font-family="sans-serif" font-size="11" lengthAdjust="spacingAndGlyphs" textLength="117" x="12" y="92.6245">email: VARCHAR_255</text><text fill="#000000" font-family="sans-serif" font-size="11" lengthAdjust="spacingAndGlyphs" textLength="114" x="12" y="105.4292">phone: VARCHAR_12</text><text fill="#000000" font-family="sans-serif" font-size="11" lengthAdjust="spacingAndGlyphs" textLength="100" x="12" y="118.2339">balance: FLOAT_6</text><text fill="#000000" font-family="sans-serif" font-size="11" lengthAdjust="spacingAndGlyphs" textLength="226" x="12" y="131.0386">last_membership_payment: TIMESTAMP</text><text fill="#000000" font-family="sans-serif" font-size="11" lengthAdjust="spacingAndGlyphs" textLength="97" x="12" y="143.8433">is_deleted: BIT_1</text><!--class party--><rect fill="#FEFECE" filter="url(#f4wa6a0kkewkt)" height="116.8281" id="party" style="stroke: #A80036; stroke-width: 1.5;" width="174" x="460" y="20.5"/><ellipse cx="526.75" cy="36.5" fill="#FFAAAA" rx="11" ry="11" style="stroke: #A80036; stroke-width: 1.0;"/><path d="M527.1875,34.0313 L527.1875,40.5469 L528.3125,40.5469 C528.7656,40.5469 528.9063,40.5781 529.0625,40.7031 C529.2969,40.875 529.4219,41.125 529.4219,41.4063 C529.4219,41.6875 529.2813,41.9844 529.0156,42.125 C528.9063,42.2031 528.6406,42.25 528.3125,42.25 L524.375,42.25 C523.9844,42.25 523.7656,42.2031 523.6094,42.0781 C523.3906,41.9219 523.25,41.6563 523.25,41.4063 C523.25,41.1094 523.4063,40.8281 523.6563,40.6719 C523.8125,40.5625 523.9375,40.5469 524.375,40.5469 L525.4844,40.5469 L525.4844,34.0313 L523.6563,34.0313 L523.6563,35.625 C523.6563,36.0781 523.625,36.2188 523.5156,36.3906 C523.3438,36.6094 523.0938,36.7344 522.8125,36.7344 C522.5313,36.7344 522.2344,36.5938 522.0781,36.3281 C522,36.1875 521.9688,36.0156 521.9688,35.625 L521.9688,32.3438 L530.7344,32.3438 L530.7344,35.625 C530.7344,36.0938 530.7188,36.2188 530.5781,36.3906 C530.4063,36.6094 530.1563,36.7344 529.8906,36.7344 C529.5938,36.7344 529.3125,36.5781 529.1563,36.3281 C529.0625,36.1875 529.0313,36.0156 529.0313,35.625 L529.0313,34.0313 Z "/><text fill="#000000" font-family="sans-serif" font-size="12" lengthAdjust="spacingAndGlyphs" textLength="32" x="547.25" y="40.6543">party</text><line style="stroke: #A80036; stroke-width: 1.5;" x1="461" x2="633" y1="52.5" y2="52.5"/><text fill="#000000" font-family="sans-serif" font-size="11" lengthAdjust="spacingAndGlyphs" text-decoration="underline" textLength="91" x="466" y="66.7104">party_id: BIGINT</text><line style="stroke: #000000; stroke-width: 1.0;" x1="466" x2="557" y1="68.7104" y2="68.7104"/><text fill="#000000" font-family="sans-serif" font-size="11" lengthAdjust="spacingAndGlyphs" textLength="118" x="466" y="79.5151">name: VARCHAR_255</text><text fill="#000000" font-family="sans-serif" font-size="11" lengthAdjust="spacingAndGlyphs" textLength="62" x="466" y="92.3198">date: DATE</text><text fill="#000000" font-family="sans-serif" font-size="11" lengthAdjust="spacingAndGlyphs" textLength="162" x="466" y="105.1245">normal_beer_price: FLOAT_6</text><text fill="#000000" font-family="sans-serif" font-size="11" lengthAdjust="spacingAndGlyphs" textLength="162" x="466" y="117.9292">special_beer_price: FLOAT_6</text><text fill="#000000" font-family="sans-serif" font-size="11" lengthAdjust="spacingAndGlyphs" textLength="97" x="466" y="130.7339">is_deleted: BIT_1</text><!--class transaction--><rect fill="#FEFECE" filter="url(#f4wa6a0kkewkt)" height="116.8281" id="transaction" style="stroke: #A80036; stroke-width: 1.5;" width="145" x="279.5" y="20.5"/><ellipse cx="312.95" cy="36.5" fill="#FFAAAA" rx="11" ry="11" style="stroke: #A80036; stroke-width: 1.0;"/><path d="M313.3875,34.0313 L313.3875,40.5469 L314.5125,40.5469 C314.9656,40.5469 315.1063,40.5781 315.2625,40.7031 C315.4969,40.875 315.6219,41.125 315.6219,41.4063 C315.6219,41.6875 315.4813,41.9844 315.2156,42.125 C315.1063,42.2031 314.8406,42.25 314.5125,42.25 L310.575,42.25 C310.1844,42.25 309.9656,42.2031 309.8094,42.0781 C309.5906,41.9219 309.45,41.6563 309.45,41.4063 C309.45,41.1094 309.6063,40.8281 309.8563,40.6719 C310.0125,40.5625 310.1375,40.5469 310.575,40.5469 L311.6844,40.5469 L311.6844,34.0313 L309.8563,34.0313 L309.8563,35.625 C309.8563,36.0781 309.825,36.2188 309.7156,36.3906 C309.5438,36.6094 309.2938,36.7344 309.0125,36.7344 C308.7313,36.7344 308.4344,36.5938 308.2781,36.3281 C308.2,36.1875 308.1688,36.0156 308.1688,35.625 L308.1688,32.3438 L316.9344,32.3438 L316.9344,35.625 C316.9344,36.0938 316.9188,36.2188 316.7781,36.3906 C316.6063,36.6094 316.3563,36.7344 316.0906,36.7344 C315.7938,36.7344 315.5125,36.5781 315.3563,36.3281 C315.2625,36.1875 315.2313,36.0156 315.2313,35.625 L315.2313,34.0313 Z "/><text fill="#000000" font-family="sans-serif" font-size="12" lengthAdjust="spacingAndGlyphs" textLength="72" x="331.05" y="40.6543">transaction</text><line style="stroke: #A80036; stroke-width: 1.5;" x1="280.5" x2="423.5" y1="52.5" y2="52.5"/><text fill="#000000" font-family="sans-serif" font-size="11" lengthAdjust="spacingAndGlyphs" text-decoration="underline" textLength="126" x="285.5" y="66.7104">transaction_id: BIGINT</text><line style="stroke: #000000; stroke-width: 1.0;" x1="285.5" x2="411.5" y1="68.7104" y2="68.7104"/><text fill="#000000" font-family="sans-serif" font-size="11" font-style="italic" lengthAdjust="spacingAndGlyphs" text-decoration="underline" textLength="110" x="285.5" y="79.5151">member_id: BIGINT</text><line style="stroke: #000000; stroke-width: 1.0;" x1="285.5" x2="395.5" y1="81.5151" y2="81.5151"/><text fill="#000000" font-family="sans-serif" font-size="11" font-style="italic" lengthAdjust="spacingAndGlyphs" text-decoration="underline" textLength="92" x="285.5" y="92.3198">party_id: BIGINT</text><line style="stroke: #000000; stroke-width: 1.0;" x1="285.5" x2="377.5" y1="94.3198" y2="94.3198"/><text fill="#000000" font-family="sans-serif" font-size="11" lengthAdjust="spacingAndGlyphs" textLength="99" x="285.5" y="105.1245">amount: FLOAT_6</text><text fill="#000000" font-family="sans-serif" font-size="11" lengthAdjust="spacingAndGlyphs" textLength="113" x="285.5" y="117.9292">label: VARCHAR_255</text><text fill="#000000" font-family="sans-serif" font-size="11" lengthAdjust="spacingAndGlyphs" textLength="133" x="285.5" y="130.7339">timestamp: TIMESTAMP</text><!--class product--><rect fill="#FEFECE" filter="url(#f4wa6a0kkewkt)" height="91.2188" id="product" style="stroke: #A80036; stroke-width: 1.5;" width="130" x="305" y="210"/><ellipse cx="342.05" cy="226" fill="#FFAAAA" rx="11" ry="11" style="stroke: #A80036; stroke-width: 1.0;"/><path d="M342.4875,223.5313 L342.4875,230.0469 L343.6125,230.0469 C344.0656,230.0469 344.2063,230.0781 344.3625,230.2031 C344.5969,230.375 344.7219,230.625 344.7219,230.9063 C344.7219,231.1875 344.5813,231.4844 344.3156,231.625 C344.2063,231.7031 343.9406,231.75 343.6125,231.75 L339.675,231.75 C339.2844,231.75 339.0656,231.7031 338.9094,231.5781 C338.6906,231.4219 338.55,231.1563 338.55,230.9063 C338.55,230.6094 338.7063,230.3281 338.9563,230.1719 C339.1125,230.0625 339.2375,230.0469 339.675,230.0469 L340.7844,230.0469 L340.7844,223.5313 L338.9563,223.5313 L338.9563,225.125 C338.9563,225.5781 338.925,225.7188 338.8156,225.8906 C338.6438,226.1094 338.3938,226.2344 338.1125,226.2344 C337.8313,226.2344 337.5344,226.0938 337.3781,225.8281 C337.3,225.6875 337.2688,225.5156 337.2688,225.125 L337.2688,221.8438 L346.0344,221.8438 L346.0344,225.125 C346.0344,225.5938 346.0188,225.7188 345.8781,225.8906 C345.7063,226.1094 345.4563,226.2344 345.1906,226.2344 C344.8938,226.2344 344.6125,226.0781 344.4563,225.8281 C344.3625,225.6875 344.3313,225.5156 344.3313,225.125 L344.3313,223.5313 Z "/><text fill="#000000" font-family="sans-serif" font-size="12" lengthAdjust="spacingAndGlyphs" textLength="49" x="360.95" y="230.1543">product</text><line style="stroke: #A80036; stroke-width: 1.5;" x1="306" x2="434" y1="242" y2="242"/><text fill="#000000" font-family="sans-serif" font-size="11" lengthAdjust="spacingAndGlyphs" text-decoration="underline" textLength="105" x="311" y="256.2104">product_id: BIGINT</text><line style="stroke: #000000; stroke-width: 1.0;" x1="311" x2="416" y1="258.2104" y2="258.2104"/><text fill="#000000" font-family="sans-serif" font-size="11" lengthAdjust="spacingAndGlyphs" textLength="118" x="311" y="269.0151">name: VARCHAR_255</text><text fill="#000000" font-family="sans-serif" font-size="11" lengthAdjust="spacingAndGlyphs" textLength="84" x="311" y="281.8198">price: FLOAT_6</text><text fill="#000000" font-family="sans-serif" font-size="11" lengthAdjust="spacingAndGlyphs" textLength="110" x="311" y="294.6245">type: VARCHAR_255</text><!--class served_beers_party--><rect fill="#FEFECE" filter="url(#f4wa6a0kkewkt)" height="78.4141" id="served_beers_party" style="stroke: #A80036; stroke-width: 1.5;" width="154" x="470" y="216.5"/><ellipse cx="485" cy="232.5" fill="#FFAAAA" rx="11" ry="11" style="stroke: #A80036; stroke-width: 1.0;"/><path d="M485.4375,230.0313 L485.4375,236.5469 L486.5625,236.5469 C487.0156,236.5469 487.1563,236.5781 487.3125,236.7031 C487.5469,236.875 487.6719,237.125 487.6719,237.4063 C487.6719,237.6875 487.5313,237.9844 487.2656,238.125 C487.1563,238.2031 486.8906,238.25 486.5625,238.25 L482.625,238.25 C482.2344,238.25 482.0156,238.2031 481.8594,238.0781 C481.6406,237.9219 481.5,237.6563 481.5,237.4063 C481.5,237.1094 481.6563,236.8281 481.9063,236.6719 C482.0625,236.5625 482.1875,236.5469 482.625,236.5469 L483.7344,236.5469 L483.7344,230.0313 L481.9063,230.0313 L481.9063,231.625 C481.9063,232.0781 481.875,232.2188 481.7656,232.3906 C481.5938,232.6094 481.3438,232.7344 481.0625,232.7344 C480.7813,232.7344 480.4844,232.5938 480.3281,232.3281 C480.25,232.1875 480.2188,232.0156 480.2188,231.625 L480.2188,228.3438 L488.9844,228.3438 L488.9844,231.625 C488.9844,232.0938 488.9688,232.2188 488.8281,232.3906 C488.6563,232.6094 488.4063,232.7344 488.1406,232.7344 C487.8438,232.7344 487.5625,232.5781 487.4063,232.3281 C487.3125,232.1875 487.2813,232.0156 487.2813,231.625 L487.2813,230.0313 Z "/><text fill="#000000" font-family="sans-serif" font-size="12" lengthAdjust="spacingAndGlyphs" textLength="122" x="499" y="236.6543">served_beers_party</text><line style="stroke: #A80036; stroke-width: 1.5;" x1="471" x2="623" y1="248.5" y2="248.5"/><text fill="#000000" font-family="sans-serif" font-size="11" font-style="italic" lengthAdjust="spacingAndGlyphs" text-decoration="underline" textLength="92" x="476" y="262.7104">party_id: BIGINT</text><line style="stroke: #000000; stroke-width: 1.0;" x1="476" x2="568" y1="264.7104" y2="264.7104"/><text fill="#000000" font-family="sans-serif" font-size="11" font-style="italic" lengthAdjust="spacingAndGlyphs" text-decoration="underline" textLength="105" x="476" y="275.5151">product_id: BIGINT</text><line style="stroke: #000000; stroke-width: 1.0;" x1="476" x2="581" y1="277.5151" y2="277.5151"/><text fill="#000000" font-family="sans-serif" font-size="11" lengthAdjust="spacingAndGlyphs" textLength="121" x="476" y="288.3198">category: VARCHAR_8</text><!--class parameters--><rect fill="#FEFECE" filter="url(#f4wa6a0kkewkt)" height="91.2188" id="parameters" style="stroke: #A80036; stroke-width: 1.5;" width="221" x="669.5" y="33.5"/><ellipse cx="739.25" cy="49.5" fill="#FFAAAA" rx="11" ry="11" style="stroke: #A80036; stroke-width: 1.0;"/><path d="M739.6875,47.0313 L739.6875,53.5469 L740.8125,53.5469 C741.2656,53.5469 741.4063,53.5781 741.5625,53.7031 C741.7969,53.875 741.9219,54.125 741.9219,54.4063 C741.9219,54.6875 741.7813,54.9844 741.5156,55.125 C741.4063,55.2031 741.1406,55.25 740.8125,55.25 L736.875,55.25 C736.4844,55.25 736.2656,55.2031 736.1094,55.0781 C735.8906,54.9219 735.75,54.6563 735.75,54.4063 C735.75,54.1094 735.9063,53.8281 736.1563,53.6719 C736.3125,53.5625 736.4375,53.5469 736.875,53.5469 L737.9844,53.5469 L737.9844,47.0313 L736.1563,47.0313 L736.1563,48.625 C736.1563,49.0781 736.125,49.2188 736.0156,49.3906 C735.8438,49.6094 735.5938,49.7344 735.3125,49.7344 C735.0313,49.7344 734.7344,49.5938 734.5781,49.3281 C734.5,49.1875 734.4688,49.0156 734.4688,48.625 L734.4688,45.3438 L743.2344,45.3438 L743.2344,48.625 C743.2344,49.0938 743.2188,49.2188 743.0781,49.3906 C742.9063,49.6094 742.6563,49.7344 742.3906,49.7344 C742.0938,49.7344 741.8125,49.5781 741.6563,49.3281 C741.5625,49.1875 741.5313,49.0156 741.5313,48.625 L741.5313,47.0313 Z "/><text fill="#000000" font-family="sans-serif" font-size="12" lengthAdjust="spacingAndGlyphs" textLength="73" x="759.75" y="53.6543">parameters</text><line style="stroke: #A80036; stroke-width: 1.5;" x1="670.5" x2="889.5" y1="65.5" y2="65.5"/><text fill="#000000" font-family="sans-serif" font-size="11" lengthAdjust="spacingAndGlyphs" text-decoration="underline" textLength="113" x="675.5" y="79.7104">parameters: BIGINT</text><line style="stroke: #000000; stroke-width: 1.0;" x1="675.5" x2="788.5" y1="81.7104" y2="81.7104"/><text fill="#000000" font-family="sans-serif" font-size="11" lengthAdjust="spacingAndGlyphs" textLength="209" x="675.5" y="92.5151">balance_too_low_threshold: FLOAT_6</text><text fill="#000000" font-family="sans-serif" font-size="11" lengthAdjust="spacingAndGlyphs" textLength="158" x="675.5" y="105.3198">membership_cost: FLOAT_6</text><text fill="#000000" font-family="sans-serif" font-size="11" lengthAdjust="spacingAndGlyphs" textLength="191" x="675.5" y="118.1245">membership_expiring_date: DATE</text><!--class authentication_token--><rect fill="#FEFECE" filter="url(#f4wa6a0kkewkt)" height="78.4141" id="authentication_token" style="stroke: #A80036; stroke-width: 1.5;" width="177" x="925.5" y="40"/><ellipse cx="945.45" cy="56" fill="#FFAAAA" rx="11" ry="11" style="stroke: #A80036; stroke-width: 1.0;"/><path d="M945.8875,53.5313 L945.8875,60.0469 L947.0125,60.0469 C947.4656,60.0469 947.6063,60.0781 947.7625,60.2031 C947.9969,60.375 948.1219,60.625 948.1219,60.9063 C948.1219,61.1875 947.9813,61.4844 947.7156,61.625 C947.6063,61.7031 947.3406,61.75 947.0125,61.75 L943.075,61.75 C942.6844,61.75 942.4656,61.7031 942.3094,61.5781 C942.0906,61.4219 941.95,61.1563 941.95,60.9063 C941.95,60.6094 942.1063,60.3281 942.3563,60.1719 C942.5125,60.0625 942.6375,60.0469 943.075,60.0469 L944.1844,60.0469 L944.1844,53.5313 L942.3563,53.5313 L942.3563,55.125 C942.3563,55.5781 942.325,55.7188 942.2156,55.8906 C942.0438,56.1094 941.7938,56.2344 941.5125,56.2344 C941.2313,56.2344 940.9344,56.0938 940.7781,55.8281 C940.7,55.6875 940.6688,55.5156 940.6688,55.125 L940.6688,51.8438 L949.4344,51.8438 L949.4344,55.125 C949.4344,55.5938 949.4188,55.7188 949.2781,55.8906 C949.1063,56.1094 948.8563,56.2344 948.5906,56.2344 C948.2938,56.2344 948.0125,56.0781 947.8563,55.8281 C947.7625,55.6875 947.7313,55.5156 947.7313,55.125 L947.7313,53.5313 Z "/><text fill="#000000" font-family="sans-serif" font-size="12" lengthAdjust="spacingAndGlyphs" textLength="134" x="960.55" y="60.1543">authentication_token</text><line style="stroke: #A80036; stroke-width: 1.5;" x1="926.5" x2="1101.5" y1="72" y2="72"/><text fill="#000000" font-family="sans-serif" font-size="11" lengthAdjust="spacingAndGlyphs" text-decoration="underline" textLength="93" x="931.5" y="86.2104">token_id: BIGINT</text><line style="stroke: #000000; stroke-width: 1.0;" x1="931.5" x2="1024.5" y1="88.2104" y2="88.2104"/><text fill="#000000" font-family="sans-serif" font-size="11" lengthAdjust="spacingAndGlyphs" textLength="141" x="931.5" y="99.0151">token_name: VARCHAR_4</text><text fill="#000000" font-family="sans-serif" font-size="11" lengthAdjust="spacingAndGlyphs" textLength="165" x="931.5" y="111.8198">hashed_token: VARCHAR_255</text><!--link member to transaction--><path d="M249.449,79 C259.364,79 269.279,79 279.194,79 " fill="none" id="member-transaction" style="stroke: #A80036; stroke-width: 1.0;"/><polygon fill="#A80036" points="244.264,79,253.264,83,249.264,79,253.264,75,244.264,79" style="stroke: #A80036; stroke-width: 1.0;"/><!--link transaction to party--><path d="M424.744,79 C434.64,79 444.536,79 454.431,79 " fill="none" id="transaction-party" style="stroke: #A80036; stroke-width: 1.0;"/><polygon fill="#A80036" points="459.606,79,450.606,75,454.606,79,450.606,83,459.606,79" style="stroke: #A80036; stroke-width: 1.0;"/><!--link product to served_beers_party--><path d="M440.453,255.5 C450.234,255.5 460.015,255.5 469.796,255.5 " fill="none" id="product-served_beers_party" style="stroke: #A80036; stroke-width: 1.0;"/><polygon fill="#A80036" points="435.338,255.5,444.338,259.5,440.338,255.5,444.338,251.5,435.338,255.5" style="stroke: #A80036; stroke-width: 1.0;"/><!--link party to served_beers_party--><path d="M547,142.832 C547,167.468 547,194.929 547,216.4537 " fill="none" id="party-served_beers_party" style="stroke: #A80036; stroke-width: 1.0;"/><polygon fill="#A80036" points="547,137.621,543,146.621,547,142.621,551,146.621,547,137.621" style="stroke: #A80036; stroke-width: 1.0;"/><!--
@startuml
hide methods
hide stereotypes

class member << (T,#FFAAAA) >> {
	<u>member_id: BIGINT</u>
	name: VARCHAR_255
	school: VARCHAR_32
	email: VARCHAR_255
	phone: VARCHAR_12
	balance: FLOAT_6
	last_membership_payment: TIMESTAMP
	is_deleted: BIT_1
}

class party << (T,#FFAAAA) >> {
	<u>party_id: BIGINT</u>
	name: VARCHAR_255
	date: DATE
	normal_beer_price: FLOAT_6
	special_beer_price: FLOAT_6
	is_deleted: BIT_1
}

class transaction << (T,#FFAAAA) >> {
	<u>transaction_id: BIGINT</u>
	<i><u>member_id: BIGINT</u></i>
	<i><u>party_id: BIGINT</u></i>
	amount: FLOAT_6
	label: VARCHAR_255
	timestamp: TIMESTAMP
}

member <- transaction
transaction -> party

class product << (T,#FFAAAA) >> {
	<u>product_id: BIGINT</u>
	name: VARCHAR_255
	price: FLOAT_6
	type: VARCHAR_255
}

class served_beers_party << (T,#FFAAAA) >> {
	<i><u>party_id: BIGINT</u></i>
	<i><u>product_id: BIGINT</u></i>
	category: VARCHAR_8
}

product <- served_beers_party
party <- - served_beers_party

class parameters << (T,#FFAAAA) >> {
	<u>parameters: BIGINT</u>
	balance_too_low_threshold: FLOAT_6
	membership_cost: FLOAT_6
	membership_expiring_date: DATE
}

class authentication_token << (T,#FFAAAA) >> {
	<u>token_id: BIGINT</u>
	token_name: VARCHAR_4
	hashed_token: VARCHAR_255
}
@enduml

PlantUML version 1.2017.20(Mon Dec 11 16:57:05 UTC 2017)
(GPL source distribution)
Java Runtime: Java(TM) SE Runtime Environment
JVM: Java HotSpot(TM) 64-Bit Server VM
Java Version: 1.7.0_25-b15
Operating System: Linux
Default Encoding: UTF-8
Language: en
Country: US
--></g></svg>