<?xml version="1.0" encoding="UTF-8" standalone="no"?><svg xmlns="http://www.w3.org/2000/svg" xmlns:xlink="http://www.w3.org/1999/xlink" contentScriptType="application/ecmascript" contentStyleType="text/css" height="352px" preserveAspectRatio="none" style="width:1452px;height:352px;" version="1.1" viewBox="0 0 1452 352" width="1452px" zoomAndPan="magnify"><defs><filter height="300%" id="fj4zs6n56bq37" width="300%" x="-1" y="-1"><feGaussianBlur result="blurOut" stdDeviation="2.0"/><feColorMatrix in="blurOut" result="blurOut2" type="matrix" values="0 0 0 0 0 0 0 0 0 0 0 0 0 0 0 0 0 0 .4 0"/><feOffset dx="4.0" dy="4.0" in="blurOut2" result="blurOut3"/><feBlend in="SourceGraphic" in2="blurOut3" mode="normal"/></filter></defs><g><!--cluster Model--><polygon fill="#FFFFFF" filter="url(#fj4zs6n56bq37)" points="930,24,983,24,990,46.2969,1430,46.2969,1430,200,930,200,930,24" style="stroke: #000000; stroke-width: 1.5;"/><line style="stroke: #000000; stroke-width: 1.5;" x1="930" x2="990" y1="46.2969" y2="46.2969"/><text fill="#000000" font-family="sans-serif" font-size="14" font-weight="bold" lengthAdjust="spacingAndGlyphs" textLength="47" x="934" y="38.9951">Model</text><!--cluster Controller--><polygon fill="#FFFFFF" filter="url(#fj4zs6n56bq37)" points="22,37,107,37,114,59.2969,818,59.2969,818,340,22,340,22,37" style="stroke: #000000; stroke-width: 1.5;"/><line style="stroke: #000000; stroke-width: 1.5;" x1="22" x2="114" y1="59.2969" y2="59.2969"/><text fill="#000000" font-family="sans-serif" font-size="14" font-weight="bold" lengthAdjust="spacingAndGlyphs" textLength="79" x="26" y="51.9951">Controller</text><!--class Party--><rect fill="#F8F8F8" filter="url(#fj4zs6n56bq37)" height="124.8281" id="Party" style="stroke: #383838; stroke-width: 1.5;" width="468" x="946" y="59"/><ellipse cx="1159.75" cy="75" fill="#C2C2C2" rx="11" ry="11" style="stroke: #383838; stroke-width: 1.0;"/><path d="M1162.0938,70.6719 L1162.2656,70.75 C1162.4844,70.4375 1162.6875,70.3438 1162.9844,70.3438 C1163.2813,70.3438 1163.5625,70.4844 1163.7188,70.75 C1163.8125,70.9063 1163.8281,71.0313 1163.8281,71.4688 L1163.8281,72.8906 C1163.8281,73.3125 1163.7969,73.5 1163.6875,73.6563 C1163.5156,73.875 1163.25,74.0156 1162.9844,74.0156 C1162.7656,74.0156 1162.5313,73.9063 1162.3906,73.7656 C1162.25,73.6406 1162.2188,73.5156 1162.1563,73.1094 C1162.0625,72.7031 1161.8906,72.4844 1161.4063,72.2031 C1160.9375,71.9531 1160.3281,71.7969 1159.75,71.7969 C1158.0156,71.7969 1156.7656,73.1094 1156.7656,74.8906 L1156.7656,75.9844 C1156.7656,77.6875 1158.0625,78.7813 1160.1094,78.7813 C1160.875,78.7813 1161.5625,78.6563 1161.9844,78.3906 C1162.1719,78.2969 1162.1719,78.2969 1162.625,77.8125 C1162.8125,77.625 1163.0156,77.5469 1163.2344,77.5469 C1163.7031,77.5469 1164.0938,77.9375 1164.0938,78.3906 C1164.0938,78.7813 1163.7656,79.2344 1163.1875,79.6406 C1162.4375,80.1875 1161.2813,80.4844 1160.0625,80.4844 C1157.1719,80.4844 1155.0625,78.5938 1155.0625,76.0156 L1155.0625,74.8906 C1155.0625,72.1719 1157.0625,70.0938 1159.6875,70.0938 C1160.5625,70.0938 1161.1563,70.2344 1162.0938,70.6719 Z "/><text fill="#000000" font-family="sans-serif" font-size="12" lengthAdjust="spacingAndGlyphs" textLength="32" x="1180.25" y="79.1543">Party</text><line style="stroke: #383838; stroke-width: 1.5;" x1="947" x2="1413" y1="91" y2="91"/><text fill="#000000" font-family="sans-serif" font-size="11" lengthAdjust="spacingAndGlyphs" textLength="36" x="952" y="105.2104">-id: int</text><text fill="#000000" font-family="sans-serif" font-size="11" lengthAdjust="spacingAndGlyphs" textLength="78" x="952" y="118.0151">-name: String</text><text fill="#000000" font-family="sans-serif" font-size="11" lengthAdjust="spacingAndGlyphs" textLength="63" x="952" y="130.8198">-date: Date</text><text fill="#000000" font-family="sans-serif" font-size="11" lengthAdjust="spacingAndGlyphs" textLength="140" x="952" y="143.6245">-numberOfAttendees: int</text><text fill="#000000" font-family="sans-serif" font-size="11" lengthAdjust="spacingAndGlyphs" textLength="81" x="952" y="156.4292">-balance: float</text><line style="stroke: #383838; stroke-width: 1.5;" x1="947" x2="1413" y1="163.0234" y2="163.0234"/><text fill="#000000" font-family="sans-serif" font-size="11" lengthAdjust="spacingAndGlyphs" textLength="456" x="952" y="177.2339">+Party(id: int, name: String, date: Date, numberOfAttendees: int, balance: float)</text><!--class RESTDataManager--><rect fill="#F8F8F8" filter="url(#fj4zs6n56bq37)" height="99.2188" id="RESTDataManager" style="stroke: #383838; stroke-width: 1.5;" width="350" x="38" y="72"/><ellipse cx="150.75" cy="88" fill="#B1B1B1" rx="11" ry="11" style="stroke: #383838; stroke-width: 1.0;"/><path d="M151.7031,84.7813 L151.7031,91.2969 L153.4219,91.2969 C153.875,91.2969 154.0156,91.3281 154.1875,91.4531 C154.4219,91.625 154.5313,91.875 154.5313,92.1563 C154.5313,92.7188 154.1719,93 153.4219,93 L148.2813,93 C147.875,93 147.6719,92.9531 147.5156,92.8281 C147.2969,92.6719 147.1563,92.4063 147.1563,92.1563 C147.1563,91.8594 147.3125,91.5781 147.5625,91.4219 C147.7188,91.3125 147.8438,91.2969 148.2813,91.2969 L150,91.2969 L150,84.7813 L148.2813,84.7813 C147.8594,84.7813 147.6719,84.75 147.5156,84.6406 C147.2969,84.4688 147.1563,84.2188 147.1563,83.9375 C147.1563,83.6563 147.3125,83.3594 147.5625,83.2031 C147.7188,83.1094 147.8438,83.0938 148.2813,83.0938 L153.4219,83.0938 C153.875,83.0938 154.0156,83.125 154.1875,83.2344 C154.4219,83.4063 154.5313,83.6719 154.5313,83.9375 C154.5313,84.2344 154.3906,84.5156 154.125,84.6719 C154,84.75 153.8125,84.7813 153.4219,84.7813 Z "/><text fill="#000000" font-family="sans-serif" font-size="12" font-style="italic" lengthAdjust="spacingAndGlyphs" textLength="116" x="171.25" y="92.1543">RESTDataManager</text><line style="stroke: #383838; stroke-width: 1.5;" x1="39" x2="387" y1="104" y2="104"/><line style="stroke: #383838; stroke-width: 1.5;" x1="39" x2="387" y1="112" y2="112"/><text fill="#000000" font-family="sans-serif" font-size="11" lengthAdjust="spacingAndGlyphs" textLength="270" x="44" y="126.2104">+get(ressource : String) : Map&lt;String, Object&gt;</text><text fill="#000000" font-family="sans-serif" font-size="11" lengthAdjust="spacingAndGlyphs" textLength="338" x="44" y="139.0151">+post(resource : String, jsonObject : Map&lt;String, Object&gt;)</text><text fill="#000000" font-family="sans-serif" font-size="11" lengthAdjust="spacingAndGlyphs" textLength="322" x="44" y="151.8198">+put(resource : String, jsonObject : Map&lt;String, Object)</text><text fill="#000000" font-family="sans-serif" font-size="11" lengthAdjust="spacingAndGlyphs" textLength="149" x="44" y="164.6245">+delete(resource : String)</text><!--class RESTfulDataManager--><rect fill="#F8F8F8" filter="url(#fj4zs6n56bq37)" height="99.2188" id="RESTfulDataManager" style="stroke: #383838; stroke-width: 1.5;" width="408" x="38" y="225"/><ellipse cx="172.25" cy="241" fill="#C2C2C2" rx="11" ry="11" style="stroke: #383838; stroke-width: 1.0;"/><path d="M174.5938,236.6719 L174.7656,236.75 C174.9844,236.4375 175.1875,236.3438 175.4844,236.3438 C175.7813,236.3438 176.0625,236.4844 176.2188,236.75 C176.3125,236.9063 176.3281,237.0313 176.3281,237.4688 L176.3281,238.8906 C176.3281,239.3125 176.2969,239.5 176.1875,239.6563 C176.0156,239.875 175.75,240.0156 175.4844,240.0156 C175.2656,240.0156 175.0313,239.9063 174.8906,239.7656 C174.75,239.6406 174.7188,239.5156 174.6563,239.1094 C174.5625,238.7031 174.3906,238.4844 173.9063,238.2031 C173.4375,237.9531 172.8281,237.7969 172.25,237.7969 C170.5156,237.7969 169.2656,239.1094 169.2656,240.8906 L169.2656,241.9844 C169.2656,243.6875 170.5625,244.7813 172.6094,244.7813 C173.375,244.7813 174.0625,244.6563 174.4844,244.3906 C174.6719,244.2969 174.6719,244.2969 175.125,243.8125 C175.3125,243.625 175.5156,243.5469 175.7344,243.5469 C176.2031,243.5469 176.5938,243.9375 176.5938,244.3906 C176.5938,244.7813 176.2656,245.2344 175.6875,245.6406 C174.9375,246.1875 173.7813,246.4844 172.5625,246.4844 C169.6719,246.4844 167.5625,244.5938 167.5625,242.0156 L167.5625,240.8906 C167.5625,238.1719 169.5625,236.0938 172.1875,236.0938 C173.0625,236.0938 173.6563,236.2344 174.5938,236.6719 Z "/><text fill="#000000" font-family="sans-serif" font-size="12" lengthAdjust="spacingAndGlyphs" textLength="131" x="192.75" y="245.1543">RESTfulDataManager</text><line style="stroke: #383838; stroke-width: 1.5;" x1="39" x2="445" y1="257" y2="257"/><text fill="#000000" font-family="sans-serif" font-size="11" lengthAdjust="spacingAndGlyphs" textLength="75" x="44" y="271.2104">-host : String</text><text fill="#000000" font-family="sans-serif" font-size="11" lengthAdjust="spacingAndGlyphs" textLength="73" x="44" y="284.0151">-port : String</text><text fill="#000000" font-family="sans-serif" font-size="11" lengthAdjust="spacingAndGlyphs" textLength="109" x="44" y="296.8198">-authToken : String</text><line style="stroke: #383838; stroke-width: 1.5;" x1="39" x2="445" y1="303.4141" y2="303.4141"/><text fill="#000000" font-family="sans-serif" font-size="11" lengthAdjust="spacingAndGlyphs" textLength="396" x="44" y="317.6245">+RESTfulDataManager(host : String, port : String, authToken : String)</text><!--class PartyController--><rect fill="#F8F8F8" filter="url(#fj4zs6n56bq37)" height="73.6094" id="PartyController" style="stroke: #383838; stroke-width: 1.5;" width="304" x="498" y="84.5"/><ellipse cx="599.25" cy="100.5" fill="#C2C2C2" rx="11" ry="11" style="stroke: #383838; stroke-width: 1.0;"/><path d="M601.5938,96.1719 L601.7656,96.25 C601.9844,95.9375 602.1875,95.8438 602.4844,95.8438 C602.7813,95.8438 603.0625,95.9844 603.2188,96.25 C603.3125,96.4063 603.3281,96.5313 603.3281,96.9688 L603.3281,98.3906 C603.3281,98.8125 603.2969,99 603.1875,99.1563 C603.0156,99.375 602.75,99.5156 602.4844,99.5156 C602.2656,99.5156 602.0313,99.4063 601.8906,99.2656 C601.75,99.1406 601.7188,99.0156 601.6563,98.6094 C601.5625,98.2031 601.3906,97.9844 600.9063,97.7031 C600.4375,97.4531 599.8281,97.2969 599.25,97.2969 C597.5156,97.2969 596.2656,98.6094 596.2656,100.3906 L596.2656,101.4844 C596.2656,103.1875 597.5625,104.2813 599.6094,104.2813 C600.375,104.2813 601.0625,104.1563 601.4844,103.8906 C601.6719,103.7969 601.6719,103.7969 602.125,103.3125 C602.3125,103.125 602.5156,103.0469 602.7344,103.0469 C603.2031,103.0469 603.5938,103.4375 603.5938,103.8906 C603.5938,104.2813 603.2656,104.7344 602.6875,105.1406 C601.9375,105.6875 600.7813,105.9844 599.5625,105.9844 C596.6719,105.9844 594.5625,104.0938 594.5625,101.5156 L594.5625,100.3906 C594.5625,97.6719 596.5625,95.5938 599.1875,95.5938 C600.0625,95.5938 600.6563,95.7344 601.5938,96.1719 Z "/><text fill="#000000" font-family="sans-serif" font-size="12" lengthAdjust="spacingAndGlyphs" textLength="93" x="619.75" y="104.6543">PartyController</text><line style="stroke: #383838; stroke-width: 1.5;" x1="499" x2="801" y1="116.5" y2="116.5"/><line style="stroke: #383838; stroke-width: 1.5;" x1="499" x2="801" y1="124.5" y2="124.5"/><text fill="#000000" font-family="sans-serif" font-size="11" lengthAdjust="spacingAndGlyphs" textLength="292" x="504" y="138.7104">+PartyController(dataManager : RESTDataManager)</text><text fill="#000000" font-family="sans-serif" font-size="11" lengthAdjust="spacingAndGlyphs" textLength="167" x="504" y="151.5151">+getAllParties() : List&lt;Party&gt;</text><!--link RESTDataManager to RESTfulDataManager--><path d="M223.356,176.424 C226.399,192.269 229.708,209.498 232.682,224.983 " fill="none" id="RESTDataManager-RESTfulDataManager" style="stroke: #383838; stroke-width: 1.0; stroke-dasharray: 7.0,7.0;"/><polygon fill="#383838" points="222.335,171.109,220.104,180.7018,223.2779,176.0193,227.9605,179.1932,222.335,171.109" style="stroke: #383838; stroke-width: 1.0;"/><!--link RESTDataManager to PartyController--><path d="M393.535,121.5 C428.355,121.5 463.175,121.5 497.995,121.5 " fill="none" id="RESTDataManager-PartyController" style="stroke: #383838; stroke-width: 1.0;"/><polygon fill="#383838" points="388.397,121.5,397.397,125.5,393.397,121.5,397.397,117.5,388.397,121.5" style="stroke: #383838; stroke-width: 1.0;"/><text fill="#000000" font-family="sans-serif" font-size="13" lengthAdjust="spacingAndGlyphs" textLength="94" x="395.6944" y="118.3194">- dataManager</text><!--link Party to PartyController--><path d="M940.679,121.5 C893.616,121.5 845.463,121.5 802.232,121.5 " fill="none" id="Party-PartyController" style="stroke: #383838; stroke-width: 1.0; stroke-dasharray: 7.0,7.0;"/><polygon fill="#383838" points="945.819,121.5,936.819,117.5,940.819,121.5,936.819,125.5,945.819,121.5" style="stroke: #383838; stroke-width: 1.0;"/><text fill="#000000" font-family="sans-serif" font-size="13" lengthAdjust="spacingAndGlyphs" textLength="32" x="858" y="114.5669">Uses</text><!--
@startuml
skinparam monochrome true
skinparam classAttributeIconSize 0
skinparam nodesep 110
skinparam ranksep 10

package Model {
	class Party {
		- id: int
		- name: String
		- date: Date
		- numberOfAttendees: int
		- balance: float
		+ Party(id: int, name: String, date: Date, numberOfAttendees: int, balance: float)
	}
}

package Controller {
	interface RESTDataManager {
		+ get(ressource : String) : Map<String, Object>
		+ post(resource : String, jsonObject : Map<String, Object>)
		+ put(resource : String, jsonObject : Map<String, Object)
		+ delete(resource : String)
	}

	class RESTfulDataManager {
		- host : String
		- port : String
		- authToken : String
		+ RESTfulDataManager(host : String, port : String, authToken : String)
	}

	RESTDataManager <.. RESTfulDataManager
		

	class PartyController{
		+ PartyController(dataManager : RESTDataManager)
		+ getAllParties() : List<Party>
	}

	RESTDataManager "- dataManager" <- PartyController
}

Party <. PartyController : Uses
@enduml

PlantUML version 1.2017.20(Mon Dec 11 16:57:05 UTC 2017)
(GPL source distribution)
Java Runtime: Java(TM) SE Runtime Environment
JVM: Java HotSpot(TM) 64-Bit Server VM
Java Version: 1.7.0_25-b15
Operating System: Linux
Default Encoding: UTF-8
Language: en
Country: US
--></g></svg>