<?xml version="1.0" encoding="UTF-8" standalone="no"?><svg xmlns="http://www.w3.org/2000/svg" xmlns:xlink="http://www.w3.org/1999/xlink" contentScriptType="application/ecmascript" contentStyleType="text/css" height="212px" preserveAspectRatio="none" style="width:1051px;height:212px;" version="1.1" viewBox="0 0 1051 212" width="1051px" zoomAndPan="magnify"><defs><filter height="300%" id="fgxu4z81p3xs5" width="300%" x="-1" y="-1"><feGaussianBlur result="blurOut" stdDeviation="2.0"/><feColorMatrix in="blurOut" result="blurOut2" type="matrix" values="0 0 0 0 0 0 0 0 0 0 0 0 0 0 0 0 0 0 .4 0"/><feOffset dx="4.0" dy="4.0" in="blurOut2" result="blurOut3"/><feBlend in="SourceGraphic" in2="blurOut3" mode="normal"/></filter></defs><g><!--cluster Model--><polygon fill="#FFFFFF" filter="url(#fgxu4z81p3xs5)" points="22,24,75,24,82,46.2969,522,46.2969,522,200,22,200,22,24" style="stroke: #000000; stroke-width: 1.5;"/><line style="stroke: #000000; stroke-width: 1.5;" x1="22" x2="82" y1="46.2969" y2="46.2969"/><text fill="#000000" font-family="sans-serif" font-size="14" font-weight="bold" lengthAdjust="spacingAndGlyphs" textLength="47" x="26" y="38.9951">Model</text><!--cluster Controller--><polygon fill="#FFFFFF" filter="url(#fgxu4z81p3xs5)" points="633,30.5,718,30.5,725,52.7969,1029,52.7969,1029,193.5,633,193.5,633,30.5" style="stroke: #000000; stroke-width: 1.5;"/><line style="stroke: #000000; stroke-width: 1.5;" x1="633" x2="725" y1="52.7969" y2="52.7969"/><text fill="#000000" font-family="sans-serif" font-size="14" font-weight="bold" lengthAdjust="spacingAndGlyphs" textLength="79" x="637" y="45.4951">Controller</text><!--class Party--><rect fill="#F8F8F8" filter="url(#fgxu4z81p3xs5)" height="124.8281" id="Party" style="stroke: #383838; stroke-width: 1.5;" width="468" x="38" y="59"/><ellipse cx="251.75" cy="75" fill="#C2C2C2" rx="11" ry="11" style="stroke: #383838; stroke-width: 1.0;"/><path d="M254.0938,70.6719 L254.2656,70.75 C254.4844,70.4375 254.6875,70.3438 254.9844,70.3438 C255.2813,70.3438 255.5625,70.4844 255.7188,70.75 C255.8125,70.9063 255.8281,71.0313 255.8281,71.4688 L255.8281,72.8906 C255.8281,73.3125 255.7969,73.5 255.6875,73.6563 C255.5156,73.875 255.25,74.0156 254.9844,74.0156 C254.7656,74.0156 254.5313,73.9063 254.3906,73.7656 C254.25,73.6406 254.2188,73.5156 254.1563,73.1094 C254.0625,72.7031 253.8906,72.4844 253.4063,72.2031 C252.9375,71.9531 252.3281,71.7969 251.75,71.7969 C250.0156,71.7969 248.7656,73.1094 248.7656,74.8906 L248.7656,75.9844 C248.7656,77.6875 250.0625,78.7813 252.1094,78.7813 C252.875,78.7813 253.5625,78.6563 253.9844,78.3906 C254.1719,78.2969 254.1719,78.2969 254.625,77.8125 C254.8125,77.625 255.0156,77.5469 255.2344,77.5469 C255.7031,77.5469 256.0938,77.9375 256.0938,78.3906 C256.0938,78.7813 255.7656,79.2344 255.1875,79.6406 C254.4375,80.1875 253.2813,80.4844 252.0625,80.4844 C249.1719,80.4844 247.0625,78.5938 247.0625,76.0156 L247.0625,74.8906 C247.0625,72.1719 249.0625,70.0938 251.6875,70.0938 C252.5625,70.0938 253.1563,70.2344 254.0938,70.6719 Z "/><text fill="#000000" font-family="sans-serif" font-size="12" lengthAdjust="spacingAndGlyphs" textLength="32" x="272.25" y="79.1543">Party</text><line style="stroke: #383838; stroke-width: 1.5;" x1="39" x2="505" y1="91" y2="91"/><text fill="#000000" font-family="sans-serif" font-size="11" lengthAdjust="spacingAndGlyphs" textLength="36" x="44" y="105.2104">-id: int</text><text fill="#000000" font-family="sans-serif" font-size="11" lengthAdjust="spacingAndGlyphs" textLength="78" x="44" y="118.0151">-name: String</text><text fill="#000000" font-family="sans-serif" font-size="11" lengthAdjust="spacingAndGlyphs" textLength="63" x="44" y="130.8198">-date: Date</text><text fill="#000000" font-family="sans-serif" font-size="11" lengthAdjust="spacingAndGlyphs" textLength="140" x="44" y="143.6245">-numberOfAttendees: int</text><text fill="#000000" font-family="sans-serif" font-size="11" lengthAdjust="spacingAndGlyphs" textLength="81" x="44" y="156.4292">-balance: float</text><line style="stroke: #383838; stroke-width: 1.5;" x1="39" x2="505" y1="163.0234" y2="163.0234"/><text fill="#000000" font-family="sans-serif" font-size="11" lengthAdjust="spacingAndGlyphs" textLength="456" x="44" y="177.2339">+Party(id: int, name: String, date: Date, numberOfAttendees: int, balance: float)</text><!--class PartyController--><rect fill="#F8F8F8" filter="url(#fgxu4z81p3xs5)" height="112.0234" id="PartyController" style="stroke: #383838; stroke-width: 1.5;" width="363" x="649.5" y="65.5"/><ellipse cx="780.25" cy="81.5" fill="#C2C2C2" rx="11" ry="11" style="stroke: #383838; stroke-width: 1.0;"/><path d="M782.5938,77.1719 L782.7656,77.25 C782.9844,76.9375 783.1875,76.8438 783.4844,76.8438 C783.7813,76.8438 784.0625,76.9844 784.2188,77.25 C784.3125,77.4063 784.3281,77.5313 784.3281,77.9688 L784.3281,79.3906 C784.3281,79.8125 784.2969,80 784.1875,80.1563 C784.0156,80.375 783.75,80.5156 783.4844,80.5156 C783.2656,80.5156 783.0313,80.4063 782.8906,80.2656 C782.75,80.1406 782.7188,80.0156 782.6563,79.6094 C782.5625,79.2031 782.3906,78.9844 781.9063,78.7031 C781.4375,78.4531 780.8281,78.2969 780.25,78.2969 C778.5156,78.2969 777.2656,79.6094 777.2656,81.3906 L777.2656,82.4844 C777.2656,84.1875 778.5625,85.2813 780.6094,85.2813 C781.375,85.2813 782.0625,85.1563 782.4844,84.8906 C782.6719,84.7969 782.6719,84.7969 783.125,84.3125 C783.3125,84.125 783.5156,84.0469 783.7344,84.0469 C784.2031,84.0469 784.5938,84.4375 784.5938,84.8906 C784.5938,85.2813 784.2656,85.7344 783.6875,86.1406 C782.9375,86.6875 781.7813,86.9844 780.5625,86.9844 C777.6719,86.9844 775.5625,85.0938 775.5625,82.5156 L775.5625,81.3906 C775.5625,78.6719 777.5625,76.5938 780.1875,76.5938 C781.0625,76.5938 781.6563,76.7344 782.5938,77.1719 Z "/><text fill="#000000" font-family="sans-serif" font-size="12" lengthAdjust="spacingAndGlyphs" textLength="93" x="800.75" y="85.6543">PartyController</text><line style="stroke: #383838; stroke-width: 1.5;" x1="650.5" x2="1011.5" y1="97.5" y2="97.5"/><text fill="#000000" font-family="sans-serif" font-size="11" lengthAdjust="spacingAndGlyphs" textLength="71" x="655.5" y="111.7104">-host: String</text><text fill="#000000" font-family="sans-serif" font-size="11" lengthAdjust="spacingAndGlyphs" textLength="69" x="655.5" y="124.5151">-port: String</text><text fill="#000000" font-family="sans-serif" font-size="11" lengthAdjust="spacingAndGlyphs" textLength="105" x="655.5" y="137.3198">-authToken: String</text><line style="stroke: #383838; stroke-width: 1.5;" x1="650.5" x2="1011.5" y1="143.9141" y2="143.9141"/><text fill="#000000" font-family="sans-serif" font-size="11" lengthAdjust="spacingAndGlyphs" textLength="351" x="655.5" y="158.1245">+PartyController(host: String, port: String, authToken: String)</text><text fill="#000000" font-family="sans-serif" font-size="11" lengthAdjust="spacingAndGlyphs" textLength="167" x="655.5" y="170.9292">+getAllParties() : List&lt;Party&gt;</text><!--link Party to PartyController--><path d="M511.284,121.5 C557.555,121.5 605.329,121.5 649.388,121.5 " fill="none" id="Party-PartyController" style="stroke: #383838; stroke-width: 1.0; stroke-dasharray: 7.0,7.0;"/><polygon fill="#383838" points="506.232,121.5,515.232,125.5,511.232,121.5,515.232,117.5,506.232,121.5" style="stroke: #383838; stroke-width: 1.0;"/><text fill="#000000" font-family="sans-serif" font-size="13" lengthAdjust="spacingAndGlyphs" textLength="32" x="561.75" y="114.5669">Uses</text><!--
@startuml
skinparam monochrome true
skinparam classAttributeIconSize 0
skinparam nodesep 110
skinparam ranksep 10

package Model {
	class Party {
		- id: int
		- name: String
		- date: Date
		- numberOfAttendees: int
		- balance: float
		+ Party(id: int, name: String, date: Date, numberOfAttendees: int, balance: float)
	}
}

package Controller {
	class PartyController{
		- host: String
		- port: String
		- authToken: String
		+ PartyController(host: String, port: String, authToken: String)
		+ getAllParties() : List<Party>
	}
}

Party <. PartyController : Uses
@enduml

PlantUML version 1.2017.20(Mon Dec 11 16:57:05 UTC 2017)
(GPL source distribution)
Java Runtime: Java(TM) SE Runtime Environment
JVM: Java HotSpot(TM) 64-Bit Server VM
Java Version: 1.7.0_25-b15
Operating System: Linux
Default Encoding: UTF-8
Language: en
Country: US
--></g></svg>