<?xml version="1.0" encoding="UTF-8" standalone="no"?><svg xmlns="http://www.w3.org/2000/svg" xmlns:xlink="http://www.w3.org/1999/xlink" contentScriptType="application/ecmascript" contentStyleType="text/css" height="537px" preserveAspectRatio="none" style="width:1592px;height:537px;" version="1.1" viewBox="0 0 1592 537" width="1592px" zoomAndPan="magnify"><defs><filter height="300%" id="f125ggz4pm1xp5" width="300%" x="-1" y="-1"><feGaussianBlur result="blurOut" stdDeviation="2.0"/><feColorMatrix in="blurOut" result="blurOut2" type="matrix" values="0 0 0 0 0 0 0 0 0 0 0 0 0 0 0 0 0 0 .4 0"/><feOffset dx="4.0" dy="4.0" in="blurOut2" result="blurOut3"/><feBlend in="SourceGraphic" in2="blurOut3" mode="normal"/></filter></defs><g><!--cluster Model--><polygon fill="#FFFFFF" filter="url(#f125ggz4pm1xp5)" points="22,196,75,196,82,218.2969,725,218.2969,725,525,22,525,22,196" style="stroke: #000000; stroke-width: 1.5;"/><line style="stroke: #000000; stroke-width: 1.5;" x1="22" x2="82" y1="218.2969" y2="218.2969"/><text fill="#000000" font-family="sans-serif" font-size="14" font-weight="bold" lengthAdjust="spacingAndGlyphs" textLength="47" x="26" y="210.9951">Model</text><!--cluster Controller--><polygon fill="#FFFFFF" filter="url(#f125ggz4pm1xp5)" points="749,24,834,24,841,46.2969,1533,46.2969,1533,346,749,346,749,24" style="stroke: #000000; stroke-width: 1.5;"/><line style="stroke: #000000; stroke-width: 1.5;" x1="749" x2="841" y1="46.2969" y2="46.2969"/><text fill="#000000" font-family="sans-serif" font-size="14" font-weight="bold" lengthAdjust="spacingAndGlyphs" textLength="79" x="753" y="38.9951">Controller</text><!--class Party--><rect fill="#F8F8F8" filter="url(#f125ggz4pm1xp5)" height="137.6328" id="Party" style="stroke: #383838; stroke-width: 1.5;" width="410" x="299" y="371"/><ellipse cx="483.75" cy="387" fill="#C2C2C2" rx="11" ry="11" style="stroke: #383838; stroke-width: 1.0;"/><path d="M486.0938,382.6719 L486.2656,382.75 C486.4844,382.4375 486.6875,382.3438 486.9844,382.3438 C487.2813,382.3438 487.5625,382.4844 487.7188,382.75 C487.8125,382.9063 487.8281,383.0313 487.8281,383.4688 L487.8281,384.8906 C487.8281,385.3125 487.7969,385.5 487.6875,385.6563 C487.5156,385.875 487.25,386.0156 486.9844,386.0156 C486.7656,386.0156 486.5313,385.9063 486.3906,385.7656 C486.25,385.6406 486.2188,385.5156 486.1563,385.1094 C486.0625,384.7031 485.8906,384.4844 485.4063,384.2031 C484.9375,383.9531 484.3281,383.7969 483.75,383.7969 C482.0156,383.7969 480.7656,385.1094 480.7656,386.8906 L480.7656,387.9844 C480.7656,389.6875 482.0625,390.7813 484.1094,390.7813 C484.875,390.7813 485.5625,390.6563 485.9844,390.3906 C486.1719,390.2969 486.1719,390.2969 486.625,389.8125 C486.8125,389.625 487.0156,389.5469 487.2344,389.5469 C487.7031,389.5469 488.0938,389.9375 488.0938,390.3906 C488.0938,390.7813 487.7656,391.2344 487.1875,391.6406 C486.4375,392.1875 485.2813,392.4844 484.0625,392.4844 C481.1719,392.4844 479.0625,390.5938 479.0625,388.0156 L479.0625,386.8906 C479.0625,384.1719 481.0625,382.0938 483.6875,382.0938 C484.5625,382.0938 485.1563,382.2344 486.0938,382.6719 Z "/><text fill="#000000" font-family="sans-serif" font-size="12" lengthAdjust="spacingAndGlyphs" textLength="32" x="504.25" y="391.1543">Party</text><line style="stroke: #383838; stroke-width: 1.5;" x1="300" x2="708" y1="403" y2="403"/><text fill="#000000" font-family="sans-serif" font-size="11" lengthAdjust="spacingAndGlyphs" textLength="36" x="305" y="417.2104">-id: int</text><text fill="#000000" font-family="sans-serif" font-size="11" lengthAdjust="spacingAndGlyphs" textLength="78" x="305" y="430.0151">-name: String</text><text fill="#000000" font-family="sans-serif" font-size="11" lengthAdjust="spacingAndGlyphs" textLength="63" x="305" y="442.8198">-date: Date</text><text fill="#000000" font-family="sans-serif" font-size="11" lengthAdjust="spacingAndGlyphs" textLength="140" x="305" y="455.6245">-numberOfAttendees: int</text><text fill="#000000" font-family="sans-serif" font-size="11" lengthAdjust="spacingAndGlyphs" textLength="81" x="305" y="468.4292">-balance: float</text><line style="stroke: #383838; stroke-width: 1.5;" x1="300" x2="708" y1="475.0234" y2="475.0234"/><text fill="#000000" font-family="sans-serif" font-size="11" lengthAdjust="spacingAndGlyphs" textLength="303" x="305" y="489.2339">+Party(id, name, date, numberOfAttendees, balance)</text><text fill="#000000" font-family="sans-serif" font-size="11" lengthAdjust="spacingAndGlyphs" textLength="398" x="305" y="502.0386">+Party(name, date, normalBeerPrice, specialBeerPrice, servedBeers)</text><!--class Product--><rect fill="#F8F8F8" filter="url(#f125ggz4pm1xp5)" height="99.2188" id="Product" style="stroke: #383838; stroke-width: 1.5;" width="190" x="425" y="231"/><ellipse cx="491.25" cy="247" fill="#C2C2C2" rx="11" ry="11" style="stroke: #383838; stroke-width: 1.0;"/><path d="M493.5938,242.6719 L493.7656,242.75 C493.9844,242.4375 494.1875,242.3438 494.4844,242.3438 C494.7813,242.3438 495.0625,242.4844 495.2188,242.75 C495.3125,242.9063 495.3281,243.0313 495.3281,243.4688 L495.3281,244.8906 C495.3281,245.3125 495.2969,245.5 495.1875,245.6563 C495.0156,245.875 494.75,246.0156 494.4844,246.0156 C494.2656,246.0156 494.0313,245.9063 493.8906,245.7656 C493.75,245.6406 493.7188,245.5156 493.6563,245.1094 C493.5625,244.7031 493.3906,244.4844 492.9063,244.2031 C492.4375,243.9531 491.8281,243.7969 491.25,243.7969 C489.5156,243.7969 488.2656,245.1094 488.2656,246.8906 L488.2656,247.9844 C488.2656,249.6875 489.5625,250.7813 491.6094,250.7813 C492.375,250.7813 493.0625,250.6563 493.4844,250.3906 C493.6719,250.2969 493.6719,250.2969 494.125,249.8125 C494.3125,249.625 494.5156,249.5469 494.7344,249.5469 C495.2031,249.5469 495.5938,249.9375 495.5938,250.3906 C495.5938,250.7813 495.2656,251.2344 494.6875,251.6406 C493.9375,252.1875 492.7813,252.4844 491.5625,252.4844 C488.6719,252.4844 486.5625,250.5938 486.5625,248.0156 L486.5625,246.8906 C486.5625,244.1719 488.5625,242.0938 491.1875,242.0938 C492.0625,242.0938 492.6563,242.2344 493.5938,242.6719 Z "/><text fill="#000000" font-family="sans-serif" font-size="12" lengthAdjust="spacingAndGlyphs" textLength="49" x="511.75" y="251.1543">Product</text><line style="stroke: #383838; stroke-width: 1.5;" x1="426" x2="614" y1="263" y2="263"/><text fill="#000000" font-family="sans-serif" font-size="11" lengthAdjust="spacingAndGlyphs" textLength="36" x="431" y="277.2104">-id: int</text><text fill="#000000" font-family="sans-serif" font-size="11" lengthAdjust="spacingAndGlyphs" textLength="78" x="431" y="290.0151">-name: String</text><text fill="#000000" font-family="sans-serif" font-size="11" lengthAdjust="spacingAndGlyphs" textLength="65" x="431" y="302.8198">-price: float</text><line style="stroke: #383838; stroke-width: 1.5;" x1="426" x2="614" y1="309.4141" y2="309.4141"/><text fill="#000000" font-family="sans-serif" font-size="11" lengthAdjust="spacingAndGlyphs" textLength="178" x="431" y="323.6245">+Product(id, name, price, type)</text><!--class ProductType--><rect fill="#F8F8F8" filter="url(#f125ggz4pm1xp5)" height="86.4141" id="ProductType" style="stroke: #383838; stroke-width: 1.5;" width="110" x="205" y="237.5"/><ellipse cx="220" cy="253.5" fill="#ABABAB" rx="11" ry="11" style="stroke: #383838; stroke-width: 1.0;"/><path d="M218.2969,254.375 L218.2969,256.7969 L222.6563,256.7969 L222.6563,255.9219 C222.6563,255.4375 222.6875,255.2969 222.7969,255.1406 C222.9688,254.8906 223.2344,254.7813 223.5,254.7813 C223.7813,254.7813 224.0625,254.9375 224.2344,255.1875 C224.3125,255.3438 224.3438,255.4844 224.3438,255.9219 L224.3438,258.5 L216.3438,258.5 C215.9531,258.5 215.7188,258.4531 215.5781,258.3281 C215.3594,258.1719 215.2188,257.9219 215.2188,257.6563 C215.2188,257.3594 215.375,257.0938 215.625,256.9219 C215.7813,256.8125 215.9375,256.7969 216.3438,256.7969 L216.5938,256.7969 L216.5938,250.2813 L216.3438,250.2813 C215.9219,250.2813 215.7344,250.25 215.5781,250.1406 C215.3594,249.9688 215.2188,249.7188 215.2188,249.4375 C215.2188,249.1563 215.375,248.8594 215.625,248.7031 C215.7813,248.6094 215.9063,248.5938 216.3438,248.5938 L223.9688,248.5938 L223.9688,251.1406 C223.9688,251.6094 223.9375,251.75 223.8281,251.9219 C223.6563,252.1406 223.3906,252.2813 223.125,252.2813 C222.8438,252.2813 222.5625,252.125 222.3906,251.875 C222.3125,251.7188 222.2813,251.5469 222.2813,251.1406 L222.2813,250.2813 L218.2969,250.2813 L218.2969,252.6875 L219.75,252.6875 L219.75,252.5625 C219.75,252.1094 219.7813,251.9531 219.8906,251.7813 C220.0625,251.5625 220.3281,251.4219 220.5781,251.4219 C221.0313,251.4219 221.3438,251.7344 221.4063,252.2031 C221.4219,252.3594 221.4219,252.4063 221.4219,252.5625 L221.4219,254.4844 C221.4219,254.9375 221.3906,255.0938 221.2656,255.25 C221.1094,255.4688 220.8438,255.6094 220.5938,255.6094 C220.2969,255.6094 220.0156,255.4531 219.8594,255.2031 C219.7813,255.0469 219.75,254.8906 219.75,254.4844 L219.75,254.375 Z "/><text fill="#000000" font-family="sans-serif" font-size="12" lengthAdjust="spacingAndGlyphs" textLength="78" x="234" y="257.6543">ProductType</text><line style="stroke: #383838; stroke-width: 1.5;" x1="206" x2="314" y1="269.5" y2="269.5"/><text fill="#000000" font-family="sans-serif" font-size="11" lengthAdjust="spacingAndGlyphs" textLength="33" x="211" y="283.7104">BEER,</text><text fill="#000000" font-family="sans-serif" font-size="11" lengthAdjust="spacingAndGlyphs" textLength="53" x="211" y="296.5151">DEPOSIT,</text><text fill="#000000" font-family="sans-serif" font-size="11" lengthAdjust="spacingAndGlyphs" textLength="32" x="211" y="309.3198">FOOD</text><line style="stroke: #383838; stroke-width: 1.5;" x1="206" x2="314" y1="315.9141" y2="315.9141"/><!--class BeerCategory--><rect fill="#F8F8F8" filter="url(#f125ggz4pm1xp5)" height="73.6094" id="BeerCategory" style="stroke: #383838; stroke-width: 1.5;" width="117" x="38.5" y="403"/><ellipse cx="53.5" cy="419" fill="#ABABAB" rx="11" ry="11" style="stroke: #383838; stroke-width: 1.0;"/><path d="M51.7969,419.875 L51.7969,422.2969 L56.1563,422.2969 L56.1563,421.4219 C56.1563,420.9375 56.1875,420.7969 56.2969,420.6406 C56.4688,420.3906 56.7344,420.2813 57,420.2813 C57.2813,420.2813 57.5625,420.4375 57.7344,420.6875 C57.8125,420.8438 57.8438,420.9844 57.8438,421.4219 L57.8438,424 L49.8438,424 C49.4531,424 49.2188,423.9531 49.0781,423.8281 C48.8594,423.6719 48.7188,423.4219 48.7188,423.1563 C48.7188,422.8594 48.875,422.5938 49.125,422.4219 C49.2813,422.3125 49.4375,422.2969 49.8438,422.2969 L50.0938,422.2969 L50.0938,415.7813 L49.8438,415.7813 C49.4219,415.7813 49.2344,415.75 49.0781,415.6406 C48.8594,415.4688 48.7188,415.2188 48.7188,414.9375 C48.7188,414.6563 48.875,414.3594 49.125,414.2031 C49.2813,414.1094 49.4063,414.0938 49.8438,414.0938 L57.4688,414.0938 L57.4688,416.6406 C57.4688,417.1094 57.4375,417.25 57.3281,417.4219 C57.1563,417.6406 56.8906,417.7813 56.625,417.7813 C56.3438,417.7813 56.0625,417.625 55.8906,417.375 C55.8125,417.2188 55.7813,417.0469 55.7813,416.6406 L55.7813,415.7813 L51.7969,415.7813 L51.7969,418.1875 L53.25,418.1875 L53.25,418.0625 C53.25,417.6094 53.2813,417.4531 53.3906,417.2813 C53.5625,417.0625 53.8281,416.9219 54.0781,416.9219 C54.5313,416.9219 54.8438,417.2344 54.9063,417.7031 C54.9219,417.8594 54.9219,417.9063 54.9219,418.0625 L54.9219,419.9844 C54.9219,420.4375 54.8906,420.5938 54.7656,420.75 C54.6094,420.9688 54.3438,421.1094 54.0938,421.1094 C53.7969,421.1094 53.5156,420.9531 53.3594,420.7031 C53.2813,420.5469 53.25,420.3906 53.25,419.9844 L53.25,419.875 Z "/><text fill="#000000" font-family="sans-serif" font-size="12" lengthAdjust="spacingAndGlyphs" textLength="85" x="67.5" y="423.1543">BeerCategory</text><line style="stroke: #383838; stroke-width: 1.5;" x1="39.5" x2="154.5" y1="435" y2="435"/><text fill="#000000" font-family="sans-serif" font-size="11" lengthAdjust="spacingAndGlyphs" textLength="50" x="44.5" y="449.2104">NORMAL,</text><text fill="#000000" font-family="sans-serif" font-size="11" lengthAdjust="spacingAndGlyphs" textLength="46" x="44.5" y="462.0151">SPECIAL</text><line style="stroke: #383838; stroke-width: 1.5;" x1="39.5" x2="154.5" y1="468.6094" y2="468.6094"/><!--class RESTDataManager--><rect fill="#F8F8F8" filter="url(#f125ggz4pm1xp5)" height="112.0234" id="RESTDataManager" style="stroke: #383838; stroke-width: 1.5;" width="342" x="765" y="59"/><ellipse cx="873.75" cy="75" fill="#B1B1B1" rx="11" ry="11" style="stroke: #383838; stroke-width: 1.0;"/><path d="M874.7031,71.7813 L874.7031,78.2969 L876.4219,78.2969 C876.875,78.2969 877.0156,78.3281 877.1875,78.4531 C877.4219,78.625 877.5313,78.875 877.5313,79.1563 C877.5313,79.7188 877.1719,80 876.4219,80 L871.2813,80 C870.875,80 870.6719,79.9531 870.5156,79.8281 C870.2969,79.6719 870.1563,79.4063 870.1563,79.1563 C870.1563,78.8594 870.3125,78.5781 870.5625,78.4219 C870.7188,78.3125 870.8438,78.2969 871.2813,78.2969 L873,78.2969 L873,71.7813 L871.2813,71.7813 C870.8594,71.7813 870.6719,71.75 870.5156,71.6406 C870.2969,71.4688 870.1563,71.2188 870.1563,70.9375 C870.1563,70.6563 870.3125,70.3594 870.5625,70.2031 C870.7188,70.1094 870.8438,70.0938 871.2813,70.0938 L876.4219,70.0938 C876.875,70.0938 877.0156,70.125 877.1875,70.2344 C877.4219,70.4063 877.5313,70.6719 877.5313,70.9375 C877.5313,71.2344 877.3906,71.5156 877.125,71.6719 C877,71.75 876.8125,71.7813 876.4219,71.7813 Z "/><text fill="#000000" font-family="sans-serif" font-size="12" font-style="italic" lengthAdjust="spacingAndGlyphs" textLength="116" x="894.25" y="79.1543">RESTDataManager</text><line style="stroke: #383838; stroke-width: 1.5;" x1="766" x2="1106" y1="91" y2="91"/><line style="stroke: #383838; stroke-width: 1.5;" x1="766" x2="1106" y1="99" y2="99"/><text fill="#000000" font-family="sans-serif" font-size="11" lengthAdjust="spacingAndGlyphs" textLength="298" x="771" y="113.2104">+getObject(ressource: String): Map&lt;String, Object&gt;</text><text fill="#000000" font-family="sans-serif" font-size="11" lengthAdjust="spacingAndGlyphs" textLength="247" x="771" y="126.0151">+getArray(ressource: String): List&lt;Object&gt;</text><text fill="#000000" font-family="sans-serif" font-size="11" lengthAdjust="spacingAndGlyphs" textLength="330" x="771" y="138.8198">+post(resource: String, jsonObject: Map&lt;String, Object&gt;)</text><text fill="#000000" font-family="sans-serif" font-size="11" lengthAdjust="spacingAndGlyphs" textLength="314" x="771" y="151.6245">+put(resource: String, jsonObject: Map&lt;String, Object)</text><text fill="#000000" font-family="sans-serif" font-size="11" lengthAdjust="spacingAndGlyphs" textLength="272" x="771" y="164.4292">+delete(resource: String): Map&lt;String, Object&gt;</text><!--class RESTfulDataManager--><rect fill="#F8F8F8" filter="url(#f125ggz4pm1xp5)" height="99.2188" id="RESTfulDataManager" style="stroke: #383838; stroke-width: 1.5;" width="270" x="1189" y="231"/><ellipse cx="1254.25" cy="247" fill="#C2C2C2" rx="11" ry="11" style="stroke: #383838; stroke-width: 1.0;"/><path d="M1256.5938,242.6719 L1256.7656,242.75 C1256.9844,242.4375 1257.1875,242.3438 1257.4844,242.3438 C1257.7813,242.3438 1258.0625,242.4844 1258.2188,242.75 C1258.3125,242.9063 1258.3281,243.0313 1258.3281,243.4688 L1258.3281,244.8906 C1258.3281,245.3125 1258.2969,245.5 1258.1875,245.6563 C1258.0156,245.875 1257.75,246.0156 1257.4844,246.0156 C1257.2656,246.0156 1257.0313,245.9063 1256.8906,245.7656 C1256.75,245.6406 1256.7188,245.5156 1256.6563,245.1094 C1256.5625,244.7031 1256.3906,244.4844 1255.9063,244.2031 C1255.4375,243.9531 1254.8281,243.7969 1254.25,243.7969 C1252.5156,243.7969 1251.2656,245.1094 1251.2656,246.8906 L1251.2656,247.9844 C1251.2656,249.6875 1252.5625,250.7813 1254.6094,250.7813 C1255.375,250.7813 1256.0625,250.6563 1256.4844,250.3906 C1256.6719,250.2969 1256.6719,250.2969 1257.125,249.8125 C1257.3125,249.625 1257.5156,249.5469 1257.7344,249.5469 C1258.2031,249.5469 1258.5938,249.9375 1258.5938,250.3906 C1258.5938,250.7813 1258.2656,251.2344 1257.6875,251.6406 C1256.9375,252.1875 1255.7813,252.4844 1254.5625,252.4844 C1251.6719,252.4844 1249.5625,250.5938 1249.5625,248.0156 L1249.5625,246.8906 C1249.5625,244.1719 1251.5625,242.0938 1254.1875,242.0938 C1255.0625,242.0938 1255.6563,242.2344 1256.5938,242.6719 Z "/><text fill="#000000" font-family="sans-serif" font-size="12" lengthAdjust="spacingAndGlyphs" textLength="131" x="1274.75" y="251.1543">RESTfulDataManager</text><line style="stroke: #383838; stroke-width: 1.5;" x1="1190" x2="1458" y1="263" y2="263"/><text fill="#000000" font-family="sans-serif" font-size="11" lengthAdjust="spacingAndGlyphs" textLength="71" x="1195" y="277.2104">-host: String</text><text fill="#000000" font-family="sans-serif" font-size="11" lengthAdjust="spacingAndGlyphs" textLength="69" x="1195" y="290.0151">-port: String</text><text fill="#000000" font-family="sans-serif" font-size="11" lengthAdjust="spacingAndGlyphs" textLength="105" x="1195" y="302.8198">-authToken: String</text><line style="stroke: #383838; stroke-width: 1.5;" x1="1190" x2="1458" y1="309.4141" y2="309.4141"/><text fill="#000000" font-family="sans-serif" font-size="11" lengthAdjust="spacingAndGlyphs" textLength="258" x="1195" y="323.6245">+RESTfulDataManager(host, port, authToken)</text><!--class PartyController--><rect fill="#F8F8F8" filter="url(#f125ggz4pm1xp5)" height="99.2188" id="PartyController" style="stroke: #383838; stroke-width: 1.5;" width="300" x="1217" y="65.5"/><ellipse cx="1316.25" cy="81.5" fill="#C2C2C2" rx="11" ry="11" style="stroke: #383838; stroke-width: 1.0;"/><path d="M1318.5938,77.1719 L1318.7656,77.25 C1318.9844,76.9375 1319.1875,76.8438 1319.4844,76.8438 C1319.7813,76.8438 1320.0625,76.9844 1320.2188,77.25 C1320.3125,77.4063 1320.3281,77.5313 1320.3281,77.9688 L1320.3281,79.3906 C1320.3281,79.8125 1320.2969,80 1320.1875,80.1563 C1320.0156,80.375 1319.75,80.5156 1319.4844,80.5156 C1319.2656,80.5156 1319.0313,80.4063 1318.8906,80.2656 C1318.75,80.1406 1318.7188,80.0156 1318.6563,79.6094 C1318.5625,79.2031 1318.3906,78.9844 1317.9063,78.7031 C1317.4375,78.4531 1316.8281,78.2969 1316.25,78.2969 C1314.5156,78.2969 1313.2656,79.6094 1313.2656,81.3906 L1313.2656,82.4844 C1313.2656,84.1875 1314.5625,85.2813 1316.6094,85.2813 C1317.375,85.2813 1318.0625,85.1563 1318.4844,84.8906 C1318.6719,84.7969 1318.6719,84.7969 1319.125,84.3125 C1319.3125,84.125 1319.5156,84.0469 1319.7344,84.0469 C1320.2031,84.0469 1320.5938,84.4375 1320.5938,84.8906 C1320.5938,85.2813 1320.2656,85.7344 1319.6875,86.1406 C1318.9375,86.6875 1317.7813,86.9844 1316.5625,86.9844 C1313.6719,86.9844 1311.5625,85.0938 1311.5625,82.5156 L1311.5625,81.3906 C1311.5625,78.6719 1313.5625,76.5938 1316.1875,76.5938 C1317.0625,76.5938 1317.6563,76.7344 1318.5938,77.1719 Z "/><text fill="#000000" font-family="sans-serif" font-size="12" lengthAdjust="spacingAndGlyphs" textLength="93" x="1336.75" y="85.6543">PartyController</text><line style="stroke: #383838; stroke-width: 1.5;" x1="1218" x2="1516" y1="97.5" y2="97.5"/><line style="stroke: #383838; stroke-width: 1.5;" x1="1218" x2="1516" y1="105.5" y2="105.5"/><text fill="#000000" font-family="sans-serif" font-size="11" lengthAdjust="spacingAndGlyphs" textLength="288" x="1223" y="119.7104">+PartyController(dataManager: RESTDataManager)</text><text fill="#000000" font-family="sans-serif" font-size="11" lengthAdjust="spacingAndGlyphs" textLength="163" x="1223" y="132.5151">+getAllParties(): List&lt;Party&gt;</text><text fill="#000000" font-family="sans-serif" font-size="11" lengthAdjust="spacingAndGlyphs" textLength="155" x="1223" y="145.3198">+addParty(party: Party): int</text><text fill="#000000" font-family="sans-serif" font-size="11" lengthAdjust="spacingAndGlyphs" textLength="133" x="1223" y="158.1245">+editParty(party: Party)</text><!--class ProductController--><rect fill="#F8F8F8" filter="url(#f125ggz4pm1xp5)" height="86.4141" id="ProductController" style="stroke: #383838; stroke-width: 1.5;" width="314" x="765" y="237.5"/><ellipse cx="862.75" cy="253.5" fill="#C2C2C2" rx="11" ry="11" style="stroke: #383838; stroke-width: 1.0;"/><path d="M865.0938,249.1719 L865.2656,249.25 C865.4844,248.9375 865.6875,248.8438 865.9844,248.8438 C866.2813,248.8438 866.5625,248.9844 866.7188,249.25 C866.8125,249.4063 866.8281,249.5313 866.8281,249.9688 L866.8281,251.3906 C866.8281,251.8125 866.7969,252 866.6875,252.1563 C866.5156,252.375 866.25,252.5156 865.9844,252.5156 C865.7656,252.5156 865.5313,252.4063 865.3906,252.2656 C865.25,252.1406 865.2188,252.0156 865.1563,251.6094 C865.0625,251.2031 864.8906,250.9844 864.4063,250.7031 C863.9375,250.4531 863.3281,250.2969 862.75,250.2969 C861.0156,250.2969 859.7656,251.6094 859.7656,253.3906 L859.7656,254.4844 C859.7656,256.1875 861.0625,257.2813 863.1094,257.2813 C863.875,257.2813 864.5625,257.1563 864.9844,256.8906 C865.1719,256.7969 865.1719,256.7969 865.625,256.3125 C865.8125,256.125 866.0156,256.0469 866.2344,256.0469 C866.7031,256.0469 867.0938,256.4375 867.0938,256.8906 C867.0938,257.2813 866.7656,257.7344 866.1875,258.1406 C865.4375,258.6875 864.2813,258.9844 863.0625,258.9844 C860.1719,258.9844 858.0625,257.0938 858.0625,254.5156 L858.0625,253.3906 C858.0625,250.6719 860.0625,248.5938 862.6875,248.5938 C863.5625,248.5938 864.1563,248.7344 865.0938,249.1719 Z "/><text fill="#000000" font-family="sans-serif" font-size="12" lengthAdjust="spacingAndGlyphs" textLength="110" x="883.25" y="257.6543">ProductController</text><line style="stroke: #383838; stroke-width: 1.5;" x1="766" x2="1078" y1="269.5" y2="269.5"/><line style="stroke: #383838; stroke-width: 1.5;" x1="766" x2="1078" y1="277.5" y2="277.5"/><text fill="#000000" font-family="sans-serif" font-size="11" lengthAdjust="spacingAndGlyphs" textLength="302" x="771" y="291.7104">+ProductController(dataManager: RESTDataManager)</text><text fill="#000000" font-family="sans-serif" font-size="11" lengthAdjust="spacingAndGlyphs" textLength="187" x="771" y="304.5151">+getAllProducts(): List&lt;Product&gt;</text><text fill="#000000" font-family="sans-serif" font-size="11" lengthAdjust="spacingAndGlyphs" textLength="280" x="771" y="317.3198">+getProductsByType(type: string): List&lt;Product&gt;</text><!--link ProductType to Product--><path d="M320.238,280.5 C355.076,280.5 389.914,280.5 424.752,280.5 " fill="none" id="ProductType-Product" style="stroke: #383838; stroke-width: 1.0;"/><polygon fill="#383838" points="315.098,280.5,324.098,284.5,320.098,280.5,324.098,276.5,315.098,280.5" style="stroke: #383838; stroke-width: 1.0;"/><text fill="#000000" font-family="sans-serif" font-size="13" lengthAdjust="spacingAndGlyphs" textLength="37" x="323.1478" y="276.7312">- type</text><!--link Product to Party--><path d="M513.741,343.116 C513.248,347.963 512.747,352.901 512.244,357.851 " fill="none" id="Product-Party" style="stroke: #383838; stroke-width: 1.0;"/><polygon fill="#FFFFFF" points="510.915,370.932,515.5011,365.3671,512.1281,358.9935,507.542,364.5584,510.915,370.932" style="stroke: #383838; stroke-width: 1.0;"/><polygon fill="#383838" points="515.069,330.04,510.1797,338.5895,514.5635,335.0144,518.1387,339.3983,515.069,330.04" style="stroke: #383838; stroke-width: 1.0;"/><line style="stroke: #383838; stroke-width: 1.0;" x1="514.5635" x2="513.755" y1="335.0144" y2="342.974"/><text fill="#000000" font-family="sans-serif" font-size="13" lengthAdjust="spacingAndGlyphs" textLength="291" x="202.9146" y="350.1221">- servedBeers: Map&lt;Product, BeerCategory&gt;</text><!--link BeerCategory to Party--><path d="M160.747,440 C198.435,440 248.494,440 298.698,440 " fill="none" id="BeerCategory-Party" style="stroke: #383838; stroke-width: 1.0; stroke-dasharray: 7.0,7.0;"/><polygon fill="#383838" points="155.747,440,164.747,444,160.747,440,164.747,436,155.747,440" style="stroke: #383838; stroke-width: 1.0;"/><text fill="#000000" font-family="sans-serif" font-size="13" lengthAdjust="spacingAndGlyphs" textLength="32" x="211.25" y="433.0669">Uses</text><!--link RESTDataManager to RESTfulDataManager--><path d="M1110.6,178.394 C1118.54,181.574 1126.37,184.784 1134,188 C1164.87,201.008 1197.95,216.406 1227.71,230.825 " fill="none" id="RESTDataManager-RESTfulDataManager" style="stroke: #383838; stroke-width: 1.0; stroke-dasharray: 7.0,7.0;"/><polygon fill="none" points="1107.99,184.886,1091.95,171.039,1113.12,171.862,1107.99,184.886" style="stroke: #383838; stroke-width: 1.0;"/><!--link RESTDataManager to PartyController--><path d="M1112.44,115 C1147.25,115 1182.06,115 1216.86,115 " fill="none" id="RESTDataManager-PartyController" style="stroke: #383838; stroke-width: 1.0;"/><polygon fill="#383838" points="1107.31,115,1116.31,119,1112.31,115,1116.31,111,1107.31,115" style="stroke: #383838; stroke-width: 1.0;"/><text fill="#000000" font-family="sans-serif" font-size="13" lengthAdjust="spacingAndGlyphs" textLength="94" x="1114.8354" y="111.7871">- dataManager</text><!--link RESTDataManager to ProductController--><path d="M930.823,176.46 C929.089,196.716 927.194,218.847 925.606,237.388 " fill="none" id="RESTDataManager-ProductController" style="stroke: #383838; stroke-width: 1.0;"/><polygon fill="#383838" points="931.26,171.354,926.5057,179.9794,930.8328,176.3357,934.4765,180.6628,931.26,171.354" style="stroke: #383838; stroke-width: 1.0;"/><text fill="#000000" font-family="sans-serif" font-size="13" lengthAdjust="spacingAndGlyphs" textLength="94" x="830.9542" y="191.2098">- dataManager</text><!--link PartyController to Party--><path d="M1493.78,164.616 C1501.6,171.444 1508.51,179.199 1514,188 C1553.04,250.6 1563.93,299.688 1514,354 C1461.08,411.561 994.778,430.167 714.622,436.164 " fill="none" id="PartyController-Party" style="stroke: #383838; stroke-width: 1.0; stroke-dasharray: 7.0,7.0;"/><polygon fill="#383838" points="709.276,436.277,718.3586,440.0858,714.2749,436.1713,718.1894,432.0876,709.276,436.277" style="stroke: #383838; stroke-width: 1.0;"/><text fill="#000000" font-family="sans-serif" font-size="13" lengthAdjust="spacingAndGlyphs" textLength="32" x="1548" y="285.0669">Uses</text><!--link ProductController to Product--><path d="M764.775,280.5 C716.061,280.5 663.742,280.5 620.029,280.5 " fill="none" id="ProductController-Product" style="stroke: #383838; stroke-width: 1.0; stroke-dasharray: 7.0,7.0;"/><polygon fill="#383838" points="615.014,280.5,624.014,284.5,620.014,280.5,624.014,276.5,615.014,280.5" style="stroke: #383838; stroke-width: 1.0;"/><text fill="#000000" font-family="sans-serif" font-size="13" lengthAdjust="spacingAndGlyphs" textLength="32" x="674" y="273.5669">Uses</text><!--
@startuml
skinparam monochrome true
skinparam classAttributeIconSize 0
skinparam nodesep 110
skinparam ranksep 10

package Model {
	class Party {
		- id: int
		- name: String
		- date: Date
		- numberOfAttendees: int
		- balance: float
		+ Party(id, name, date, numberOfAttendees, balance)
		+ Party(name, date, normalBeerPrice, specialBeerPrice, servedBeers)
	}

	class Product {
		- id: int
		- name: String
		- price: float
		+ Product(id, name, price, type)
	}

	enum ProductType {
		BEER,
		DEPOSIT,
		FOOD
	}

	ProductType "- type" <- Product

	enum BeerCategory {
		NORMAL,
		SPECIAL
	}

	Product "- servedBeers: Map<Product, BeerCategory>" <- -o Party

	BeerCategory <. Party: Uses
}

package Controller {
	interface RESTDataManager {
		+ getObject(ressource: String): Map<String, Object>
		+ getArray(ressource: String): List<Object>
		+ post(resource: String, jsonObject: Map<String, Object>)
		+ put(resource: String, jsonObject: Map<String, Object)
		+ delete(resource: String): Map<String, Object>
	}

	class RESTfulDataManager {
		- host: String
		- port: String
		- authToken: String
		+ RESTfulDataManager(host, port, authToken)
	}

	RESTDataManager <|.. RESTfulDataManager
		

	class PartyController {
		+ PartyController(dataManager: RESTDataManager)
		+ getAllParties(): List<Party>
		+ addParty(party: Party): int
		+ editParty(party: Party)
	}

	RESTDataManager "- dataManager" <- PartyController

	class ProductController {
		+ ProductController(dataManager: RESTDataManager)
		+ getAllProducts(): List<Product>
		+ getProductsByType(type: string): List<Product>
	}

	RESTDataManager "- dataManager" <- - ProductController
}

PartyController .> Party: Uses
ProductController .> Product: Uses
@enduml

PlantUML version 1.2017.20(Mon Dec 11 16:57:05 UTC 2017)
(GPL source distribution)
Java Runtime: Java(TM) SE Runtime Environment
JVM: Java HotSpot(TM) 64-Bit Server VM
Java Version: 1.7.0_25-b15
Operating System: Linux
Default Encoding: UTF-8
Language: en
Country: US
--></g></svg>