<?xml version="1.0" encoding="UTF-8" standalone="no"?><svg xmlns="http://www.w3.org/2000/svg" xmlns:xlink="http://www.w3.org/1999/xlink" contentScriptType="application/ecmascript" contentStyleType="text/css" height="785px" preserveAspectRatio="none" style="width:1376px;height:785px;" version="1.1" viewBox="0 0 1376 785" width="1376px" zoomAndPan="magnify"><defs><filter height="300%" id="f1p1pnve13vtr0" width="300%" x="-1" y="-1"><feGaussianBlur result="blurOut" stdDeviation="2.0"/><feColorMatrix in="blurOut" result="blurOut2" type="matrix" values="0 0 0 0 0 0 0 0 0 0 0 0 0 0 0 0 0 0 .4 0"/><feOffset dx="4.0" dy="4.0" in="blurOut2" result="blurOut3"/><feBlend in="SourceGraphic" in2="blurOut3" mode="normal"/></filter></defs><g><!--cluster Model--><polygon fill="#FFFFFF" filter="url(#f1p1pnve13vtr0)" points="259,429,312,429,319,451.2969,1223,451.2969,1223,773,259,773,259,429" style="stroke: #000000; stroke-width: 1.5;"/><line style="stroke: #000000; stroke-width: 1.5;" x1="259" x2="319" y1="451.2969" y2="451.2969"/><text fill="#000000" font-family="sans-serif" font-size="14" font-weight="bold" lengthAdjust="spacingAndGlyphs" textLength="47" x="263" y="443.9951">Model</text><!--cluster Controller--><polygon fill="#FFFFFF" filter="url(#f1p1pnve13vtr0)" points="22,24,107,24,114,46.2969,1176,46.2969,1176,380,22,380,22,24" style="stroke: #000000; stroke-width: 1.5;"/><line style="stroke: #000000; stroke-width: 1.5;" x1="22" x2="114" y1="46.2969" y2="46.2969"/><text fill="#000000" font-family="sans-serif" font-size="14" font-weight="bold" lengthAdjust="spacingAndGlyphs" textLength="79" x="26" y="38.9951">Controller</text><!--class Party--><rect fill="#F8F8F8" filter="url(#f1p1pnve13vtr0)" height="137.6328" id="Party" style="stroke: #383838; stroke-width: 1.5;" width="410" x="666" y="619"/><ellipse cx="850.75" cy="635" fill="#C2C2C2" rx="11" ry="11" style="stroke: #383838; stroke-width: 1.0;"/><path d="M853.0938,630.6719 L853.2656,630.75 C853.4844,630.4375 853.6875,630.3438 853.9844,630.3438 C854.2813,630.3438 854.5625,630.4844 854.7188,630.75 C854.8125,630.9063 854.8281,631.0313 854.8281,631.4688 L854.8281,632.8906 C854.8281,633.3125 854.7969,633.5 854.6875,633.6563 C854.5156,633.875 854.25,634.0156 853.9844,634.0156 C853.7656,634.0156 853.5313,633.9063 853.3906,633.7656 C853.25,633.6406 853.2188,633.5156 853.1563,633.1094 C853.0625,632.7031 852.8906,632.4844 852.4063,632.2031 C851.9375,631.9531 851.3281,631.7969 850.75,631.7969 C849.0156,631.7969 847.7656,633.1094 847.7656,634.8906 L847.7656,635.9844 C847.7656,637.6875 849.0625,638.7813 851.1094,638.7813 C851.875,638.7813 852.5625,638.6563 852.9844,638.3906 C853.1719,638.2969 853.1719,638.2969 853.625,637.8125 C853.8125,637.625 854.0156,637.5469 854.2344,637.5469 C854.7031,637.5469 855.0938,637.9375 855.0938,638.3906 C855.0938,638.7813 854.7656,639.2344 854.1875,639.6406 C853.4375,640.1875 852.2813,640.4844 851.0625,640.4844 C848.1719,640.4844 846.0625,638.5938 846.0625,636.0156 L846.0625,634.8906 C846.0625,632.1719 848.0625,630.0938 850.6875,630.0938 C851.5625,630.0938 852.1563,630.2344 853.0938,630.6719 Z "/><text fill="#000000" font-family="sans-serif" font-size="12" lengthAdjust="spacingAndGlyphs" textLength="32" x="871.25" y="639.1543">Party</text><line style="stroke: #383838; stroke-width: 1.5;" x1="667" x2="1075" y1="651" y2="651"/><text fill="#000000" font-family="sans-serif" font-size="11" lengthAdjust="spacingAndGlyphs" textLength="36" x="672" y="665.2104">-id: int</text><text fill="#000000" font-family="sans-serif" font-size="11" lengthAdjust="spacingAndGlyphs" textLength="78" x="672" y="678.0151">-name: String</text><text fill="#000000" font-family="sans-serif" font-size="11" lengthAdjust="spacingAndGlyphs" textLength="63" x="672" y="690.8198">-date: Date</text><text fill="#000000" font-family="sans-serif" font-size="11" lengthAdjust="spacingAndGlyphs" textLength="140" x="672" y="703.6245">-numberOfAttendees: int</text><text fill="#000000" font-family="sans-serif" font-size="11" lengthAdjust="spacingAndGlyphs" textLength="81" x="672" y="716.4292">-balance: float</text><line style="stroke: #383838; stroke-width: 1.5;" x1="667" x2="1075" y1="723.0234" y2="723.0234"/><text fill="#000000" font-family="sans-serif" font-size="11" lengthAdjust="spacingAndGlyphs" textLength="303" x="672" y="737.2339">+Party(id, name, date, numberOfAttendees, balance)</text><text fill="#000000" font-family="sans-serif" font-size="11" lengthAdjust="spacingAndGlyphs" textLength="398" x="672" y="750.0386">+Party(name, date, normalBeerPrice, specialBeerPrice, servedBeers)</text><!--class Product--><rect fill="#F8F8F8" filter="url(#f1p1pnve13vtr0)" height="99.2188" id="Product" style="stroke: #383838; stroke-width: 1.5;" width="190" x="275" y="483.5"/><ellipse cx="341.25" cy="499.5" fill="#C2C2C2" rx="11" ry="11" style="stroke: #383838; stroke-width: 1.0;"/><path d="M343.5938,495.1719 L343.7656,495.25 C343.9844,494.9375 344.1875,494.8438 344.4844,494.8438 C344.7813,494.8438 345.0625,494.9844 345.2188,495.25 C345.3125,495.4063 345.3281,495.5313 345.3281,495.9688 L345.3281,497.3906 C345.3281,497.8125 345.2969,498 345.1875,498.1563 C345.0156,498.375 344.75,498.5156 344.4844,498.5156 C344.2656,498.5156 344.0313,498.4063 343.8906,498.2656 C343.75,498.1406 343.7188,498.0156 343.6563,497.6094 C343.5625,497.2031 343.3906,496.9844 342.9063,496.7031 C342.4375,496.4531 341.8281,496.2969 341.25,496.2969 C339.5156,496.2969 338.2656,497.6094 338.2656,499.3906 L338.2656,500.4844 C338.2656,502.1875 339.5625,503.2813 341.6094,503.2813 C342.375,503.2813 343.0625,503.1563 343.4844,502.8906 C343.6719,502.7969 343.6719,502.7969 344.125,502.3125 C344.3125,502.125 344.5156,502.0469 344.7344,502.0469 C345.2031,502.0469 345.5938,502.4375 345.5938,502.8906 C345.5938,503.2813 345.2656,503.7344 344.6875,504.1406 C343.9375,504.6875 342.7813,504.9844 341.5625,504.9844 C338.6719,504.9844 336.5625,503.0938 336.5625,500.5156 L336.5625,499.3906 C336.5625,496.6719 338.5625,494.5938 341.1875,494.5938 C342.0625,494.5938 342.6563,494.7344 343.5938,495.1719 Z "/><text fill="#000000" font-family="sans-serif" font-size="12" lengthAdjust="spacingAndGlyphs" textLength="49" x="361.75" y="503.6543">Product</text><line style="stroke: #383838; stroke-width: 1.5;" x1="276" x2="464" y1="515.5" y2="515.5"/><text fill="#000000" font-family="sans-serif" font-size="11" lengthAdjust="spacingAndGlyphs" textLength="36" x="281" y="529.7104">-id: int</text><text fill="#000000" font-family="sans-serif" font-size="11" lengthAdjust="spacingAndGlyphs" textLength="78" x="281" y="542.5151">-name: String</text><text fill="#000000" font-family="sans-serif" font-size="11" lengthAdjust="spacingAndGlyphs" textLength="65" x="281" y="555.3198">-price: float</text><line style="stroke: #383838; stroke-width: 1.5;" x1="276" x2="464" y1="561.9141" y2="561.9141"/><text fill="#000000" font-family="sans-serif" font-size="11" lengthAdjust="spacingAndGlyphs" textLength="178" x="281" y="576.1245">+Product(id, name, price, type)</text><!--class ProductType--><rect fill="#F8F8F8" filter="url(#f1p1pnve13vtr0)" height="86.4141" id="ProductType" style="stroke: #383838; stroke-width: 1.5;" width="110" x="575" y="490"/><ellipse cx="590" cy="506" fill="#ABABAB" rx="11" ry="11" style="stroke: #383838; stroke-width: 1.0;"/><path d="M588.2969,506.875 L588.2969,509.2969 L592.6563,509.2969 L592.6563,508.4219 C592.6563,507.9375 592.6875,507.7969 592.7969,507.6406 C592.9688,507.3906 593.2344,507.2813 593.5,507.2813 C593.7813,507.2813 594.0625,507.4375 594.2344,507.6875 C594.3125,507.8438 594.3438,507.9844 594.3438,508.4219 L594.3438,511 L586.3438,511 C585.9531,511 585.7188,510.9531 585.5781,510.8281 C585.3594,510.6719 585.2188,510.4219 585.2188,510.1563 C585.2188,509.8594 585.375,509.5938 585.625,509.4219 C585.7813,509.3125 585.9375,509.2969 586.3438,509.2969 L586.5938,509.2969 L586.5938,502.7813 L586.3438,502.7813 C585.9219,502.7813 585.7344,502.75 585.5781,502.6406 C585.3594,502.4688 585.2188,502.2188 585.2188,501.9375 C585.2188,501.6563 585.375,501.3594 585.625,501.2031 C585.7813,501.1094 585.9063,501.0938 586.3438,501.0938 L593.9688,501.0938 L593.9688,503.6406 C593.9688,504.1094 593.9375,504.25 593.8281,504.4219 C593.6563,504.6406 593.3906,504.7813 593.125,504.7813 C592.8438,504.7813 592.5625,504.625 592.3906,504.375 C592.3125,504.2188 592.2813,504.0469 592.2813,503.6406 L592.2813,502.7813 L588.2969,502.7813 L588.2969,505.1875 L589.75,505.1875 L589.75,505.0625 C589.75,504.6094 589.7813,504.4531 589.8906,504.2813 C590.0625,504.0625 590.3281,503.9219 590.5781,503.9219 C591.0313,503.9219 591.3438,504.2344 591.4063,504.7031 C591.4219,504.8594 591.4219,504.9063 591.4219,505.0625 L591.4219,506.9844 C591.4219,507.4375 591.3906,507.5938 591.2656,507.75 C591.1094,507.9688 590.8438,508.1094 590.5938,508.1094 C590.2969,508.1094 590.0156,507.9531 589.8594,507.7031 C589.7813,507.5469 589.75,507.3906 589.75,506.9844 L589.75,506.875 Z "/><text fill="#000000" font-family="sans-serif" font-size="12" lengthAdjust="spacingAndGlyphs" textLength="78" x="604" y="510.1543">ProductType</text><line style="stroke: #383838; stroke-width: 1.5;" x1="576" x2="684" y1="522" y2="522"/><text fill="#000000" font-family="sans-serif" font-size="11" lengthAdjust="spacingAndGlyphs" textLength="33" x="581" y="536.2104">BEER,</text><text fill="#000000" font-family="sans-serif" font-size="11" lengthAdjust="spacingAndGlyphs" textLength="53" x="581" y="549.0151">DEPOSIT,</text><text fill="#000000" font-family="sans-serif" font-size="11" lengthAdjust="spacingAndGlyphs" textLength="32" x="581" y="561.8198">FOOD</text><line style="stroke: #383838; stroke-width: 1.5;" x1="576" x2="684" y1="568.4141" y2="568.4141"/><!--class BeerCategory--><rect fill="#F8F8F8" filter="url(#f1p1pnve13vtr0)" height="73.6094" id="BeerCategory" style="stroke: #383838; stroke-width: 1.5;" width="117" x="405.5" y="651"/><ellipse cx="420.5" cy="667" fill="#ABABAB" rx="11" ry="11" style="stroke: #383838; stroke-width: 1.0;"/><path d="M418.7969,667.875 L418.7969,670.2969 L423.1563,670.2969 L423.1563,669.4219 C423.1563,668.9375 423.1875,668.7969 423.2969,668.6406 C423.4688,668.3906 423.7344,668.2813 424,668.2813 C424.2813,668.2813 424.5625,668.4375 424.7344,668.6875 C424.8125,668.8438 424.8438,668.9844 424.8438,669.4219 L424.8438,672 L416.8438,672 C416.4531,672 416.2188,671.9531 416.0781,671.8281 C415.8594,671.6719 415.7188,671.4219 415.7188,671.1563 C415.7188,670.8594 415.875,670.5938 416.125,670.4219 C416.2813,670.3125 416.4375,670.2969 416.8438,670.2969 L417.0938,670.2969 L417.0938,663.7813 L416.8438,663.7813 C416.4219,663.7813 416.2344,663.75 416.0781,663.6406 C415.8594,663.4688 415.7188,663.2188 415.7188,662.9375 C415.7188,662.6563 415.875,662.3594 416.125,662.2031 C416.2813,662.1094 416.4063,662.0938 416.8438,662.0938 L424.4688,662.0938 L424.4688,664.6406 C424.4688,665.1094 424.4375,665.25 424.3281,665.4219 C424.1563,665.6406 423.8906,665.7813 423.625,665.7813 C423.3438,665.7813 423.0625,665.625 422.8906,665.375 C422.8125,665.2188 422.7813,665.0469 422.7813,664.6406 L422.7813,663.7813 L418.7969,663.7813 L418.7969,666.1875 L420.25,666.1875 L420.25,666.0625 C420.25,665.6094 420.2813,665.4531 420.3906,665.2813 C420.5625,665.0625 420.8281,664.9219 421.0781,664.9219 C421.5313,664.9219 421.8438,665.2344 421.9063,665.7031 C421.9219,665.8594 421.9219,665.9063 421.9219,666.0625 L421.9219,667.9844 C421.9219,668.4375 421.8906,668.5938 421.7656,668.75 C421.6094,668.9688 421.3438,669.1094 421.0938,669.1094 C420.7969,669.1094 420.5156,668.9531 420.3594,668.7031 C420.2813,668.5469 420.25,668.3906 420.25,667.9844 L420.25,667.875 Z "/><text fill="#000000" font-family="sans-serif" font-size="12" lengthAdjust="spacingAndGlyphs" textLength="85" x="434.5" y="671.1543">BeerCategory</text><line style="stroke: #383838; stroke-width: 1.5;" x1="406.5" x2="521.5" y1="683" y2="683"/><text fill="#000000" font-family="sans-serif" font-size="11" lengthAdjust="spacingAndGlyphs" textLength="50" x="411.5" y="697.2104">NORMAL,</text><text fill="#000000" font-family="sans-serif" font-size="11" lengthAdjust="spacingAndGlyphs" textLength="46" x="411.5" y="710.0151">SPECIAL</text><line style="stroke: #383838; stroke-width: 1.5;" x1="406.5" x2="521.5" y1="716.6094" y2="716.6094"/><!--class Member--><rect fill="#F8F8F8" filter="url(#f1p1pnve13vtr0)" height="137.6328" id="Member" style="stroke: #383838; stroke-width: 1.5;" width="411" x="795.5" y="464"/><ellipse cx="971.75" cy="480" fill="#C2C2C2" rx="11" ry="11" style="stroke: #383838; stroke-width: 1.0;"/><path d="M974.0938,475.6719 L974.2656,475.75 C974.4844,475.4375 974.6875,475.3438 974.9844,475.3438 C975.2813,475.3438 975.5625,475.4844 975.7188,475.75 C975.8125,475.9063 975.8281,476.0313 975.8281,476.4688 L975.8281,477.8906 C975.8281,478.3125 975.7969,478.5 975.6875,478.6563 C975.5156,478.875 975.25,479.0156 974.9844,479.0156 C974.7656,479.0156 974.5313,478.9063 974.3906,478.7656 C974.25,478.6406 974.2188,478.5156 974.1563,478.1094 C974.0625,477.7031 973.8906,477.4844 973.4063,477.2031 C972.9375,476.9531 972.3281,476.7969 971.75,476.7969 C970.0156,476.7969 968.7656,478.1094 968.7656,479.8906 L968.7656,480.9844 C968.7656,482.6875 970.0625,483.7813 972.1094,483.7813 C972.875,483.7813 973.5625,483.6563 973.9844,483.3906 C974.1719,483.2969 974.1719,483.2969 974.625,482.8125 C974.8125,482.625 975.0156,482.5469 975.2344,482.5469 C975.7031,482.5469 976.0938,482.9375 976.0938,483.3906 C976.0938,483.7813 975.7656,484.2344 975.1875,484.6406 C974.4375,485.1875 973.2813,485.4844 972.0625,485.4844 C969.1719,485.4844 967.0625,483.5938 967.0625,481.0156 L967.0625,479.8906 C967.0625,477.1719 969.0625,475.0938 971.6875,475.0938 C972.5625,475.0938 973.1563,475.2344 974.0938,475.6719 Z "/><text fill="#000000" font-family="sans-serif" font-size="12" lengthAdjust="spacingAndGlyphs" textLength="50" x="992.25" y="484.1543">Member</text><line style="stroke: #383838; stroke-width: 1.5;" x1="796.5" x2="1205.5" y1="496" y2="496"/><text fill="#000000" font-family="sans-serif" font-size="11" lengthAdjust="spacingAndGlyphs" textLength="36" x="801.5" y="510.2104">-id: int</text><text fill="#000000" font-family="sans-serif" font-size="11" lengthAdjust="spacingAndGlyphs" textLength="102" x="801.5" y="523.0151">-firstName: String</text><text fill="#000000" font-family="sans-serif" font-size="11" lengthAdjust="spacingAndGlyphs" textLength="100" x="801.5" y="535.8198">-lastName: String</text><text fill="#000000" font-family="sans-serif" font-size="11" lengthAdjust="spacingAndGlyphs" textLength="81" x="801.5" y="548.6245">-balance: float</text><text fill="#000000" font-family="sans-serif" font-size="11" lengthAdjust="spacingAndGlyphs" textLength="178" x="801.5" y="561.4292">-lastMembershipPayment: Date</text><line style="stroke: #383838; stroke-width: 1.5;" x1="796.5" x2="1205.5" y1="568.0234" y2="568.0234"/><text fill="#000000" font-family="sans-serif" font-size="11" lengthAdjust="spacingAndGlyphs" textLength="399" x="801.5" y="582.2339">+Member(id, firstName, lastName, balance, lastMembershipPayment)</text><text fill="#000000" font-family="sans-serif" font-size="11" lengthAdjust="spacingAndGlyphs" textLength="178" x="801.5" y="595.0386">+isMembershipValid(): Boolean</text><!--class RESTDataManager--><rect fill="#F8F8F8" filter="url(#f1p1pnve13vtr0)" height="112.0234" id="RESTDataManager" style="stroke: #383838; stroke-width: 1.5;" width="342" x="405" y="84.5"/><ellipse cx="513.75" cy="100.5" fill="#B1B1B1" rx="11" ry="11" style="stroke: #383838; stroke-width: 1.0;"/><path d="M514.7031,97.2813 L514.7031,103.7969 L516.4219,103.7969 C516.875,103.7969 517.0156,103.8281 517.1875,103.9531 C517.4219,104.125 517.5313,104.375 517.5313,104.6563 C517.5313,105.2188 517.1719,105.5 516.4219,105.5 L511.2813,105.5 C510.875,105.5 510.6719,105.4531 510.5156,105.3281 C510.2969,105.1719 510.1563,104.9063 510.1563,104.6563 C510.1563,104.3594 510.3125,104.0781 510.5625,103.9219 C510.7188,103.8125 510.8438,103.7969 511.2813,103.7969 L513,103.7969 L513,97.2813 L511.2813,97.2813 C510.8594,97.2813 510.6719,97.25 510.5156,97.1406 C510.2969,96.9688 510.1563,96.7188 510.1563,96.4375 C510.1563,96.1563 510.3125,95.8594 510.5625,95.7031 C510.7188,95.6094 510.8438,95.5938 511.2813,95.5938 L516.4219,95.5938 C516.875,95.5938 517.0156,95.625 517.1875,95.7344 C517.4219,95.9063 517.5313,96.1719 517.5313,96.4375 C517.5313,96.7344 517.3906,97.0156 517.125,97.1719 C517,97.25 516.8125,97.2813 516.4219,97.2813 Z "/><text fill="#000000" font-family="sans-serif" font-size="12" font-style="italic" lengthAdjust="spacingAndGlyphs" textLength="116" x="534.25" y="104.6543">RESTDataManager</text><line style="stroke: #383838; stroke-width: 1.5;" x1="406" x2="746" y1="116.5" y2="116.5"/><line style="stroke: #383838; stroke-width: 1.5;" x1="406" x2="746" y1="124.5" y2="124.5"/><text fill="#000000" font-family="sans-serif" font-size="11" lengthAdjust="spacingAndGlyphs" textLength="298" x="411" y="138.7104">+getObject(ressource: String): Map&lt;String, Object&gt;</text><text fill="#000000" font-family="sans-serif" font-size="11" lengthAdjust="spacingAndGlyphs" textLength="247" x="411" y="151.5151">+getArray(ressource: String): List&lt;Object&gt;</text><text fill="#000000" font-family="sans-serif" font-size="11" lengthAdjust="spacingAndGlyphs" textLength="330" x="411" y="164.3198">+post(resource: String, jsonObject: Map&lt;String, Object&gt;)</text><text fill="#000000" font-family="sans-serif" font-size="11" lengthAdjust="spacingAndGlyphs" textLength="314" x="411" y="177.1245">+put(resource: String, jsonObject: Map&lt;String, Object)</text><text fill="#000000" font-family="sans-serif" font-size="11" lengthAdjust="spacingAndGlyphs" textLength="272" x="411" y="189.9292">+delete(resource: String): Map&lt;String, Object&gt;</text><!--class RESTfulDataManager--><rect fill="#F8F8F8" filter="url(#f1p1pnve13vtr0)" height="99.2188" id="RESTfulDataManager" style="stroke: #383838; stroke-width: 1.5;" width="270" x="38" y="252"/><ellipse cx="103.25" cy="268" fill="#C2C2C2" rx="11" ry="11" style="stroke: #383838; stroke-width: 1.0;"/><path d="M105.5938,263.6719 L105.7656,263.75 C105.9844,263.4375 106.1875,263.3438 106.4844,263.3438 C106.7813,263.3438 107.0625,263.4844 107.2188,263.75 C107.3125,263.9063 107.3281,264.0313 107.3281,264.4688 L107.3281,265.8906 C107.3281,266.3125 107.2969,266.5 107.1875,266.6563 C107.0156,266.875 106.75,267.0156 106.4844,267.0156 C106.2656,267.0156 106.0313,266.9063 105.8906,266.7656 C105.75,266.6406 105.7188,266.5156 105.6563,266.1094 C105.5625,265.7031 105.3906,265.4844 104.9063,265.2031 C104.4375,264.9531 103.8281,264.7969 103.25,264.7969 C101.5156,264.7969 100.2656,266.1094 100.2656,267.8906 L100.2656,268.9844 C100.2656,270.6875 101.5625,271.7813 103.6094,271.7813 C104.375,271.7813 105.0625,271.6563 105.4844,271.3906 C105.6719,271.2969 105.6719,271.2969 106.125,270.8125 C106.3125,270.625 106.5156,270.5469 106.7344,270.5469 C107.2031,270.5469 107.5938,270.9375 107.5938,271.3906 C107.5938,271.7813 107.2656,272.2344 106.6875,272.6406 C105.9375,273.1875 104.7813,273.4844 103.5625,273.4844 C100.6719,273.4844 98.5625,271.5938 98.5625,269.0156 L98.5625,267.8906 C98.5625,265.1719 100.5625,263.0938 103.1875,263.0938 C104.0625,263.0938 104.6563,263.2344 105.5938,263.6719 Z "/><text fill="#000000" font-family="sans-serif" font-size="12" lengthAdjust="spacingAndGlyphs" textLength="131" x="123.75" y="272.1543">RESTfulDataManager</text><line style="stroke: #383838; stroke-width: 1.5;" x1="39" x2="307" y1="284" y2="284"/><text fill="#000000" font-family="sans-serif" font-size="11" lengthAdjust="spacingAndGlyphs" textLength="71" x="44" y="298.2104">-host: String</text><text fill="#000000" font-family="sans-serif" font-size="11" lengthAdjust="spacingAndGlyphs" textLength="69" x="44" y="311.0151">-port: String</text><text fill="#000000" font-family="sans-serif" font-size="11" lengthAdjust="spacingAndGlyphs" textLength="105" x="44" y="323.8198">-authToken: String</text><line style="stroke: #383838; stroke-width: 1.5;" x1="39" x2="307" y1="330.4141" y2="330.4141"/><text fill="#000000" font-family="sans-serif" font-size="11" lengthAdjust="spacingAndGlyphs" textLength="258" x="44" y="344.6245">+RESTfulDataManager(host, port, authToken)</text><!--class PartyController--><rect fill="#F8F8F8" filter="url(#f1p1pnve13vtr0)" height="163.2422" id="PartyController" style="stroke: #383838; stroke-width: 1.5;" width="300" x="858" y="59"/><ellipse cx="957.25" cy="75" fill="#C2C2C2" rx="11" ry="11" style="stroke: #383838; stroke-width: 1.0;"/><path d="M959.5938,70.6719 L959.7656,70.75 C959.9844,70.4375 960.1875,70.3438 960.4844,70.3438 C960.7813,70.3438 961.0625,70.4844 961.2188,70.75 C961.3125,70.9063 961.3281,71.0313 961.3281,71.4688 L961.3281,72.8906 C961.3281,73.3125 961.2969,73.5 961.1875,73.6563 C961.0156,73.875 960.75,74.0156 960.4844,74.0156 C960.2656,74.0156 960.0313,73.9063 959.8906,73.7656 C959.75,73.6406 959.7188,73.5156 959.6563,73.1094 C959.5625,72.7031 959.3906,72.4844 958.9063,72.2031 C958.4375,71.9531 957.8281,71.7969 957.25,71.7969 C955.5156,71.7969 954.2656,73.1094 954.2656,74.8906 L954.2656,75.9844 C954.2656,77.6875 955.5625,78.7813 957.6094,78.7813 C958.375,78.7813 959.0625,78.6563 959.4844,78.3906 C959.6719,78.2969 959.6719,78.2969 960.125,77.8125 C960.3125,77.625 960.5156,77.5469 960.7344,77.5469 C961.2031,77.5469 961.5938,77.9375 961.5938,78.3906 C961.5938,78.7813 961.2656,79.2344 960.6875,79.6406 C959.9375,80.1875 958.7813,80.4844 957.5625,80.4844 C954.6719,80.4844 952.5625,78.5938 952.5625,76.0156 L952.5625,74.8906 C952.5625,72.1719 954.5625,70.0938 957.1875,70.0938 C958.0625,70.0938 958.6563,70.2344 959.5938,70.6719 Z "/><text fill="#000000" font-family="sans-serif" font-size="12" lengthAdjust="spacingAndGlyphs" textLength="93" x="977.75" y="79.1543">PartyController</text><line style="stroke: #383838; stroke-width: 1.5;" x1="859" x2="1157" y1="91" y2="91"/><line style="stroke: #383838; stroke-width: 1.5;" x1="859" x2="1157" y1="99" y2="99"/><text fill="#000000" font-family="sans-serif" font-size="11" lengthAdjust="spacingAndGlyphs" textLength="288" x="864" y="113.2104">+PartyController(dataManager: RESTDataManager)</text><text fill="#000000" font-family="sans-serif" font-size="11" lengthAdjust="spacingAndGlyphs" textLength="163" x="864" y="126.0151">+getAllParties(): List&lt;Party&gt;</text><text fill="#000000" font-family="sans-serif" font-size="11" lengthAdjust="spacingAndGlyphs" textLength="155" x="864" y="138.8198">+addParty(party: Party): int</text><text fill="#000000" font-family="sans-serif" font-size="11" lengthAdjust="spacingAndGlyphs" textLength="133" x="864" y="151.6245">+editParty(party: Party)</text><text fill="#000000" font-family="sans-serif" font-size="11" lengthAdjust="spacingAndGlyphs" textLength="133" x="864" y="164.4292">+getParty(id: int): Party</text><text fill="#000000" font-family="sans-serif" font-size="11" lengthAdjust="spacingAndGlyphs" textLength="204" x="864" y="177.2339">+getDefaultNormalBeerPrice(): float</text><text fill="#000000" font-family="sans-serif" font-size="11" lengthAdjust="spacingAndGlyphs" textLength="255" x="864" y="190.0386">+setDefaultNormalBeerPrice(newPrice: float)</text><text fill="#000000" font-family="sans-serif" font-size="11" lengthAdjust="spacingAndGlyphs" textLength="204" x="864" y="202.8433">+getDefaultSpecialBeerPrice(): float</text><text fill="#000000" font-family="sans-serif" font-size="11" lengthAdjust="spacingAndGlyphs" textLength="255" x="864" y="215.6479">+setDefaultSpecialBeerPrice(newPrice: float)</text><!--class ProductController--><rect fill="#F8F8F8" filter="url(#f1p1pnve13vtr0)" height="124.8281" id="ProductController" style="stroke: #383838; stroke-width: 1.5;" width="314" x="418" y="239"/><ellipse cx="515.75" cy="255" fill="#C2C2C2" rx="11" ry="11" style="stroke: #383838; stroke-width: 1.0;"/><path d="M518.0938,250.6719 L518.2656,250.75 C518.4844,250.4375 518.6875,250.3438 518.9844,250.3438 C519.2813,250.3438 519.5625,250.4844 519.7188,250.75 C519.8125,250.9063 519.8281,251.0313 519.8281,251.4688 L519.8281,252.8906 C519.8281,253.3125 519.7969,253.5 519.6875,253.6563 C519.5156,253.875 519.25,254.0156 518.9844,254.0156 C518.7656,254.0156 518.5313,253.9063 518.3906,253.7656 C518.25,253.6406 518.2188,253.5156 518.1563,253.1094 C518.0625,252.7031 517.8906,252.4844 517.4063,252.2031 C516.9375,251.9531 516.3281,251.7969 515.75,251.7969 C514.0156,251.7969 512.7656,253.1094 512.7656,254.8906 L512.7656,255.9844 C512.7656,257.6875 514.0625,258.7813 516.1094,258.7813 C516.875,258.7813 517.5625,258.6563 517.9844,258.3906 C518.1719,258.2969 518.1719,258.2969 518.625,257.8125 C518.8125,257.625 519.0156,257.5469 519.2344,257.5469 C519.7031,257.5469 520.0938,257.9375 520.0938,258.3906 C520.0938,258.7813 519.7656,259.2344 519.1875,259.6406 C518.4375,260.1875 517.2813,260.4844 516.0625,260.4844 C513.1719,260.4844 511.0625,258.5938 511.0625,256.0156 L511.0625,254.8906 C511.0625,252.1719 513.0625,250.0938 515.6875,250.0938 C516.5625,250.0938 517.1563,250.2344 518.0938,250.6719 Z "/><text fill="#000000" font-family="sans-serif" font-size="12" lengthAdjust="spacingAndGlyphs" textLength="110" x="536.25" y="259.1543">ProductController</text><line style="stroke: #383838; stroke-width: 1.5;" x1="419" x2="731" y1="271" y2="271"/><line style="stroke: #383838; stroke-width: 1.5;" x1="419" x2="731" y1="279" y2="279"/><text fill="#000000" font-family="sans-serif" font-size="11" lengthAdjust="spacingAndGlyphs" textLength="302" x="424" y="293.2104">+ProductController(dataManager: RESTDataManager)</text><text fill="#000000" font-family="sans-serif" font-size="11" lengthAdjust="spacingAndGlyphs" textLength="187" x="424" y="306.0151">+getAllProducts(): List&lt;Product&gt;</text><text fill="#000000" font-family="sans-serif" font-size="11" lengthAdjust="spacingAndGlyphs" textLength="280" x="424" y="318.8198">+getProductsByType(type: string): List&lt;Product&gt;</text><text fill="#000000" font-family="sans-serif" font-size="11" lengthAdjust="spacingAndGlyphs" textLength="127" x="424" y="331.6245">+deleteProduct(id: int)</text><text fill="#000000" font-family="sans-serif" font-size="11" lengthAdjust="spacingAndGlyphs" textLength="197" x="424" y="344.4292">+addProduct(product: Product): int</text><text fill="#000000" font-family="sans-serif" font-size="11" lengthAdjust="spacingAndGlyphs" textLength="175" x="424" y="357.2339">+editProduct(product: Product)</text><!--class MemberController--><rect fill="#F8F8F8" filter="url(#f1p1pnve13vtr0)" height="99.2188" id="MemberController" style="stroke: #383838; stroke-width: 1.5;" width="317" x="842.5" y="252"/><ellipse cx="941.25" cy="268" fill="#C2C2C2" rx="11" ry="11" style="stroke: #383838; stroke-width: 1.0;"/><path d="M943.5938,263.6719 L943.7656,263.75 C943.9844,263.4375 944.1875,263.3438 944.4844,263.3438 C944.7813,263.3438 945.0625,263.4844 945.2188,263.75 C945.3125,263.9063 945.3281,264.0313 945.3281,264.4688 L945.3281,265.8906 C945.3281,266.3125 945.2969,266.5 945.1875,266.6563 C945.0156,266.875 944.75,267.0156 944.4844,267.0156 C944.2656,267.0156 944.0313,266.9063 943.8906,266.7656 C943.75,266.6406 943.7188,266.5156 943.6563,266.1094 C943.5625,265.7031 943.3906,265.4844 942.9063,265.2031 C942.4375,264.9531 941.8281,264.7969 941.25,264.7969 C939.5156,264.7969 938.2656,266.1094 938.2656,267.8906 L938.2656,268.9844 C938.2656,270.6875 939.5625,271.7813 941.6094,271.7813 C942.375,271.7813 943.0625,271.6563 943.4844,271.3906 C943.6719,271.2969 943.6719,271.2969 944.125,270.8125 C944.3125,270.625 944.5156,270.5469 944.7344,270.5469 C945.2031,270.5469 945.5938,270.9375 945.5938,271.3906 C945.5938,271.7813 945.2656,272.2344 944.6875,272.6406 C943.9375,273.1875 942.7813,273.4844 941.5625,273.4844 C938.6719,273.4844 936.5625,271.5938 936.5625,269.0156 L936.5625,267.8906 C936.5625,265.1719 938.5625,263.0938 941.1875,263.0938 C942.0625,263.0938 942.6563,263.2344 943.5938,263.6719 Z "/><text fill="#000000" font-family="sans-serif" font-size="12" lengthAdjust="spacingAndGlyphs" textLength="111" x="961.75" y="272.1543">MemberController</text><line style="stroke: #383838; stroke-width: 1.5;" x1="843.5" x2="1158.5" y1="284" y2="284"/><line style="stroke: #383838; stroke-width: 1.5;" x1="843.5" x2="1158.5" y1="292" y2="292"/><text fill="#000000" font-family="sans-serif" font-size="11" lengthAdjust="spacingAndGlyphs" textLength="305" x="848.5" y="306.2104">+MemberController(dataManager: RESTDataManager)</text><text fill="#000000" font-family="sans-serif" font-size="11" lengthAdjust="spacingAndGlyphs" textLength="193" x="848.5" y="319.0151">+getAllMembers(): List&lt;Member&gt;</text><text fill="#000000" font-family="sans-serif" font-size="11" lengthAdjust="spacingAndGlyphs" textLength="213" x="848.5" y="331.8198">+getBalanceTooLowThreshold(): float</text><text fill="#000000" font-family="sans-serif" font-size="11" lengthAdjust="spacingAndGlyphs" textLength="293" x="848.5" y="344.6245">+setBalanceTooLowThreshold(newThreshold: float)</text><!--link ProductType to Product--><path d="M569.82,533 C534.951,533 500.083,533 465.215,533 " fill="none" id="ProductType-Product" style="stroke: #383838; stroke-width: 1.0;"/><polygon fill="#383838" points="574.964,533,565.964,529,569.964,533,565.964,537,574.964,533" style="stroke: #383838; stroke-width: 1.0;"/><text fill="#000000" font-family="sans-serif" font-size="13" lengthAdjust="spacingAndGlyphs" textLength="37" x="529.921" y="529.2312">- type</text><!--link Product to Party--><path d="M477.632,585.697 C491.722,591.603 506.095,597.212 520,602 C546.606,611.161 597.704,624.347 652.849,637.61 " fill="none" id="Product-Party" style="stroke: #383838; stroke-width: 1.0;"/><polygon fill="#FFFFFF" points="665.8,640.709,660.8958,635.4224,654.1296,637.916,659.0338,643.2027,665.8,640.709" style="stroke: #383838; stroke-width: 1.0;"/><polygon fill="#383838" points="465.34,580.442,472.0431,587.6579,469.9375,582.4075,475.1879,580.3019,465.34,580.442" style="stroke: #383838; stroke-width: 1.0;"/><line style="stroke: #383838; stroke-width: 1.0;" x1="469.9375" x2="477.2935" y1="582.4075" y2="585.5525"/><text fill="#000000" font-family="sans-serif" font-size="13" lengthAdjust="spacingAndGlyphs" textLength="291" x="472.8028" y="596.5213">- servedBeers: Map&lt;Product, BeerCategory&gt;</text><!--link BeerCategory to Party--><path d="M527.747,688 C565.435,688 615.494,688 665.698,688 " fill="none" id="BeerCategory-Party" style="stroke: #383838; stroke-width: 1.0; stroke-dasharray: 7.0,7.0;"/><polygon fill="#383838" points="522.747,688,531.747,692,527.747,688,531.747,684,522.747,688" style="stroke: #383838; stroke-width: 1.0;"/><text fill="#000000" font-family="sans-serif" font-size="13" lengthAdjust="spacingAndGlyphs" textLength="32" x="578.25" y="681.0669">Uses</text><!--link RESTDataManager to RESTfulDataManager--><path d="M417.752,203.935 C377.27,219.907 334.343,236.843 295.933,251.998 " fill="none" id="RESTDataManager-RESTfulDataManager" style="stroke: #383838; stroke-width: 1.0; stroke-dasharray: 7.0,7.0;"/><polygon fill="none" points="415.29,197.382,436.464,196.553,420.428,210.405,415.29,197.382" style="stroke: #383838; stroke-width: 1.0;"/><!--link RESTDataManager to PartyController--><path d="M752.461,140.5 C787.568,140.5 822.674,140.5 857.781,140.5 " fill="none" id="RESTDataManager-PartyController" style="stroke: #383838; stroke-width: 1.0;"/><polygon fill="#383838" points="747.281,140.5,756.281,144.5,752.281,140.5,756.281,136.5,747.281,140.5" style="stroke: #383838; stroke-width: 1.0;"/><text fill="#000000" font-family="sans-serif" font-size="13" lengthAdjust="spacingAndGlyphs" textLength="94" x="755.1255" y="137.2993">- dataManager</text><!--link RESTDataManager to ProductController--><path d="M575.621,201.823 C575.544,213.958 575.464,226.727 575.387,238.906 " fill="none" id="RESTDataManager-ProductController" style="stroke: #383838; stroke-width: 1.0;"/><polygon fill="#383838" points="575.653,196.664,571.5965,205.6387,575.6216,201.6639,579.5963,205.689,575.653,196.664" style="stroke: #383838; stroke-width: 1.0;"/><text fill="#000000" font-family="sans-serif" font-size="13" lengthAdjust="spacingAndGlyphs" textLength="94" x="475.8826" y="216.4966">- dataManager</text><!--link RESTDataManager to MemberController--><path d="M727.972,198.355 C774.886,215.907 826.094,235.065 871.356,251.998 " fill="none" id="RESTDataManager-MemberController" style="stroke: #383838; stroke-width: 1.0;"/><polygon fill="#383838" points="723.154,196.553,730.1825,203.4523,727.8372,198.3045,732.9849,195.9592,723.154,196.553" style="stroke: #383838; stroke-width: 1.0;"/><text fill="#000000" font-family="sans-serif" font-size="13" lengthAdjust="spacingAndGlyphs" textLength="94" x="641.9862" y="216.7696">- dataManager</text><!--link PartyController to Party--><path d="M1158.18,192.391 C1179.54,204.907 1199.48,220.26 1215,239 C1318.76,364.294 1364.09,475.338 1262,602 C1237.74,632.101 1160.66,652.096 1081.28,665.081 " fill="none" id="PartyController-Party" style="stroke: #383838; stroke-width: 1.0; stroke-dasharray: 7.0,7.0;"/><polygon fill="#383838" points="1076.05,665.927,1085.574,668.4355,1080.9856,665.127,1084.2941,660.5386,1076.05,665.927" style="stroke: #383838; stroke-width: 1.0;"/><text fill="#000000" font-family="sans-serif" font-size="13" lengthAdjust="spacingAndGlyphs" textLength="32" x="1314" y="409.0669">Uses</text><!--link ProductController to Product--><path d="M520.064,364.002 C487.925,399.982 447.77,444.936 417.087,479.286 " fill="none" id="ProductController-Product" style="stroke: #383838; stroke-width: 1.0; stroke-dasharray: 7.0,7.0;"/><polygon fill="#383838" points="413.393,483.421,422.3723,479.3748,416.7244,479.6925,416.4067,474.0446,413.393,483.421" style="stroke: #383838; stroke-width: 1.0;"/><text fill="#000000" font-family="sans-serif" font-size="13" lengthAdjust="spacingAndGlyphs" textLength="32" x="491" y="409.0669">Uses</text><!--link MemberController to Member--><path d="M1001,351.171 C1001,382.398 1001,423.529 1001,458.672 " fill="none" id="MemberController-Member" style="stroke: #383838; stroke-width: 1.0; stroke-dasharray: 7.0,7.0;"/><polygon fill="#383838" points="1001,463.812,1005,454.812,1001,458.812,997,454.812,1001,463.812" style="stroke: #383838; stroke-width: 1.0;"/><text fill="#000000" font-family="sans-serif" font-size="13" lengthAdjust="spacingAndGlyphs" textLength="32" x="1002" y="409.0669">Uses</text><!--
@startuml
skinparam monochrome true
skinparam classAttributeIconSize 0
skinparam nodesep 110
skinparam ranksep 10

package Model {
	class Party {
		- id: int
		- name: String
		- date: Date
		- numberOfAttendees: int
		- balance: float
		+ Party(id, name, date, numberOfAttendees, balance)
		+ Party(name, date, normalBeerPrice, specialBeerPrice, servedBeers)
	}

	class Product {
		- id: int
		- name: String
		- price: float
		+ Product(id, name, price, type)
	}

	enum ProductType {
		BEER,
		DEPOSIT,
		FOOD
	}

	ProductType "- type" <- Product

	enum BeerCategory {
		NORMAL,
		SPECIAL
	}

	Product "- servedBeers: Map<Product, BeerCategory>" <- -o Party

	BeerCategory <. Party: Uses
	
	class Member {
		- id: int
		- firstName: String
		- lastName: String
		- balance: float
		- lastMembershipPayment: Date
		+ Member(id, firstName, lastName, balance, lastMembershipPayment)
		+ isMembershipValid(): Boolean
	}
}

package Controller {
	interface RESTDataManager {
		+ getObject(ressource: String): Map<String, Object>
		+ getArray(ressource: String): List<Object>
		+ post(resource: String, jsonObject: Map<String, Object>)
		+ put(resource: String, jsonObject: Map<String, Object)
		+ delete(resource: String): Map<String, Object>
	}

	class RESTfulDataManager {
		- host: String
		- port: String
		- authToken: String
		+ RESTfulDataManager(host, port, authToken)
	}

	RESTDataManager <|.. RESTfulDataManager
		

	class PartyController {
		+ PartyController(dataManager: RESTDataManager)
		+ getAllParties(): List<Party>
		+ addParty(party: Party): int
		+ editParty(party: Party)
		+ getParty(id: int): Party
		+ getDefaultNormalBeerPrice(): float
		+ setDefaultNormalBeerPrice(newPrice: float)
		+ getDefaultSpecialBeerPrice(): float
		+ setDefaultSpecialBeerPrice(newPrice: float)
	}

	RESTDataManager "- dataManager" <- PartyController

	class ProductController {
		+ ProductController(dataManager: RESTDataManager)
		+ getAllProducts(): List<Product>
		+ getProductsByType(type: string): List<Product>
		+ deleteProduct(id: int)
		+ addProduct(product: Product): int
		+ editProduct(product: Product)
	}

	RESTDataManager "- dataManager" <- - ProductController

	class MemberController {
		+ MemberController(dataManager: RESTDataManager)
		+ getAllMembers(): List<Member>
		+ getBalanceTooLowThreshold(): float
		+ setBalanceTooLowThreshold(newThreshold: float)
	}
	
	RESTDataManager "- dataManager" <- - MemberController
}

PartyController ..> Party: Uses
ProductController ..> Product: Uses
MemberController ..> Member: Uses
@enduml

PlantUML version 1.2018.00(Thu Jan 04 19:42:56 UTC 2018)
(GPL source distribution)
Java Runtime: Java(TM) SE Runtime Environment
JVM: Java HotSpot(TM) 64-Bit Server VM
Java Version: 1.7.0_25-b15
Operating System: Linux
Default Encoding: UTF-8
Language: en
Country: US
--></g></svg>