<?xml version="1.0" encoding="UTF-8" standalone="no"?><svg xmlns="http://www.w3.org/2000/svg" xmlns:xlink="http://www.w3.org/1999/xlink" contentScriptType="application/ecmascript" contentStyleType="text/css" height="550px" preserveAspectRatio="none" style="width:1595px;height:550px;" version="1.1" viewBox="0 0 1595 550" width="1595px" zoomAndPan="magnify"><defs><filter height="300%" id="fs2o7cb3tf66p" width="300%" x="-1" y="-1"><feGaussianBlur result="blurOut" stdDeviation="2.0"/><feColorMatrix in="blurOut" result="blurOut2" type="matrix" values="0 0 0 0 0 0 0 0 0 0 0 0 0 0 0 0 0 0 .4 0"/><feOffset dx="4.0" dy="4.0" in="blurOut2" result="blurOut3"/><feBlend in="SourceGraphic" in2="blurOut3" mode="normal"/></filter></defs><g><!--cluster Model--><polygon fill="#FFFFFF" filter="url(#fs2o7cb3tf66p)" points="22,196,75,196,82,218.2969,725,218.2969,725,538,22,538,22,196" style="stroke: #000000; stroke-width: 1.5;"/><line style="stroke: #000000; stroke-width: 1.5;" x1="22" x2="82" y1="218.2969" y2="218.2969"/><text fill="#000000" font-family="sans-serif" font-size="14" font-weight="bold" lengthAdjust="spacingAndGlyphs" textLength="47" x="26" y="210.9951">Model</text><!--cluster Controller--><polygon fill="#FFFFFF" filter="url(#fs2o7cb3tf66p)" points="749,24,834,24,841,46.2969,1533,46.2969,1533,359,749,359,749,24" style="stroke: #000000; stroke-width: 1.5;"/><line style="stroke: #000000; stroke-width: 1.5;" x1="749" x2="841" y1="46.2969" y2="46.2969"/><text fill="#000000" font-family="sans-serif" font-size="14" font-weight="bold" lengthAdjust="spacingAndGlyphs" textLength="79" x="753" y="38.9951">Controller</text><!--class Party--><rect fill="#F8F8F8" filter="url(#fs2o7cb3tf66p)" height="137.6328" id="Party" style="stroke: #383838; stroke-width: 1.5;" width="410" x="299" y="384"/><ellipse cx="483.75" cy="400" fill="#C2C2C2" rx="11" ry="11" style="stroke: #383838; stroke-width: 1.0;"/><path d="M486.0938,395.6719 L486.2656,395.75 C486.4844,395.4375 486.6875,395.3438 486.9844,395.3438 C487.2813,395.3438 487.5625,395.4844 487.7188,395.75 C487.8125,395.9063 487.8281,396.0313 487.8281,396.4688 L487.8281,397.8906 C487.8281,398.3125 487.7969,398.5 487.6875,398.6563 C487.5156,398.875 487.25,399.0156 486.9844,399.0156 C486.7656,399.0156 486.5313,398.9063 486.3906,398.7656 C486.25,398.6406 486.2188,398.5156 486.1563,398.1094 C486.0625,397.7031 485.8906,397.4844 485.4063,397.2031 C484.9375,396.9531 484.3281,396.7969 483.75,396.7969 C482.0156,396.7969 480.7656,398.1094 480.7656,399.8906 L480.7656,400.9844 C480.7656,402.6875 482.0625,403.7813 484.1094,403.7813 C484.875,403.7813 485.5625,403.6563 485.9844,403.3906 C486.1719,403.2969 486.1719,403.2969 486.625,402.8125 C486.8125,402.625 487.0156,402.5469 487.2344,402.5469 C487.7031,402.5469 488.0938,402.9375 488.0938,403.3906 C488.0938,403.7813 487.7656,404.2344 487.1875,404.6406 C486.4375,405.1875 485.2813,405.4844 484.0625,405.4844 C481.1719,405.4844 479.0625,403.5938 479.0625,401.0156 L479.0625,399.8906 C479.0625,397.1719 481.0625,395.0938 483.6875,395.0938 C484.5625,395.0938 485.1563,395.2344 486.0938,395.6719 Z "/><text fill="#000000" font-family="sans-serif" font-size="12" lengthAdjust="spacingAndGlyphs" textLength="32" x="504.25" y="404.1543">Party</text><line style="stroke: #383838; stroke-width: 1.5;" x1="300" x2="708" y1="416" y2="416"/><text fill="#000000" font-family="sans-serif" font-size="11" lengthAdjust="spacingAndGlyphs" textLength="36" x="305" y="430.2104">-id: int</text><text fill="#000000" font-family="sans-serif" font-size="11" lengthAdjust="spacingAndGlyphs" textLength="78" x="305" y="443.0151">-name: String</text><text fill="#000000" font-family="sans-serif" font-size="11" lengthAdjust="spacingAndGlyphs" textLength="63" x="305" y="455.8198">-date: Date</text><text fill="#000000" font-family="sans-serif" font-size="11" lengthAdjust="spacingAndGlyphs" textLength="140" x="305" y="468.6245">-numberOfAttendees: int</text><text fill="#000000" font-family="sans-serif" font-size="11" lengthAdjust="spacingAndGlyphs" textLength="81" x="305" y="481.4292">-balance: float</text><line style="stroke: #383838; stroke-width: 1.5;" x1="300" x2="708" y1="488.0234" y2="488.0234"/><text fill="#000000" font-family="sans-serif" font-size="11" lengthAdjust="spacingAndGlyphs" textLength="303" x="305" y="502.2339">+Party(id, name, date, numberOfAttendees, balance)</text><text fill="#000000" font-family="sans-serif" font-size="11" lengthAdjust="spacingAndGlyphs" textLength="398" x="305" y="515.0386">+Party(name, date, normalBeerPrice, specialBeerPrice, servedBeers)</text><!--class Product--><rect fill="#F8F8F8" filter="url(#fs2o7cb3tf66p)" height="99.2188" id="Product" style="stroke: #383838; stroke-width: 1.5;" width="190" x="425" y="231"/><ellipse cx="491.25" cy="247" fill="#C2C2C2" rx="11" ry="11" style="stroke: #383838; stroke-width: 1.0;"/><path d="M493.5938,242.6719 L493.7656,242.75 C493.9844,242.4375 494.1875,242.3438 494.4844,242.3438 C494.7813,242.3438 495.0625,242.4844 495.2188,242.75 C495.3125,242.9063 495.3281,243.0313 495.3281,243.4688 L495.3281,244.8906 C495.3281,245.3125 495.2969,245.5 495.1875,245.6563 C495.0156,245.875 494.75,246.0156 494.4844,246.0156 C494.2656,246.0156 494.0313,245.9063 493.8906,245.7656 C493.75,245.6406 493.7188,245.5156 493.6563,245.1094 C493.5625,244.7031 493.3906,244.4844 492.9063,244.2031 C492.4375,243.9531 491.8281,243.7969 491.25,243.7969 C489.5156,243.7969 488.2656,245.1094 488.2656,246.8906 L488.2656,247.9844 C488.2656,249.6875 489.5625,250.7813 491.6094,250.7813 C492.375,250.7813 493.0625,250.6563 493.4844,250.3906 C493.6719,250.2969 493.6719,250.2969 494.125,249.8125 C494.3125,249.625 494.5156,249.5469 494.7344,249.5469 C495.2031,249.5469 495.5938,249.9375 495.5938,250.3906 C495.5938,250.7813 495.2656,251.2344 494.6875,251.6406 C493.9375,252.1875 492.7813,252.4844 491.5625,252.4844 C488.6719,252.4844 486.5625,250.5938 486.5625,248.0156 L486.5625,246.8906 C486.5625,244.1719 488.5625,242.0938 491.1875,242.0938 C492.0625,242.0938 492.6563,242.2344 493.5938,242.6719 Z "/><text fill="#000000" font-family="sans-serif" font-size="12" lengthAdjust="spacingAndGlyphs" textLength="49" x="511.75" y="251.1543">Product</text><line style="stroke: #383838; stroke-width: 1.5;" x1="426" x2="614" y1="263" y2="263"/><text fill="#000000" font-family="sans-serif" font-size="11" lengthAdjust="spacingAndGlyphs" textLength="36" x="431" y="277.2104">-id: int</text><text fill="#000000" font-family="sans-serif" font-size="11" lengthAdjust="spacingAndGlyphs" textLength="78" x="431" y="290.0151">-name: String</text><text fill="#000000" font-family="sans-serif" font-size="11" lengthAdjust="spacingAndGlyphs" textLength="65" x="431" y="302.8198">-price: float</text><line style="stroke: #383838; stroke-width: 1.5;" x1="426" x2="614" y1="309.4141" y2="309.4141"/><text fill="#000000" font-family="sans-serif" font-size="11" lengthAdjust="spacingAndGlyphs" textLength="178" x="431" y="323.6245">+Product(id, name, price, type)</text><!--class ProductType--><rect fill="#F8F8F8" filter="url(#fs2o7cb3tf66p)" height="86.4141" id="ProductType" style="stroke: #383838; stroke-width: 1.5;" width="110" x="205" y="237.5"/><ellipse cx="220" cy="253.5" fill="#ABABAB" rx="11" ry="11" style="stroke: #383838; stroke-width: 1.0;"/><path d="M218.2969,254.375 L218.2969,256.7969 L222.6563,256.7969 L222.6563,255.9219 C222.6563,255.4375 222.6875,255.2969 222.7969,255.1406 C222.9688,254.8906 223.2344,254.7813 223.5,254.7813 C223.7813,254.7813 224.0625,254.9375 224.2344,255.1875 C224.3125,255.3438 224.3438,255.4844 224.3438,255.9219 L224.3438,258.5 L216.3438,258.5 C215.9531,258.5 215.7188,258.4531 215.5781,258.3281 C215.3594,258.1719 215.2188,257.9219 215.2188,257.6563 C215.2188,257.3594 215.375,257.0938 215.625,256.9219 C215.7813,256.8125 215.9375,256.7969 216.3438,256.7969 L216.5938,256.7969 L216.5938,250.2813 L216.3438,250.2813 C215.9219,250.2813 215.7344,250.25 215.5781,250.1406 C215.3594,249.9688 215.2188,249.7188 215.2188,249.4375 C215.2188,249.1563 215.375,248.8594 215.625,248.7031 C215.7813,248.6094 215.9063,248.5938 216.3438,248.5938 L223.9688,248.5938 L223.9688,251.1406 C223.9688,251.6094 223.9375,251.75 223.8281,251.9219 C223.6563,252.1406 223.3906,252.2813 223.125,252.2813 C222.8438,252.2813 222.5625,252.125 222.3906,251.875 C222.3125,251.7188 222.2813,251.5469 222.2813,251.1406 L222.2813,250.2813 L218.2969,250.2813 L218.2969,252.6875 L219.75,252.6875 L219.75,252.5625 C219.75,252.1094 219.7813,251.9531 219.8906,251.7813 C220.0625,251.5625 220.3281,251.4219 220.5781,251.4219 C221.0313,251.4219 221.3438,251.7344 221.4063,252.2031 C221.4219,252.3594 221.4219,252.4063 221.4219,252.5625 L221.4219,254.4844 C221.4219,254.9375 221.3906,255.0938 221.2656,255.25 C221.1094,255.4688 220.8438,255.6094 220.5938,255.6094 C220.2969,255.6094 220.0156,255.4531 219.8594,255.2031 C219.7813,255.0469 219.75,254.8906 219.75,254.4844 L219.75,254.375 Z "/><text fill="#000000" font-family="sans-serif" font-size="12" lengthAdjust="spacingAndGlyphs" textLength="78" x="234" y="257.6543">ProductType</text><line style="stroke: #383838; stroke-width: 1.5;" x1="206" x2="314" y1="269.5" y2="269.5"/><text fill="#000000" font-family="sans-serif" font-size="11" lengthAdjust="spacingAndGlyphs" textLength="33" x="211" y="283.7104">BEER,</text><text fill="#000000" font-family="sans-serif" font-size="11" lengthAdjust="spacingAndGlyphs" textLength="53" x="211" y="296.5151">DEPOSIT,</text><text fill="#000000" font-family="sans-serif" font-size="11" lengthAdjust="spacingAndGlyphs" textLength="32" x="211" y="309.3198">FOOD</text><line style="stroke: #383838; stroke-width: 1.5;" x1="206" x2="314" y1="315.9141" y2="315.9141"/><!--class BeerCategory--><rect fill="#F8F8F8" filter="url(#fs2o7cb3tf66p)" height="73.6094" id="BeerCategory" style="stroke: #383838; stroke-width: 1.5;" width="117" x="38.5" y="416"/><ellipse cx="53.5" cy="432" fill="#ABABAB" rx="11" ry="11" style="stroke: #383838; stroke-width: 1.0;"/><path d="M51.7969,432.875 L51.7969,435.2969 L56.1563,435.2969 L56.1563,434.4219 C56.1563,433.9375 56.1875,433.7969 56.2969,433.6406 C56.4688,433.3906 56.7344,433.2813 57,433.2813 C57.2813,433.2813 57.5625,433.4375 57.7344,433.6875 C57.8125,433.8438 57.8438,433.9844 57.8438,434.4219 L57.8438,437 L49.8438,437 C49.4531,437 49.2188,436.9531 49.0781,436.8281 C48.8594,436.6719 48.7188,436.4219 48.7188,436.1563 C48.7188,435.8594 48.875,435.5938 49.125,435.4219 C49.2813,435.3125 49.4375,435.2969 49.8438,435.2969 L50.0938,435.2969 L50.0938,428.7813 L49.8438,428.7813 C49.4219,428.7813 49.2344,428.75 49.0781,428.6406 C48.8594,428.4688 48.7188,428.2188 48.7188,427.9375 C48.7188,427.6563 48.875,427.3594 49.125,427.2031 C49.2813,427.1094 49.4063,427.0938 49.8438,427.0938 L57.4688,427.0938 L57.4688,429.6406 C57.4688,430.1094 57.4375,430.25 57.3281,430.4219 C57.1563,430.6406 56.8906,430.7813 56.625,430.7813 C56.3438,430.7813 56.0625,430.625 55.8906,430.375 C55.8125,430.2188 55.7813,430.0469 55.7813,429.6406 L55.7813,428.7813 L51.7969,428.7813 L51.7969,431.1875 L53.25,431.1875 L53.25,431.0625 C53.25,430.6094 53.2813,430.4531 53.3906,430.2813 C53.5625,430.0625 53.8281,429.9219 54.0781,429.9219 C54.5313,429.9219 54.8438,430.2344 54.9063,430.7031 C54.9219,430.8594 54.9219,430.9063 54.9219,431.0625 L54.9219,432.9844 C54.9219,433.4375 54.8906,433.5938 54.7656,433.75 C54.6094,433.9688 54.3438,434.1094 54.0938,434.1094 C53.7969,434.1094 53.5156,433.9531 53.3594,433.7031 C53.2813,433.5469 53.25,433.3906 53.25,432.9844 L53.25,432.875 Z "/><text fill="#000000" font-family="sans-serif" font-size="12" lengthAdjust="spacingAndGlyphs" textLength="85" x="67.5" y="436.1543">BeerCategory</text><line style="stroke: #383838; stroke-width: 1.5;" x1="39.5" x2="154.5" y1="448" y2="448"/><text fill="#000000" font-family="sans-serif" font-size="11" lengthAdjust="spacingAndGlyphs" textLength="50" x="44.5" y="462.2104">NORMAL,</text><text fill="#000000" font-family="sans-serif" font-size="11" lengthAdjust="spacingAndGlyphs" textLength="46" x="44.5" y="475.0151">SPECIAL</text><line style="stroke: #383838; stroke-width: 1.5;" x1="39.5" x2="154.5" y1="481.6094" y2="481.6094"/><!--class RESTDataManager--><rect fill="#F8F8F8" filter="url(#fs2o7cb3tf66p)" height="112.0234" id="RESTDataManager" style="stroke: #383838; stroke-width: 1.5;" width="342" x="765" y="59"/><ellipse cx="873.75" cy="75" fill="#B1B1B1" rx="11" ry="11" style="stroke: #383838; stroke-width: 1.0;"/><path d="M874.7031,71.7813 L874.7031,78.2969 L876.4219,78.2969 C876.875,78.2969 877.0156,78.3281 877.1875,78.4531 C877.4219,78.625 877.5313,78.875 877.5313,79.1563 C877.5313,79.7188 877.1719,80 876.4219,80 L871.2813,80 C870.875,80 870.6719,79.9531 870.5156,79.8281 C870.2969,79.6719 870.1563,79.4063 870.1563,79.1563 C870.1563,78.8594 870.3125,78.5781 870.5625,78.4219 C870.7188,78.3125 870.8438,78.2969 871.2813,78.2969 L873,78.2969 L873,71.7813 L871.2813,71.7813 C870.8594,71.7813 870.6719,71.75 870.5156,71.6406 C870.2969,71.4688 870.1563,71.2188 870.1563,70.9375 C870.1563,70.6563 870.3125,70.3594 870.5625,70.2031 C870.7188,70.1094 870.8438,70.0938 871.2813,70.0938 L876.4219,70.0938 C876.875,70.0938 877.0156,70.125 877.1875,70.2344 C877.4219,70.4063 877.5313,70.6719 877.5313,70.9375 C877.5313,71.2344 877.3906,71.5156 877.125,71.6719 C877,71.75 876.8125,71.7813 876.4219,71.7813 Z "/><text fill="#000000" font-family="sans-serif" font-size="12" font-style="italic" lengthAdjust="spacingAndGlyphs" textLength="116" x="894.25" y="79.1543">RESTDataManager</text><line style="stroke: #383838; stroke-width: 1.5;" x1="766" x2="1106" y1="91" y2="91"/><line style="stroke: #383838; stroke-width: 1.5;" x1="766" x2="1106" y1="99" y2="99"/><text fill="#000000" font-family="sans-serif" font-size="11" lengthAdjust="spacingAndGlyphs" textLength="298" x="771" y="113.2104">+getObject(ressource: String): Map&lt;String, Object&gt;</text><text fill="#000000" font-family="sans-serif" font-size="11" lengthAdjust="spacingAndGlyphs" textLength="247" x="771" y="126.0151">+getArray(ressource: String): List&lt;Object&gt;</text><text fill="#000000" font-family="sans-serif" font-size="11" lengthAdjust="spacingAndGlyphs" textLength="330" x="771" y="138.8198">+post(resource: String, jsonObject: Map&lt;String, Object&gt;)</text><text fill="#000000" font-family="sans-serif" font-size="11" lengthAdjust="spacingAndGlyphs" textLength="314" x="771" y="151.6245">+put(resource: String, jsonObject: Map&lt;String, Object)</text><text fill="#000000" font-family="sans-serif" font-size="11" lengthAdjust="spacingAndGlyphs" textLength="272" x="771" y="164.4292">+delete(resource: String): Map&lt;String, Object&gt;</text><!--class RESTfulDataManager--><rect fill="#F8F8F8" filter="url(#fs2o7cb3tf66p)" height="99.2188" id="RESTfulDataManager" style="stroke: #383838; stroke-width: 1.5;" width="270" x="1189" y="231"/><ellipse cx="1254.25" cy="247" fill="#C2C2C2" rx="11" ry="11" style="stroke: #383838; stroke-width: 1.0;"/><path d="M1256.5938,242.6719 L1256.7656,242.75 C1256.9844,242.4375 1257.1875,242.3438 1257.4844,242.3438 C1257.7813,242.3438 1258.0625,242.4844 1258.2188,242.75 C1258.3125,242.9063 1258.3281,243.0313 1258.3281,243.4688 L1258.3281,244.8906 C1258.3281,245.3125 1258.2969,245.5 1258.1875,245.6563 C1258.0156,245.875 1257.75,246.0156 1257.4844,246.0156 C1257.2656,246.0156 1257.0313,245.9063 1256.8906,245.7656 C1256.75,245.6406 1256.7188,245.5156 1256.6563,245.1094 C1256.5625,244.7031 1256.3906,244.4844 1255.9063,244.2031 C1255.4375,243.9531 1254.8281,243.7969 1254.25,243.7969 C1252.5156,243.7969 1251.2656,245.1094 1251.2656,246.8906 L1251.2656,247.9844 C1251.2656,249.6875 1252.5625,250.7813 1254.6094,250.7813 C1255.375,250.7813 1256.0625,250.6563 1256.4844,250.3906 C1256.6719,250.2969 1256.6719,250.2969 1257.125,249.8125 C1257.3125,249.625 1257.5156,249.5469 1257.7344,249.5469 C1258.2031,249.5469 1258.5938,249.9375 1258.5938,250.3906 C1258.5938,250.7813 1258.2656,251.2344 1257.6875,251.6406 C1256.9375,252.1875 1255.7813,252.4844 1254.5625,252.4844 C1251.6719,252.4844 1249.5625,250.5938 1249.5625,248.0156 L1249.5625,246.8906 C1249.5625,244.1719 1251.5625,242.0938 1254.1875,242.0938 C1255.0625,242.0938 1255.6563,242.2344 1256.5938,242.6719 Z "/><text fill="#000000" font-family="sans-serif" font-size="12" lengthAdjust="spacingAndGlyphs" textLength="131" x="1274.75" y="251.1543">RESTfulDataManager</text><line style="stroke: #383838; stroke-width: 1.5;" x1="1190" x2="1458" y1="263" y2="263"/><text fill="#000000" font-family="sans-serif" font-size="11" lengthAdjust="spacingAndGlyphs" textLength="71" x="1195" y="277.2104">-host: String</text><text fill="#000000" font-family="sans-serif" font-size="11" lengthAdjust="spacingAndGlyphs" textLength="69" x="1195" y="290.0151">-port: String</text><text fill="#000000" font-family="sans-serif" font-size="11" lengthAdjust="spacingAndGlyphs" textLength="105" x="1195" y="302.8198">-authToken: String</text><line style="stroke: #383838; stroke-width: 1.5;" x1="1190" x2="1458" y1="309.4141" y2="309.4141"/><text fill="#000000" font-family="sans-serif" font-size="11" lengthAdjust="spacingAndGlyphs" textLength="258" x="1195" y="323.6245">+RESTfulDataManager(host, port, authToken)</text><!--class PartyController--><rect fill="#F8F8F8" filter="url(#fs2o7cb3tf66p)" height="112.0234" id="PartyController" style="stroke: #383838; stroke-width: 1.5;" width="300" x="1217" y="59"/><ellipse cx="1316.25" cy="75" fill="#C2C2C2" rx="11" ry="11" style="stroke: #383838; stroke-width: 1.0;"/><path d="M1318.5938,70.6719 L1318.7656,70.75 C1318.9844,70.4375 1319.1875,70.3438 1319.4844,70.3438 C1319.7813,70.3438 1320.0625,70.4844 1320.2188,70.75 C1320.3125,70.9063 1320.3281,71.0313 1320.3281,71.4688 L1320.3281,72.8906 C1320.3281,73.3125 1320.2969,73.5 1320.1875,73.6563 C1320.0156,73.875 1319.75,74.0156 1319.4844,74.0156 C1319.2656,74.0156 1319.0313,73.9063 1318.8906,73.7656 C1318.75,73.6406 1318.7188,73.5156 1318.6563,73.1094 C1318.5625,72.7031 1318.3906,72.4844 1317.9063,72.2031 C1317.4375,71.9531 1316.8281,71.7969 1316.25,71.7969 C1314.5156,71.7969 1313.2656,73.1094 1313.2656,74.8906 L1313.2656,75.9844 C1313.2656,77.6875 1314.5625,78.7813 1316.6094,78.7813 C1317.375,78.7813 1318.0625,78.6563 1318.4844,78.3906 C1318.6719,78.2969 1318.6719,78.2969 1319.125,77.8125 C1319.3125,77.625 1319.5156,77.5469 1319.7344,77.5469 C1320.2031,77.5469 1320.5938,77.9375 1320.5938,78.3906 C1320.5938,78.7813 1320.2656,79.2344 1319.6875,79.6406 C1318.9375,80.1875 1317.7813,80.4844 1316.5625,80.4844 C1313.6719,80.4844 1311.5625,78.5938 1311.5625,76.0156 L1311.5625,74.8906 C1311.5625,72.1719 1313.5625,70.0938 1316.1875,70.0938 C1317.0625,70.0938 1317.6563,70.2344 1318.5938,70.6719 Z "/><text fill="#000000" font-family="sans-serif" font-size="12" lengthAdjust="spacingAndGlyphs" textLength="93" x="1336.75" y="79.1543">PartyController</text><line style="stroke: #383838; stroke-width: 1.5;" x1="1218" x2="1516" y1="91" y2="91"/><line style="stroke: #383838; stroke-width: 1.5;" x1="1218" x2="1516" y1="99" y2="99"/><text fill="#000000" font-family="sans-serif" font-size="11" lengthAdjust="spacingAndGlyphs" textLength="288" x="1223" y="113.2104">+PartyController(dataManager: RESTDataManager)</text><text fill="#000000" font-family="sans-serif" font-size="11" lengthAdjust="spacingAndGlyphs" textLength="163" x="1223" y="126.0151">+getAllParties(): List&lt;Party&gt;</text><text fill="#000000" font-family="sans-serif" font-size="11" lengthAdjust="spacingAndGlyphs" textLength="155" x="1223" y="138.8198">+addParty(party: Party): int</text><text fill="#000000" font-family="sans-serif" font-size="11" lengthAdjust="spacingAndGlyphs" textLength="133" x="1223" y="151.6245">+editParty(party: Party)</text><text fill="#000000" font-family="sans-serif" font-size="11" lengthAdjust="spacingAndGlyphs" textLength="133" x="1223" y="164.4292">+getParty(id: int): Party</text><!--class ProductController--><rect fill="#F8F8F8" filter="url(#fs2o7cb3tf66p)" height="124.8281" id="ProductController" style="stroke: #383838; stroke-width: 1.5;" width="314" x="765" y="218"/><ellipse cx="862.75" cy="234" fill="#C2C2C2" rx="11" ry="11" style="stroke: #383838; stroke-width: 1.0;"/><path d="M865.0938,229.6719 L865.2656,229.75 C865.4844,229.4375 865.6875,229.3438 865.9844,229.3438 C866.2813,229.3438 866.5625,229.4844 866.7188,229.75 C866.8125,229.9063 866.8281,230.0313 866.8281,230.4688 L866.8281,231.8906 C866.8281,232.3125 866.7969,232.5 866.6875,232.6563 C866.5156,232.875 866.25,233.0156 865.9844,233.0156 C865.7656,233.0156 865.5313,232.9063 865.3906,232.7656 C865.25,232.6406 865.2188,232.5156 865.1563,232.1094 C865.0625,231.7031 864.8906,231.4844 864.4063,231.2031 C863.9375,230.9531 863.3281,230.7969 862.75,230.7969 C861.0156,230.7969 859.7656,232.1094 859.7656,233.8906 L859.7656,234.9844 C859.7656,236.6875 861.0625,237.7813 863.1094,237.7813 C863.875,237.7813 864.5625,237.6563 864.9844,237.3906 C865.1719,237.2969 865.1719,237.2969 865.625,236.8125 C865.8125,236.625 866.0156,236.5469 866.2344,236.5469 C866.7031,236.5469 867.0938,236.9375 867.0938,237.3906 C867.0938,237.7813 866.7656,238.2344 866.1875,238.6406 C865.4375,239.1875 864.2813,239.4844 863.0625,239.4844 C860.1719,239.4844 858.0625,237.5938 858.0625,235.0156 L858.0625,233.8906 C858.0625,231.1719 860.0625,229.0938 862.6875,229.0938 C863.5625,229.0938 864.1563,229.2344 865.0938,229.6719 Z "/><text fill="#000000" font-family="sans-serif" font-size="12" lengthAdjust="spacingAndGlyphs" textLength="110" x="883.25" y="238.1543">ProductController</text><line style="stroke: #383838; stroke-width: 1.5;" x1="766" x2="1078" y1="250" y2="250"/><line style="stroke: #383838; stroke-width: 1.5;" x1="766" x2="1078" y1="258" y2="258"/><text fill="#000000" font-family="sans-serif" font-size="11" lengthAdjust="spacingAndGlyphs" textLength="302" x="771" y="272.2104">+ProductController(dataManager: RESTDataManager)</text><text fill="#000000" font-family="sans-serif" font-size="11" lengthAdjust="spacingAndGlyphs" textLength="187" x="771" y="285.0151">+getAllProducts(): List&lt;Product&gt;</text><text fill="#000000" font-family="sans-serif" font-size="11" lengthAdjust="spacingAndGlyphs" textLength="280" x="771" y="297.8198">+getProductsByType(type: string): List&lt;Product&gt;</text><text fill="#000000" font-family="sans-serif" font-size="11" lengthAdjust="spacingAndGlyphs" textLength="127" x="771" y="310.6245">+deleteProduct(id: int)</text><text fill="#000000" font-family="sans-serif" font-size="11" lengthAdjust="spacingAndGlyphs" textLength="197" x="771" y="323.4292">+addProduct(product: Product): int</text><text fill="#000000" font-family="sans-serif" font-size="11" lengthAdjust="spacingAndGlyphs" textLength="175" x="771" y="336.2339">+editProduct(product: Product)</text><!--link ProductType to Product--><path d="M320.238,280.5 C355.076,280.5 389.914,280.5 424.752,280.5 " fill="none" id="ProductType-Product" style="stroke: #383838; stroke-width: 1.0;"/><polygon fill="#383838" points="315.098,280.5,324.098,284.5,320.098,280.5,324.098,276.5,315.098,280.5" style="stroke: #383838; stroke-width: 1.0;"/><text fill="#000000" font-family="sans-serif" font-size="13" lengthAdjust="spacingAndGlyphs" textLength="37" x="323.1478" y="276.7312">- type</text><!--link Product to Party--><path d="M514.171,343.618 C513.348,352.385 512.492,361.506 511.642,370.57 " fill="none" id="Product-Party" style="stroke: #383838; stroke-width: 1.0;"/><polygon fill="#FFFFFF" points="510.404,383.759,514.9469,378.1588,511.5248,371.8115,506.9819,377.4116,510.404,383.759" style="stroke: #383838; stroke-width: 1.0;"/><polygon fill="#383838" points="515.415,330.358,510.5909,338.9445,514.9474,335.3361,518.5558,339.6926,515.415,330.358" style="stroke: #383838; stroke-width: 1.0;"/><line style="stroke: #383838; stroke-width: 1.0;" x1="514.9474" x2="514.2" y1="335.3361" y2="343.3015"/><text fill="#000000" font-family="sans-serif" font-size="13" lengthAdjust="spacingAndGlyphs" textLength="291" x="204.2473" y="350.1266">- servedBeers: Map&lt;Product, BeerCategory&gt;</text><!--link BeerCategory to Party--><path d="M160.747,453 C198.435,453 248.494,453 298.698,453 " fill="none" id="BeerCategory-Party" style="stroke: #383838; stroke-width: 1.0; stroke-dasharray: 7.0,7.0;"/><polygon fill="#383838" points="155.747,453,164.747,457,160.747,453,164.747,449,155.747,453" style="stroke: #383838; stroke-width: 1.0;"/><text fill="#000000" font-family="sans-serif" font-size="13" lengthAdjust="spacingAndGlyphs" textLength="32" x="211.25" y="446.0669">Uses</text><!--link RESTDataManager to RESTfulDataManager--><path d="M1110.6,178.394 C1118.54,181.574 1126.37,184.784 1134,188 C1164.87,201.008 1197.95,216.406 1227.71,230.825 " fill="none" id="RESTDataManager-RESTfulDataManager" style="stroke: #383838; stroke-width: 1.0; stroke-dasharray: 7.0,7.0;"/><polygon fill="none" points="1107.99,184.886,1091.95,171.039,1113.12,171.862,1107.99,184.886" style="stroke: #383838; stroke-width: 1.0;"/><!--link RESTDataManager to PartyController--><path d="M1112.44,115 C1147.25,115 1182.06,115 1216.86,115 " fill="none" id="RESTDataManager-PartyController" style="stroke: #383838; stroke-width: 1.0;"/><polygon fill="#383838" points="1107.31,115,1116.31,119,1112.31,115,1116.31,111,1107.31,115" style="stroke: #383838; stroke-width: 1.0;"/><text fill="#000000" font-family="sans-serif" font-size="13" lengthAdjust="spacingAndGlyphs" textLength="94" x="1114.8354" y="111.7873">- dataManager</text><!--link RESTDataManager to ProductController--><path d="M930.807,176.648 C929.659,190.059 928.441,204.284 927.288,217.739 " fill="none" id="RESTDataManager-ProductController" style="stroke: #383838; stroke-width: 1.0;"/><polygon fill="#383838" points="931.26,171.354,926.5057,179.9794,930.8328,176.3357,934.4765,180.6628,931.26,171.354" style="stroke: #383838; stroke-width: 1.0;"/><text fill="#000000" font-family="sans-serif" font-size="13" lengthAdjust="spacingAndGlyphs" textLength="94" x="830.9542" y="191.2098">- dataManager</text><!--link PartyController to Party--><path d="M1500.59,171.045 C1505.64,176.213 1510.17,181.851 1514,188 C1556.1,255.502 1567.84,308.434 1514,367 C1461.08,424.561 994.778,443.167 714.622,449.164 " fill="none" id="PartyController-Party" style="stroke: #383838; stroke-width: 1.0; stroke-dasharray: 7.0,7.0;"/><polygon fill="#383838" points="709.276,449.277,718.3586,453.0858,714.2749,449.1713,718.1894,445.0876,709.276,449.277" style="stroke: #383838; stroke-width: 1.0;"/><text fill="#000000" font-family="sans-serif" font-size="13" lengthAdjust="spacingAndGlyphs" textLength="32" x="1551" y="285.0669">Uses</text><!--link ProductController to Product--><path d="M764.775,280.5 C716.061,280.5 663.742,280.5 620.029,280.5 " fill="none" id="ProductController-Product" style="stroke: #383838; stroke-width: 1.0; stroke-dasharray: 7.0,7.0;"/><polygon fill="#383838" points="615.014,280.5,624.014,284.5,620.014,280.5,624.014,276.5,615.014,280.5" style="stroke: #383838; stroke-width: 1.0;"/><text fill="#000000" font-family="sans-serif" font-size="13" lengthAdjust="spacingAndGlyphs" textLength="32" x="674" y="273.5669">Uses</text><!--
@startuml
skinparam monochrome true
skinparam classAttributeIconSize 0
skinparam nodesep 110
skinparam ranksep 10

package Model {
	class Party {
		- id: int
		- name: String
		- date: Date
		- numberOfAttendees: int
		- balance: float
		+ Party(id, name, date, numberOfAttendees, balance)
		+ Party(name, date, normalBeerPrice, specialBeerPrice, servedBeers)
	}

	class Product {
		- id: int
		- name: String
		- price: float
		+ Product(id, name, price, type)
	}

	enum ProductType {
		BEER,
		DEPOSIT,
		FOOD
	}

	ProductType "- type" <- Product

	enum BeerCategory {
		NORMAL,
		SPECIAL
	}

	Product "- servedBeers: Map<Product, BeerCategory>" <- -o Party

	BeerCategory <. Party: Uses
}

package Controller {
	interface RESTDataManager {
		+ getObject(ressource: String): Map<String, Object>
		+ getArray(ressource: String): List<Object>
		+ post(resource: String, jsonObject: Map<String, Object>)
		+ put(resource: String, jsonObject: Map<String, Object)
		+ delete(resource: String): Map<String, Object>
	}

	class RESTfulDataManager {
		- host: String
		- port: String
		- authToken: String
		+ RESTfulDataManager(host, port, authToken)
	}

	RESTDataManager <|.. RESTfulDataManager
		

	class PartyController {
		+ PartyController(dataManager: RESTDataManager)
		+ getAllParties(): List<Party>
		+ addParty(party: Party): int
		+ editParty(party: Party)
		+ getParty(id: int): Party
	}

	RESTDataManager "- dataManager" <- PartyController

	class ProductController {
		+ ProductController(dataManager: RESTDataManager)
		+ getAllProducts(): List<Product>
		+ getProductsByType(type: string): List<Product>
		+ deleteProduct(id: int)
		+ addProduct(product: Product): int
		+ editProduct(product: Product)
	}

	RESTDataManager "- dataManager" <- - ProductController
}

PartyController .> Party: Uses
ProductController .> Product: Uses
@enduml

PlantUML version 1.2018.00(Thu Jan 04 19:42:56 UTC 2018)
(GPL source distribution)
Java Runtime: Java(TM) SE Runtime Environment
JVM: Java HotSpot(TM) 64-Bit Server VM
Java Version: 1.7.0_25-b15
Operating System: Linux
Default Encoding: UTF-8
Language: en
Country: US
--></g></svg>