<?xml version="1.0" encoding="UTF-8" standalone="no"?><svg xmlns="http://www.w3.org/2000/svg" xmlns:xlink="http://www.w3.org/1999/xlink" contentScriptType="application/ecmascript" contentStyleType="text/css" height="874px" preserveAspectRatio="none" style="width:1876px;height:874px;" version="1.1" viewBox="0 0 1876 874" width="1876px" zoomAndPan="magnify"><defs><filter height="300%" id="f10zy4j9ua1vff" width="300%" x="-1" y="-1"><feGaussianBlur result="blurOut" stdDeviation="2.0"/><feColorMatrix in="blurOut" result="blurOut2" type="matrix" values="0 0 0 0 0 0 0 0 0 0 0 0 0 0 0 0 0 0 .4 0"/><feOffset dx="4.0" dy="4.0" in="blurOut2" result="blurOut3"/><feBlend in="SourceGraphic" in2="blurOut3" mode="normal"/></filter></defs><g><!--cluster Model--><polygon fill="#FFFFFF" filter="url(#f10zy4j9ua1vff)" points="413,442,466,442,473,464.2969,1766,464.2969,1766,862,413,862,413,442" style="stroke: #000000; stroke-width: 1.5;"/><line style="stroke: #000000; stroke-width: 1.5;" x1="413" x2="473" y1="464.2969" y2="464.2969"/><text fill="#000000" font-family="sans-serif" font-size="14" font-weight="bold" lengthAdjust="spacingAndGlyphs" textLength="47" x="417" y="456.9951">Model</text><!--cluster Controller--><polygon fill="#FFFFFF" filter="url(#f10zy4j9ua1vff)" points="22,24,107,24,114,46.2969,1234,46.2969,1234,393,22,393,22,24" style="stroke: #000000; stroke-width: 1.5;"/><line style="stroke: #000000; stroke-width: 1.5;" x1="22" x2="114" y1="46.2969" y2="46.2969"/><text fill="#000000" font-family="sans-serif" font-size="14" font-weight="bold" lengthAdjust="spacingAndGlyphs" textLength="79" x="26" y="38.9951">Controller</text><!--class Party--><rect fill="#F8F8F8" filter="url(#f10zy4j9ua1vff)" height="163.2422" id="Party" style="stroke: #383838; stroke-width: 1.5;" width="428" x="1322" y="683"/><ellipse cx="1515.75" cy="699" fill="#C2C2C2" rx="11" ry="11" style="stroke: #383838; stroke-width: 1.0;"/><path d="M1518.0938,694.6719 L1518.2656,694.75 C1518.4844,694.4375 1518.6875,694.3438 1518.9844,694.3438 C1519.2813,694.3438 1519.5625,694.4844 1519.7188,694.75 C1519.8125,694.9063 1519.8281,695.0313 1519.8281,695.4688 L1519.8281,696.8906 C1519.8281,697.3125 1519.7969,697.5 1519.6875,697.6563 C1519.5156,697.875 1519.25,698.0156 1518.9844,698.0156 C1518.7656,698.0156 1518.5313,697.9063 1518.3906,697.7656 C1518.25,697.6406 1518.2188,697.5156 1518.1563,697.1094 C1518.0625,696.7031 1517.8906,696.4844 1517.4063,696.2031 C1516.9375,695.9531 1516.3281,695.7969 1515.75,695.7969 C1514.0156,695.7969 1512.7656,697.1094 1512.7656,698.8906 L1512.7656,699.9844 C1512.7656,701.6875 1514.0625,702.7813 1516.1094,702.7813 C1516.875,702.7813 1517.5625,702.6563 1517.9844,702.3906 C1518.1719,702.2969 1518.1719,702.2969 1518.625,701.8125 C1518.8125,701.625 1519.0156,701.5469 1519.2344,701.5469 C1519.7031,701.5469 1520.0938,701.9375 1520.0938,702.3906 C1520.0938,702.7813 1519.7656,703.2344 1519.1875,703.6406 C1518.4375,704.1875 1517.2813,704.4844 1516.0625,704.4844 C1513.1719,704.4844 1511.0625,702.5938 1511.0625,700.0156 L1511.0625,698.8906 C1511.0625,696.1719 1513.0625,694.0938 1515.6875,694.0938 C1516.5625,694.0938 1517.1563,694.2344 1518.0938,694.6719 Z "/><text fill="#000000" font-family="sans-serif" font-size="12" lengthAdjust="spacingAndGlyphs" textLength="32" x="1536.25" y="703.1543">Party</text><line style="stroke: #383838; stroke-width: 1.5;" x1="1323" x2="1749" y1="715" y2="715"/><text fill="#000000" font-family="sans-serif" font-size="11" lengthAdjust="spacingAndGlyphs" textLength="36" x="1328" y="729.2104">-id: int</text><text fill="#000000" font-family="sans-serif" font-size="11" lengthAdjust="spacingAndGlyphs" textLength="78" x="1328" y="742.0151">-name: String</text><text fill="#000000" font-family="sans-serif" font-size="11" lengthAdjust="spacingAndGlyphs" textLength="63" x="1328" y="754.8198">-date: Date</text><text fill="#000000" font-family="sans-serif" font-size="11" lengthAdjust="spacingAndGlyphs" textLength="140" x="1328" y="767.6245">-numberOfAttendees: int</text><text fill="#000000" font-family="sans-serif" font-size="11" lengthAdjust="spacingAndGlyphs" textLength="81" x="1328" y="780.4292">-balance: float</text><text fill="#000000" font-family="sans-serif" font-size="11" lengthAdjust="spacingAndGlyphs" textLength="132" x="1328" y="793.2339">-normalBeerPrice: float</text><text fill="#000000" font-family="sans-serif" font-size="11" lengthAdjust="spacingAndGlyphs" textLength="132" x="1328" y="806.0386">-specialBeerPrice: float</text><line style="stroke: #383838; stroke-width: 1.5;" x1="1323" x2="1749" y1="812.6328" y2="812.6328"/><text fill="#000000" font-family="sans-serif" font-size="11" lengthAdjust="spacingAndGlyphs" textLength="303" x="1328" y="826.8433">+Party(id, name, date, numberOfAttendees, balance)</text><text fill="#000000" font-family="sans-serif" font-size="11" lengthAdjust="spacingAndGlyphs" textLength="416" x="1328" y="839.6479">+Party(id, name, date, normalBeerPrice, specialBeerPrice, servedBeers)</text><!--class Product--><rect fill="#F8F8F8" filter="url(#f10zy4j9ua1vff)" height="99.2188" id="Product" style="stroke: #383838; stroke-width: 1.5;" width="190" x="1560" y="522"/><ellipse cx="1626.25" cy="538" fill="#C2C2C2" rx="11" ry="11" style="stroke: #383838; stroke-width: 1.0;"/><path d="M1628.5938,533.6719 L1628.7656,533.75 C1628.9844,533.4375 1629.1875,533.3438 1629.4844,533.3438 C1629.7813,533.3438 1630.0625,533.4844 1630.2188,533.75 C1630.3125,533.9063 1630.3281,534.0313 1630.3281,534.4688 L1630.3281,535.8906 C1630.3281,536.3125 1630.2969,536.5 1630.1875,536.6563 C1630.0156,536.875 1629.75,537.0156 1629.4844,537.0156 C1629.2656,537.0156 1629.0313,536.9063 1628.8906,536.7656 C1628.75,536.6406 1628.7188,536.5156 1628.6563,536.1094 C1628.5625,535.7031 1628.3906,535.4844 1627.9063,535.2031 C1627.4375,534.9531 1626.8281,534.7969 1626.25,534.7969 C1624.5156,534.7969 1623.2656,536.1094 1623.2656,537.8906 L1623.2656,538.9844 C1623.2656,540.6875 1624.5625,541.7813 1626.6094,541.7813 C1627.375,541.7813 1628.0625,541.6563 1628.4844,541.3906 C1628.6719,541.2969 1628.6719,541.2969 1629.125,540.8125 C1629.3125,540.625 1629.5156,540.5469 1629.7344,540.5469 C1630.2031,540.5469 1630.5938,540.9375 1630.5938,541.3906 C1630.5938,541.7813 1630.2656,542.2344 1629.6875,542.6406 C1628.9375,543.1875 1627.7813,543.4844 1626.5625,543.4844 C1623.6719,543.4844 1621.5625,541.5938 1621.5625,539.0156 L1621.5625,537.8906 C1621.5625,535.1719 1623.5625,533.0938 1626.1875,533.0938 C1627.0625,533.0938 1627.6563,533.2344 1628.5938,533.6719 Z "/><text fill="#000000" font-family="sans-serif" font-size="12" lengthAdjust="spacingAndGlyphs" textLength="49" x="1646.75" y="542.1543">Product</text><line style="stroke: #383838; stroke-width: 1.5;" x1="1561" x2="1749" y1="554" y2="554"/><text fill="#000000" font-family="sans-serif" font-size="11" lengthAdjust="spacingAndGlyphs" textLength="36" x="1566" y="568.2104">-id: int</text><text fill="#000000" font-family="sans-serif" font-size="11" lengthAdjust="spacingAndGlyphs" textLength="78" x="1566" y="581.0151">-name: String</text><text fill="#000000" font-family="sans-serif" font-size="11" lengthAdjust="spacingAndGlyphs" textLength="65" x="1566" y="593.8198">-price: float</text><line style="stroke: #383838; stroke-width: 1.5;" x1="1561" x2="1749" y1="600.4141" y2="600.4141"/><text fill="#000000" font-family="sans-serif" font-size="11" lengthAdjust="spacingAndGlyphs" textLength="178" x="1566" y="614.6245">+Product(id, name, price, type)</text><!--class ProductType--><rect fill="#F8F8F8" filter="url(#f10zy4j9ua1vff)" height="86.4141" id="ProductType" style="stroke: #383838; stroke-width: 1.5;" width="110" x="1340" y="528.5"/><ellipse cx="1355" cy="544.5" fill="#ABABAB" rx="11" ry="11" style="stroke: #383838; stroke-width: 1.0;"/><path d="M1353.2969,545.375 L1353.2969,547.7969 L1357.6563,547.7969 L1357.6563,546.9219 C1357.6563,546.4375 1357.6875,546.2969 1357.7969,546.1406 C1357.9688,545.8906 1358.2344,545.7813 1358.5,545.7813 C1358.7813,545.7813 1359.0625,545.9375 1359.2344,546.1875 C1359.3125,546.3438 1359.3438,546.4844 1359.3438,546.9219 L1359.3438,549.5 L1351.3438,549.5 C1350.9531,549.5 1350.7188,549.4531 1350.5781,549.3281 C1350.3594,549.1719 1350.2188,548.9219 1350.2188,548.6563 C1350.2188,548.3594 1350.375,548.0938 1350.625,547.9219 C1350.7813,547.8125 1350.9375,547.7969 1351.3438,547.7969 L1351.5938,547.7969 L1351.5938,541.2813 L1351.3438,541.2813 C1350.9219,541.2813 1350.7344,541.25 1350.5781,541.1406 C1350.3594,540.9688 1350.2188,540.7188 1350.2188,540.4375 C1350.2188,540.1563 1350.375,539.8594 1350.625,539.7031 C1350.7813,539.6094 1350.9063,539.5938 1351.3438,539.5938 L1358.9688,539.5938 L1358.9688,542.1406 C1358.9688,542.6094 1358.9375,542.75 1358.8281,542.9219 C1358.6563,543.1406 1358.3906,543.2813 1358.125,543.2813 C1357.8438,543.2813 1357.5625,543.125 1357.3906,542.875 C1357.3125,542.7188 1357.2813,542.5469 1357.2813,542.1406 L1357.2813,541.2813 L1353.2969,541.2813 L1353.2969,543.6875 L1354.75,543.6875 L1354.75,543.5625 C1354.75,543.1094 1354.7813,542.9531 1354.8906,542.7813 C1355.0625,542.5625 1355.3281,542.4219 1355.5781,542.4219 C1356.0313,542.4219 1356.3438,542.7344 1356.4063,543.2031 C1356.4219,543.3594 1356.4219,543.4063 1356.4219,543.5625 L1356.4219,545.4844 C1356.4219,545.9375 1356.3906,546.0938 1356.2656,546.25 C1356.1094,546.4688 1355.8438,546.6094 1355.5938,546.6094 C1355.2969,546.6094 1355.0156,546.4531 1354.8594,546.2031 C1354.7813,546.0469 1354.75,545.8906 1354.75,545.4844 L1354.75,545.375 Z "/><text fill="#000000" font-family="sans-serif" font-size="12" lengthAdjust="spacingAndGlyphs" textLength="78" x="1369" y="548.6543">ProductType</text><line style="stroke: #383838; stroke-width: 1.5;" x1="1341" x2="1449" y1="560.5" y2="560.5"/><text fill="#000000" font-family="sans-serif" font-size="11" lengthAdjust="spacingAndGlyphs" textLength="33" x="1346" y="574.7104">BEER,</text><text fill="#000000" font-family="sans-serif" font-size="11" lengthAdjust="spacingAndGlyphs" textLength="53" x="1346" y="587.5151">DEPOSIT,</text><text fill="#000000" font-family="sans-serif" font-size="11" lengthAdjust="spacingAndGlyphs" textLength="32" x="1346" y="600.3198">FOOD</text><line style="stroke: #383838; stroke-width: 1.5;" x1="1341" x2="1449" y1="606.9141" y2="606.9141"/><!--class BeerCategory--><rect fill="#F8F8F8" filter="url(#f10zy4j9ua1vff)" height="73.6094" id="BeerCategory" style="stroke: #383838; stroke-width: 1.5;" width="117" x="1061.5" y="727.5"/><ellipse cx="1076.5" cy="743.5" fill="#ABABAB" rx="11" ry="11" style="stroke: #383838; stroke-width: 1.0;"/><path d="M1074.7969,744.375 L1074.7969,746.7969 L1079.1563,746.7969 L1079.1563,745.9219 C1079.1563,745.4375 1079.1875,745.2969 1079.2969,745.1406 C1079.4688,744.8906 1079.7344,744.7813 1080,744.7813 C1080.2813,744.7813 1080.5625,744.9375 1080.7344,745.1875 C1080.8125,745.3438 1080.8438,745.4844 1080.8438,745.9219 L1080.8438,748.5 L1072.8438,748.5 C1072.4531,748.5 1072.2188,748.4531 1072.0781,748.3281 C1071.8594,748.1719 1071.7188,747.9219 1071.7188,747.6563 C1071.7188,747.3594 1071.875,747.0938 1072.125,746.9219 C1072.2813,746.8125 1072.4375,746.7969 1072.8438,746.7969 L1073.0938,746.7969 L1073.0938,740.2813 L1072.8438,740.2813 C1072.4219,740.2813 1072.2344,740.25 1072.0781,740.1406 C1071.8594,739.9688 1071.7188,739.7188 1071.7188,739.4375 C1071.7188,739.1563 1071.875,738.8594 1072.125,738.7031 C1072.2813,738.6094 1072.4063,738.5938 1072.8438,738.5938 L1080.4688,738.5938 L1080.4688,741.1406 C1080.4688,741.6094 1080.4375,741.75 1080.3281,741.9219 C1080.1563,742.1406 1079.8906,742.2813 1079.625,742.2813 C1079.3438,742.2813 1079.0625,742.125 1078.8906,741.875 C1078.8125,741.7188 1078.7813,741.5469 1078.7813,741.1406 L1078.7813,740.2813 L1074.7969,740.2813 L1074.7969,742.6875 L1076.25,742.6875 L1076.25,742.5625 C1076.25,742.1094 1076.2813,741.9531 1076.3906,741.7813 C1076.5625,741.5625 1076.8281,741.4219 1077.0781,741.4219 C1077.5313,741.4219 1077.8438,741.7344 1077.9063,742.2031 C1077.9219,742.3594 1077.9219,742.4063 1077.9219,742.5625 L1077.9219,744.4844 C1077.9219,744.9375 1077.8906,745.0938 1077.7656,745.25 C1077.6094,745.4688 1077.3438,745.6094 1077.0938,745.6094 C1076.7969,745.6094 1076.5156,745.4531 1076.3594,745.2031 C1076.2813,745.0469 1076.25,744.8906 1076.25,744.4844 L1076.25,744.375 Z "/><text fill="#000000" font-family="sans-serif" font-size="12" lengthAdjust="spacingAndGlyphs" textLength="85" x="1090.5" y="747.6543">BeerCategory</text><line style="stroke: #383838; stroke-width: 1.5;" x1="1062.5" x2="1177.5" y1="759.5" y2="759.5"/><text fill="#000000" font-family="sans-serif" font-size="11" lengthAdjust="spacingAndGlyphs" textLength="50" x="1067.5" y="773.7104">NORMAL,</text><text fill="#000000" font-family="sans-serif" font-size="11" lengthAdjust="spacingAndGlyphs" textLength="46" x="1067.5" y="786.5151">SPECIAL</text><line style="stroke: #383838; stroke-width: 1.5;" x1="1062.5" x2="1177.5" y1="793.1094" y2="793.1094"/><!--class Member--><rect fill="#F8F8F8" filter="url(#f10zy4j9ua1vff)" height="188.8516" id="Member" style="stroke: #383838; stroke-width: 1.5;" width="485" x="429.5" y="477"/><ellipse cx="642.75" cy="493" fill="#C2C2C2" rx="11" ry="11" style="stroke: #383838; stroke-width: 1.0;"/><path d="M645.0938,488.6719 L645.2656,488.75 C645.4844,488.4375 645.6875,488.3438 645.9844,488.3438 C646.2813,488.3438 646.5625,488.4844 646.7188,488.75 C646.8125,488.9063 646.8281,489.0313 646.8281,489.4688 L646.8281,490.8906 C646.8281,491.3125 646.7969,491.5 646.6875,491.6563 C646.5156,491.875 646.25,492.0156 645.9844,492.0156 C645.7656,492.0156 645.5313,491.9063 645.3906,491.7656 C645.25,491.6406 645.2188,491.5156 645.1563,491.1094 C645.0625,490.7031 644.8906,490.4844 644.4063,490.2031 C643.9375,489.9531 643.3281,489.7969 642.75,489.7969 C641.0156,489.7969 639.7656,491.1094 639.7656,492.8906 L639.7656,493.9844 C639.7656,495.6875 641.0625,496.7813 643.1094,496.7813 C643.875,496.7813 644.5625,496.6563 644.9844,496.3906 C645.1719,496.2969 645.1719,496.2969 645.625,495.8125 C645.8125,495.625 646.0156,495.5469 646.2344,495.5469 C646.7031,495.5469 647.0938,495.9375 647.0938,496.3906 C647.0938,496.7813 646.7656,497.2344 646.1875,497.6406 C645.4375,498.1875 644.2813,498.4844 643.0625,498.4844 C640.1719,498.4844 638.0625,496.5938 638.0625,494.0156 L638.0625,492.8906 C638.0625,490.1719 640.0625,488.0938 642.6875,488.0938 C643.5625,488.0938 644.1563,488.2344 645.0938,488.6719 Z "/><text fill="#000000" font-family="sans-serif" font-size="12" lengthAdjust="spacingAndGlyphs" textLength="50" x="663.25" y="497.1543">Member</text><line style="stroke: #383838; stroke-width: 1.5;" x1="430.5" x2="913.5" y1="509" y2="509"/><text fill="#000000" font-family="sans-serif" font-size="11" lengthAdjust="spacingAndGlyphs" textLength="36" x="435.5" y="523.2104">-id: int</text><text fill="#000000" font-family="sans-serif" font-size="11" lengthAdjust="spacingAndGlyphs" textLength="102" x="435.5" y="536.0151">-firstName: String</text><text fill="#000000" font-family="sans-serif" font-size="11" lengthAdjust="spacingAndGlyphs" textLength="100" x="435.5" y="548.8198">-lastName: String</text><text fill="#000000" font-family="sans-serif" font-size="11" lengthAdjust="spacingAndGlyphs" textLength="81" x="435.5" y="561.6245">-balance: float</text><text fill="#000000" font-family="sans-serif" font-size="11" lengthAdjust="spacingAndGlyphs" textLength="178" x="435.5" y="574.4292">-lastMembershipPayment: Date</text><text fill="#000000" font-family="sans-serif" font-size="11" lengthAdjust="spacingAndGlyphs" textLength="123" x="435.5" y="587.2339">-formerStaff: boolean</text><text fill="#000000" font-family="sans-serif" font-size="11" lengthAdjust="spacingAndGlyphs" textLength="77" x="435.5" y="600.0386">-email: String</text><text fill="#000000" font-family="sans-serif" font-size="11" lengthAdjust="spacingAndGlyphs" textLength="81" x="435.5" y="612.8433">-phone: String</text><line style="stroke: #383838; stroke-width: 1.5;" x1="430.5" x2="913.5" y1="619.4375" y2="619.4375"/><text fill="#000000" font-family="sans-serif" font-size="11" lengthAdjust="spacingAndGlyphs" textLength="473" x="435.5" y="633.6479">+Member(id, firstName, lastName, balance, lastMembershipPayment, formerStaff)</text><text fill="#000000" font-family="sans-serif" font-size="11" lengthAdjust="spacingAndGlyphs" textLength="0" x="439.5" y="646.4526"/><text fill="#000000" font-family="sans-serif" font-size="11" lengthAdjust="spacingAndGlyphs" textLength="178" x="435.5" y="659.2573">+isMembershipValid(): Boolean</text><!--class School--><rect fill="#F8F8F8" filter="url(#f10zy4j9ua1vff)" height="150.4375" id="School" style="stroke: #383838; stroke-width: 1.5;" width="205" x="1024.5" y="496.5"/><ellipse cx="1101.75" cy="512.5" fill="#ABABAB" rx="11" ry="11" style="stroke: #383838; stroke-width: 1.0;"/><path d="M1100.0469,513.375 L1100.0469,515.7969 L1104.4063,515.7969 L1104.4063,514.9219 C1104.4063,514.4375 1104.4375,514.2969 1104.5469,514.1406 C1104.7188,513.8906 1104.9844,513.7813 1105.25,513.7813 C1105.5313,513.7813 1105.8125,513.9375 1105.9844,514.1875 C1106.0625,514.3438 1106.0938,514.4844 1106.0938,514.9219 L1106.0938,517.5 L1098.0938,517.5 C1097.7031,517.5 1097.4688,517.4531 1097.3281,517.3281 C1097.1094,517.1719 1096.9688,516.9219 1096.9688,516.6563 C1096.9688,516.3594 1097.125,516.0938 1097.375,515.9219 C1097.5313,515.8125 1097.6875,515.7969 1098.0938,515.7969 L1098.3438,515.7969 L1098.3438,509.2813 L1098.0938,509.2813 C1097.6719,509.2813 1097.4844,509.25 1097.3281,509.1406 C1097.1094,508.9688 1096.9688,508.7188 1096.9688,508.4375 C1096.9688,508.1563 1097.125,507.8594 1097.375,507.7031 C1097.5313,507.6094 1097.6563,507.5938 1098.0938,507.5938 L1105.7188,507.5938 L1105.7188,510.1406 C1105.7188,510.6094 1105.6875,510.75 1105.5781,510.9219 C1105.4063,511.1406 1105.1406,511.2813 1104.875,511.2813 C1104.5938,511.2813 1104.3125,511.125 1104.1406,510.875 C1104.0625,510.7188 1104.0313,510.5469 1104.0313,510.1406 L1104.0313,509.2813 L1100.0469,509.2813 L1100.0469,511.6875 L1101.5,511.6875 L1101.5,511.5625 C1101.5,511.1094 1101.5313,510.9531 1101.6406,510.7813 C1101.8125,510.5625 1102.0781,510.4219 1102.3281,510.4219 C1102.7813,510.4219 1103.0938,510.7344 1103.1563,511.2031 C1103.1719,511.3594 1103.1719,511.4063 1103.1719,511.5625 L1103.1719,513.4844 C1103.1719,513.9375 1103.1406,514.0938 1103.0156,514.25 C1102.8594,514.4688 1102.5938,514.6094 1102.3438,514.6094 C1102.0469,514.6094 1101.7656,514.4531 1101.6094,514.2031 C1101.5313,514.0469 1101.5,513.8906 1101.5,513.4844 L1101.5,513.375 Z "/><text fill="#000000" font-family="sans-serif" font-size="12" lengthAdjust="spacingAndGlyphs" textLength="42" x="1122.25" y="516.6543">School</text><line style="stroke: #383838; stroke-width: 1.5;" x1="1025.5" x2="1228.5" y1="528.5" y2="528.5"/><text fill="#000000" font-family="sans-serif" font-size="11" lengthAdjust="spacingAndGlyphs" textLength="26" x="1030.5" y="542.7104">CPP,</text><text fill="#000000" font-family="sans-serif" font-size="11" lengthAdjust="spacingAndGlyphs" textLength="41" x="1030.5" y="555.5151">ENSE3,</text><text fill="#000000" font-family="sans-serif" font-size="11" lengthAdjust="spacingAndGlyphs" textLength="55" x="1030.5" y="568.3198">ENSIMAG,</text><text fill="#000000" font-family="sans-serif" font-size="11" lengthAdjust="spacingAndGlyphs" textLength="44" x="1030.5" y="581.1245">ESISAR,</text><text fill="#000000" font-family="sans-serif" font-size="11" lengthAdjust="spacingAndGlyphs" textLength="16" x="1030.5" y="593.9292">GI,</text><text fill="#000000" font-family="sans-serif" font-size="11" lengthAdjust="spacingAndGlyphs" textLength="39" x="1030.5" y="606.7339">PAPET,</text><text fill="#000000" font-family="sans-serif" font-size="11" lengthAdjust="spacingAndGlyphs" textLength="44" x="1030.5" y="619.5386">PHELMA</text><line style="stroke: #383838; stroke-width: 1.5;" x1="1025.5" x2="1228.5" y1="626.1328" y2="626.1328"/><text fill="#000000" font-family="sans-serif" font-size="11" lengthAdjust="spacingAndGlyphs" text-decoration="underline" textLength="193" x="1030.5" y="640.3433">+getSchool(name: String): School</text><line style="stroke: #000000; stroke-width: 1.0;" x1="1030.5" x2="1223.5" y1="642.3433" y2="642.3433"/><!--class Transaction--><rect fill="#F8F8F8" filter="url(#f10zy4j9ua1vff)" height="112.0234" id="Transaction" style="stroke: #383838; stroke-width: 1.5;" width="345" x="499.5" y="708.5"/><ellipse cx="630.75" cy="724.5" fill="#C2C2C2" rx="11" ry="11" style="stroke: #383838; stroke-width: 1.0;"/><path d="M633.0938,720.1719 L633.2656,720.25 C633.4844,719.9375 633.6875,719.8438 633.9844,719.8438 C634.2813,719.8438 634.5625,719.9844 634.7188,720.25 C634.8125,720.4063 634.8281,720.5313 634.8281,720.9688 L634.8281,722.3906 C634.8281,722.8125 634.7969,723 634.6875,723.1563 C634.5156,723.375 634.25,723.5156 633.9844,723.5156 C633.7656,723.5156 633.5313,723.4063 633.3906,723.2656 C633.25,723.1406 633.2188,723.0156 633.1563,722.6094 C633.0625,722.2031 632.8906,721.9844 632.4063,721.7031 C631.9375,721.4531 631.3281,721.2969 630.75,721.2969 C629.0156,721.2969 627.7656,722.6094 627.7656,724.3906 L627.7656,725.4844 C627.7656,727.1875 629.0625,728.2813 631.1094,728.2813 C631.875,728.2813 632.5625,728.1563 632.9844,727.8906 C633.1719,727.7969 633.1719,727.7969 633.625,727.3125 C633.8125,727.125 634.0156,727.0469 634.2344,727.0469 C634.7031,727.0469 635.0938,727.4375 635.0938,727.8906 C635.0938,728.2813 634.7656,728.7344 634.1875,729.1406 C633.4375,729.6875 632.2813,729.9844 631.0625,729.9844 C628.1719,729.9844 626.0625,728.0938 626.0625,725.5156 L626.0625,724.3906 C626.0625,721.6719 628.0625,719.5938 630.6875,719.5938 C631.5625,719.5938 632.1563,719.7344 633.0938,720.1719 Z "/><text fill="#000000" font-family="sans-serif" font-size="12" lengthAdjust="spacingAndGlyphs" textLength="74" x="651.25" y="728.6543">Transaction</text><line style="stroke: #383838; stroke-width: 1.5;" x1="500.5" x2="843.5" y1="740.5" y2="740.5"/><text fill="#000000" font-family="sans-serif" font-size="11" lengthAdjust="spacingAndGlyphs" textLength="36" x="505.5" y="754.7104">-id: int</text><text fill="#000000" font-family="sans-serif" font-size="11" lengthAdjust="spacingAndGlyphs" textLength="73" x="505.5" y="767.5151">-label: String</text><text fill="#000000" font-family="sans-serif" font-size="11" lengthAdjust="spacingAndGlyphs" textLength="99" x="505.5" y="780.3198">-timestamp: Date</text><text fill="#000000" font-family="sans-serif" font-size="11" lengthAdjust="spacingAndGlyphs" textLength="80" x="505.5" y="793.1245">-amount: float</text><line style="stroke: #383838; stroke-width: 1.5;" x1="500.5" x2="843.5" y1="799.7188" y2="799.7188"/><text fill="#000000" font-family="sans-serif" font-size="11" lengthAdjust="spacingAndGlyphs" textLength="333" x="505.5" y="813.9292">Transaction(id, label, timestamp, amount, party, member)</text><!--class RESTDataManager--><rect fill="#F8F8F8" filter="url(#f10zy4j9ua1vff)" height="112.0234" id="RESTDataManager" style="stroke: #383838; stroke-width: 1.5;" width="342" x="38" y="91"/><ellipse cx="146.75" cy="107" fill="#B1B1B1" rx="11" ry="11" style="stroke: #383838; stroke-width: 1.0;"/><path d="M147.7031,103.7813 L147.7031,110.2969 L149.4219,110.2969 C149.875,110.2969 150.0156,110.3281 150.1875,110.4531 C150.4219,110.625 150.5313,110.875 150.5313,111.1563 C150.5313,111.7188 150.1719,112 149.4219,112 L144.2813,112 C143.875,112 143.6719,111.9531 143.5156,111.8281 C143.2969,111.6719 143.1563,111.4063 143.1563,111.1563 C143.1563,110.8594 143.3125,110.5781 143.5625,110.4219 C143.7188,110.3125 143.8438,110.2969 144.2813,110.2969 L146,110.2969 L146,103.7813 L144.2813,103.7813 C143.8594,103.7813 143.6719,103.75 143.5156,103.6406 C143.2969,103.4688 143.1563,103.2188 143.1563,102.9375 C143.1563,102.6563 143.3125,102.3594 143.5625,102.2031 C143.7188,102.1094 143.8438,102.0938 144.2813,102.0938 L149.4219,102.0938 C149.875,102.0938 150.0156,102.125 150.1875,102.2344 C150.4219,102.4063 150.5313,102.6719 150.5313,102.9375 C150.5313,103.2344 150.3906,103.5156 150.125,103.6719 C150,103.75 149.8125,103.7813 149.4219,103.7813 Z "/><text fill="#000000" font-family="sans-serif" font-size="12" font-style="italic" lengthAdjust="spacingAndGlyphs" textLength="116" x="167.25" y="111.1543">RESTDataManager</text><line style="stroke: #383838; stroke-width: 1.5;" x1="39" x2="379" y1="123" y2="123"/><line style="stroke: #383838; stroke-width: 1.5;" x1="39" x2="379" y1="131" y2="131"/><text fill="#000000" font-family="sans-serif" font-size="11" lengthAdjust="spacingAndGlyphs" textLength="298" x="44" y="145.2104">+getObject(ressource: String): Map&lt;String, Object&gt;</text><text fill="#000000" font-family="sans-serif" font-size="11" lengthAdjust="spacingAndGlyphs" textLength="247" x="44" y="158.0151">+getArray(ressource: String): List&lt;Object&gt;</text><text fill="#000000" font-family="sans-serif" font-size="11" lengthAdjust="spacingAndGlyphs" textLength="330" x="44" y="170.8198">+post(resource: String, jsonObject: Map&lt;String, Object&gt;)</text><text fill="#000000" font-family="sans-serif" font-size="11" lengthAdjust="spacingAndGlyphs" textLength="314" x="44" y="183.6245">+put(resource: String, jsonObject: Map&lt;String, Object)</text><text fill="#000000" font-family="sans-serif" font-size="11" lengthAdjust="spacingAndGlyphs" textLength="272" x="44" y="196.4292">+delete(resource: String): Map&lt;String, Object&gt;</text><!--class RESTfulDataManager--><rect fill="#F8F8F8" filter="url(#f10zy4j9ua1vff)" height="99.2188" id="RESTfulDataManager" style="stroke: #383838; stroke-width: 1.5;" width="270" x="38" y="265"/><ellipse cx="103.25" cy="281" fill="#C2C2C2" rx="11" ry="11" style="stroke: #383838; stroke-width: 1.0;"/><path d="M105.5938,276.6719 L105.7656,276.75 C105.9844,276.4375 106.1875,276.3438 106.4844,276.3438 C106.7813,276.3438 107.0625,276.4844 107.2188,276.75 C107.3125,276.9063 107.3281,277.0313 107.3281,277.4688 L107.3281,278.8906 C107.3281,279.3125 107.2969,279.5 107.1875,279.6563 C107.0156,279.875 106.75,280.0156 106.4844,280.0156 C106.2656,280.0156 106.0313,279.9063 105.8906,279.7656 C105.75,279.6406 105.7188,279.5156 105.6563,279.1094 C105.5625,278.7031 105.3906,278.4844 104.9063,278.2031 C104.4375,277.9531 103.8281,277.7969 103.25,277.7969 C101.5156,277.7969 100.2656,279.1094 100.2656,280.8906 L100.2656,281.9844 C100.2656,283.6875 101.5625,284.7813 103.6094,284.7813 C104.375,284.7813 105.0625,284.6563 105.4844,284.3906 C105.6719,284.2969 105.6719,284.2969 106.125,283.8125 C106.3125,283.625 106.5156,283.5469 106.7344,283.5469 C107.2031,283.5469 107.5938,283.9375 107.5938,284.3906 C107.5938,284.7813 107.2656,285.2344 106.6875,285.6406 C105.9375,286.1875 104.7813,286.4844 103.5625,286.4844 C100.6719,286.4844 98.5625,284.5938 98.5625,282.0156 L98.5625,280.8906 C98.5625,278.1719 100.5625,276.0938 103.1875,276.0938 C104.0625,276.0938 104.6563,276.2344 105.5938,276.6719 Z "/><text fill="#000000" font-family="sans-serif" font-size="12" lengthAdjust="spacingAndGlyphs" textLength="131" x="123.75" y="285.1543">RESTfulDataManager</text><line style="stroke: #383838; stroke-width: 1.5;" x1="39" x2="307" y1="297" y2="297"/><text fill="#000000" font-family="sans-serif" font-size="11" lengthAdjust="spacingAndGlyphs" textLength="71" x="44" y="311.2104">-host: String</text><text fill="#000000" font-family="sans-serif" font-size="11" lengthAdjust="spacingAndGlyphs" textLength="69" x="44" y="324.0151">-port: String</text><text fill="#000000" font-family="sans-serif" font-size="11" lengthAdjust="spacingAndGlyphs" textLength="105" x="44" y="336.8198">-authToken: String</text><line style="stroke: #383838; stroke-width: 1.5;" x1="39" x2="307" y1="343.4141" y2="343.4141"/><text fill="#000000" font-family="sans-serif" font-size="11" lengthAdjust="spacingAndGlyphs" textLength="258" x="44" y="357.6245">+RESTfulDataManager(host, port, authToken)</text><!--class PartyController--><rect fill="#F8F8F8" filter="url(#f10zy4j9ua1vff)" height="176.0469" id="PartyController" style="stroke: #383838; stroke-width: 1.5;" width="300" x="918" y="59"/><ellipse cx="1017.25" cy="75" fill="#C2C2C2" rx="11" ry="11" style="stroke: #383838; stroke-width: 1.0;"/><path d="M1019.5938,70.6719 L1019.7656,70.75 C1019.9844,70.4375 1020.1875,70.3438 1020.4844,70.3438 C1020.7813,70.3438 1021.0625,70.4844 1021.2188,70.75 C1021.3125,70.9063 1021.3281,71.0313 1021.3281,71.4688 L1021.3281,72.8906 C1021.3281,73.3125 1021.2969,73.5 1021.1875,73.6563 C1021.0156,73.875 1020.75,74.0156 1020.4844,74.0156 C1020.2656,74.0156 1020.0313,73.9063 1019.8906,73.7656 C1019.75,73.6406 1019.7188,73.5156 1019.6563,73.1094 C1019.5625,72.7031 1019.3906,72.4844 1018.9063,72.2031 C1018.4375,71.9531 1017.8281,71.7969 1017.25,71.7969 C1015.5156,71.7969 1014.2656,73.1094 1014.2656,74.8906 L1014.2656,75.9844 C1014.2656,77.6875 1015.5625,78.7813 1017.6094,78.7813 C1018.375,78.7813 1019.0625,78.6563 1019.4844,78.3906 C1019.6719,78.2969 1019.6719,78.2969 1020.125,77.8125 C1020.3125,77.625 1020.5156,77.5469 1020.7344,77.5469 C1021.2031,77.5469 1021.5938,77.9375 1021.5938,78.3906 C1021.5938,78.7813 1021.2656,79.2344 1020.6875,79.6406 C1019.9375,80.1875 1018.7813,80.4844 1017.5625,80.4844 C1014.6719,80.4844 1012.5625,78.5938 1012.5625,76.0156 L1012.5625,74.8906 C1012.5625,72.1719 1014.5625,70.0938 1017.1875,70.0938 C1018.0625,70.0938 1018.6563,70.2344 1019.5938,70.6719 Z "/><text fill="#000000" font-family="sans-serif" font-size="12" lengthAdjust="spacingAndGlyphs" textLength="93" x="1037.75" y="79.1543">PartyController</text><line style="stroke: #383838; stroke-width: 1.5;" x1="919" x2="1217" y1="91" y2="91"/><line style="stroke: #383838; stroke-width: 1.5;" x1="919" x2="1217" y1="99" y2="99"/><text fill="#000000" font-family="sans-serif" font-size="11" lengthAdjust="spacingAndGlyphs" textLength="288" x="924" y="113.2104">+PartyController(dataManager: RESTDataManager)</text><text fill="#000000" font-family="sans-serif" font-size="11" lengthAdjust="spacingAndGlyphs" textLength="163" x="924" y="126.0151">+getAllParties(): List&lt;Party&gt;</text><text fill="#000000" font-family="sans-serif" font-size="11" lengthAdjust="spacingAndGlyphs" textLength="155" x="924" y="138.8198">+addParty(party: Party): int</text><text fill="#000000" font-family="sans-serif" font-size="11" lengthAdjust="spacingAndGlyphs" textLength="133" x="924" y="151.6245">+editParty(party: Party)</text><text fill="#000000" font-family="sans-serif" font-size="11" lengthAdjust="spacingAndGlyphs" textLength="133" x="924" y="164.4292">+getParty(id: int): Party</text><text fill="#000000" font-family="sans-serif" font-size="11" lengthAdjust="spacingAndGlyphs" textLength="113" x="924" y="177.2339">+deleteParty(id: int)</text><text fill="#000000" font-family="sans-serif" font-size="11" lengthAdjust="spacingAndGlyphs" textLength="204" x="924" y="190.0386">+getDefaultNormalBeerPrice(): float</text><text fill="#000000" font-family="sans-serif" font-size="11" lengthAdjust="spacingAndGlyphs" textLength="255" x="924" y="202.8433">+setDefaultNormalBeerPrice(newPrice: float)</text><text fill="#000000" font-family="sans-serif" font-size="11" lengthAdjust="spacingAndGlyphs" textLength="204" x="924" y="215.6479">+getDefaultSpecialBeerPrice(): float</text><text fill="#000000" font-family="sans-serif" font-size="11" lengthAdjust="spacingAndGlyphs" textLength="255" x="924" y="228.4526">+setDefaultSpecialBeerPrice(newPrice: float)</text><!--class ProductController--><rect fill="#F8F8F8" filter="url(#f10zy4j9ua1vff)" height="124.8281" id="ProductController" style="stroke: #383838; stroke-width: 1.5;" width="314" x="876" y="252"/><ellipse cx="973.75" cy="268" fill="#C2C2C2" rx="11" ry="11" style="stroke: #383838; stroke-width: 1.0;"/><path d="M976.0938,263.6719 L976.2656,263.75 C976.4844,263.4375 976.6875,263.3438 976.9844,263.3438 C977.2813,263.3438 977.5625,263.4844 977.7188,263.75 C977.8125,263.9063 977.8281,264.0313 977.8281,264.4688 L977.8281,265.8906 C977.8281,266.3125 977.7969,266.5 977.6875,266.6563 C977.5156,266.875 977.25,267.0156 976.9844,267.0156 C976.7656,267.0156 976.5313,266.9063 976.3906,266.7656 C976.25,266.6406 976.2188,266.5156 976.1563,266.1094 C976.0625,265.7031 975.8906,265.4844 975.4063,265.2031 C974.9375,264.9531 974.3281,264.7969 973.75,264.7969 C972.0156,264.7969 970.7656,266.1094 970.7656,267.8906 L970.7656,268.9844 C970.7656,270.6875 972.0625,271.7813 974.1094,271.7813 C974.875,271.7813 975.5625,271.6563 975.9844,271.3906 C976.1719,271.2969 976.1719,271.2969 976.625,270.8125 C976.8125,270.625 977.0156,270.5469 977.2344,270.5469 C977.7031,270.5469 978.0938,270.9375 978.0938,271.3906 C978.0938,271.7813 977.7656,272.2344 977.1875,272.6406 C976.4375,273.1875 975.2813,273.4844 974.0625,273.4844 C971.1719,273.4844 969.0625,271.5938 969.0625,269.0156 L969.0625,267.8906 C969.0625,265.1719 971.0625,263.0938 973.6875,263.0938 C974.5625,263.0938 975.1563,263.2344 976.0938,263.6719 Z "/><text fill="#000000" font-family="sans-serif" font-size="12" lengthAdjust="spacingAndGlyphs" textLength="110" x="994.25" y="272.1543">ProductController</text><line style="stroke: #383838; stroke-width: 1.5;" x1="877" x2="1189" y1="284" y2="284"/><line style="stroke: #383838; stroke-width: 1.5;" x1="877" x2="1189" y1="292" y2="292"/><text fill="#000000" font-family="sans-serif" font-size="11" lengthAdjust="spacingAndGlyphs" textLength="302" x="882" y="306.2104">+ProductController(dataManager: RESTDataManager)</text><text fill="#000000" font-family="sans-serif" font-size="11" lengthAdjust="spacingAndGlyphs" textLength="187" x="882" y="319.0151">+getAllProducts(): List&lt;Product&gt;</text><text fill="#000000" font-family="sans-serif" font-size="11" lengthAdjust="spacingAndGlyphs" textLength="280" x="882" y="331.8198">+getProductsByType(type: string): List&lt;Product&gt;</text><text fill="#000000" font-family="sans-serif" font-size="11" lengthAdjust="spacingAndGlyphs" textLength="127" x="882" y="344.6245">+deleteProduct(id: int)</text><text fill="#000000" font-family="sans-serif" font-size="11" lengthAdjust="spacingAndGlyphs" textLength="197" x="882" y="357.4292">+addProduct(product: Product): int</text><text fill="#000000" font-family="sans-serif" font-size="11" lengthAdjust="spacingAndGlyphs" textLength="175" x="882" y="370.2339">+editProduct(product: Product)</text><!--class MemberController--><rect fill="#F8F8F8" filter="url(#f10zy4j9ua1vff)" height="150.4375" id="MemberController" style="stroke: #383838; stroke-width: 1.5;" width="317" x="490.5" y="72"/><ellipse cx="589.25" cy="88" fill="#C2C2C2" rx="11" ry="11" style="stroke: #383838; stroke-width: 1.0;"/><path d="M591.5938,83.6719 L591.7656,83.75 C591.9844,83.4375 592.1875,83.3438 592.4844,83.3438 C592.7813,83.3438 593.0625,83.4844 593.2188,83.75 C593.3125,83.9063 593.3281,84.0313 593.3281,84.4688 L593.3281,85.8906 C593.3281,86.3125 593.2969,86.5 593.1875,86.6563 C593.0156,86.875 592.75,87.0156 592.4844,87.0156 C592.2656,87.0156 592.0313,86.9063 591.8906,86.7656 C591.75,86.6406 591.7188,86.5156 591.6563,86.1094 C591.5625,85.7031 591.3906,85.4844 590.9063,85.2031 C590.4375,84.9531 589.8281,84.7969 589.25,84.7969 C587.5156,84.7969 586.2656,86.1094 586.2656,87.8906 L586.2656,88.9844 C586.2656,90.6875 587.5625,91.7813 589.6094,91.7813 C590.375,91.7813 591.0625,91.6563 591.4844,91.3906 C591.6719,91.2969 591.6719,91.2969 592.125,90.8125 C592.3125,90.625 592.5156,90.5469 592.7344,90.5469 C593.2031,90.5469 593.5938,90.9375 593.5938,91.3906 C593.5938,91.7813 593.2656,92.2344 592.6875,92.6406 C591.9375,93.1875 590.7813,93.4844 589.5625,93.4844 C586.6719,93.4844 584.5625,91.5938 584.5625,89.0156 L584.5625,87.8906 C584.5625,85.1719 586.5625,83.0938 589.1875,83.0938 C590.0625,83.0938 590.6563,83.2344 591.5938,83.6719 Z "/><text fill="#000000" font-family="sans-serif" font-size="12" lengthAdjust="spacingAndGlyphs" textLength="111" x="609.75" y="92.1543">MemberController</text><line style="stroke: #383838; stroke-width: 1.5;" x1="491.5" x2="806.5" y1="104" y2="104"/><line style="stroke: #383838; stroke-width: 1.5;" x1="491.5" x2="806.5" y1="112" y2="112"/><text fill="#000000" font-family="sans-serif" font-size="11" lengthAdjust="spacingAndGlyphs" textLength="305" x="496.5" y="126.2104">+MemberController(dataManager: RESTDataManager)</text><text fill="#000000" font-family="sans-serif" font-size="11" lengthAdjust="spacingAndGlyphs" textLength="193" x="496.5" y="139.0151">+getAllMembers(): List&lt;Member&gt;</text><text fill="#000000" font-family="sans-serif" font-size="11" lengthAdjust="spacingAndGlyphs" textLength="213" x="496.5" y="151.8198">+getBalanceTooLowThreshold(): float</text><text fill="#000000" font-family="sans-serif" font-size="11" lengthAdjust="spacingAndGlyphs" textLength="293" x="496.5" y="164.6245">+setBalanceTooLowThreshold(newThreshold: float)</text><text fill="#000000" font-family="sans-serif" font-size="11" lengthAdjust="spacingAndGlyphs" textLength="167" x="496.5" y="177.4292">+getMember(id: int): Member</text><text fill="#000000" font-family="sans-serif" font-size="11" lengthAdjust="spacingAndGlyphs" textLength="130" x="496.5" y="190.2339">+deleteMember(id: int)</text><text fill="#000000" font-family="sans-serif" font-size="11" lengthAdjust="spacingAndGlyphs" textLength="208" x="496.5" y="203.0386">+addMember(member: Member): int</text><text fill="#000000" font-family="sans-serif" font-size="11" lengthAdjust="spacingAndGlyphs" textLength="154" x="496.5" y="215.8433">+renewMembership(id: int)</text><!--class TransactionController--><rect fill="#F8F8F8" filter="url(#f10zy4j9ua1vff)" height="73.6094" id="TransactionController" style="stroke: #383838; stroke-width: 1.5;" width="347" x="418.5" y="277.5"/><ellipse cx="520.25" cy="293.5" fill="#C2C2C2" rx="11" ry="11" style="stroke: #383838; stroke-width: 1.0;"/><path d="M522.5938,289.1719 L522.7656,289.25 C522.9844,288.9375 523.1875,288.8438 523.4844,288.8438 C523.7813,288.8438 524.0625,288.9844 524.2188,289.25 C524.3125,289.4063 524.3281,289.5313 524.3281,289.9688 L524.3281,291.3906 C524.3281,291.8125 524.2969,292 524.1875,292.1563 C524.0156,292.375 523.75,292.5156 523.4844,292.5156 C523.2656,292.5156 523.0313,292.4063 522.8906,292.2656 C522.75,292.1406 522.7188,292.0156 522.6563,291.6094 C522.5625,291.2031 522.3906,290.9844 521.9063,290.7031 C521.4375,290.4531 520.8281,290.2969 520.25,290.2969 C518.5156,290.2969 517.2656,291.6094 517.2656,293.3906 L517.2656,294.4844 C517.2656,296.1875 518.5625,297.2813 520.6094,297.2813 C521.375,297.2813 522.0625,297.1563 522.4844,296.8906 C522.6719,296.7969 522.6719,296.7969 523.125,296.3125 C523.3125,296.125 523.5156,296.0469 523.7344,296.0469 C524.2031,296.0469 524.5938,296.4375 524.5938,296.8906 C524.5938,297.2813 524.2656,297.7344 523.6875,298.1406 C522.9375,298.6875 521.7813,298.9844 520.5625,298.9844 C517.6719,298.9844 515.5625,297.0938 515.5625,294.5156 L515.5625,293.3906 C515.5625,290.6719 517.5625,288.5938 520.1875,288.5938 C521.0625,288.5938 521.6563,288.7344 522.5938,289.1719 Z "/><text fill="#000000" font-family="sans-serif" font-size="12" lengthAdjust="spacingAndGlyphs" textLength="135" x="540.75" y="297.6543">TransactionController</text><line style="stroke: #383838; stroke-width: 1.5;" x1="419.5" x2="764.5" y1="309.5" y2="309.5"/><line style="stroke: #383838; stroke-width: 1.5;" x1="419.5" x2="764.5" y1="317.5" y2="317.5"/><text fill="#000000" font-family="sans-serif" font-size="11" lengthAdjust="spacingAndGlyphs" textLength="326" x="424.5" y="331.7104">+TransactionController(dataManager: RESTDataManager)</text><text fill="#000000" font-family="sans-serif" font-size="11" lengthAdjust="spacingAndGlyphs" textLength="335" x="424.5" y="344.5151">+getTransactionsForParty(party: Party): List&lt;Transaction&gt;</text><!--link ProductType to Product--><path d="M1455.24,571.5 C1490.08,571.5 1524.91,571.5 1559.75,571.5 " fill="none" id="ProductType-Product" style="stroke: #383838; stroke-width: 1.0;"/><polygon fill="#383838" points="1450.1,571.5,1459.1,575.5,1455.1,571.5,1459.1,567.5,1450.1,571.5" style="stroke: #383838; stroke-width: 1.0;"/><text fill="#000000" font-family="sans-serif" font-size="13" lengthAdjust="spacingAndGlyphs" textLength="37" x="1458.15" y="567.7312">- type</text><!--link Product to Party--><path d="M1617.59,632.537 C1609.81,645.037 1601.43,658.482 1593.12,671.826 " fill="none" id="Product-Party" style="stroke: #383838; stroke-width: 1.0;"/><polygon fill="#FFFFFF" points="1586.16,682.99,1592.7267,680.0102,1592.5017,672.8026,1585.9351,675.7824,1586.16,682.99" style="stroke: #383838; stroke-width: 1.0;"/><polygon fill="#383838" points="1624.66,621.192,1616.5047,626.7139,1622.0151,625.4352,1623.2938,630.9456,1624.66,621.192" style="stroke: #383838; stroke-width: 1.0;"/><line style="stroke: #383838; stroke-width: 1.0;" x1="1622.0151" x2="1617.79" y1="625.4352" y2="632.225"/><text fill="#000000" font-family="sans-serif" font-size="13" lengthAdjust="spacingAndGlyphs" textLength="291" x="1308.9325" y="641.2955">- servedBeers: Map&lt;Product, BeerCategory&gt;</text><!--link BeerCategory to Party--><path d="M1184.17,764.5 C1221.69,764.5 1271.44,764.5 1321.69,764.5 " fill="none" id="BeerCategory-Party" style="stroke: #383838; stroke-width: 1.0; stroke-dasharray: 7.0,7.0;"/><polygon fill="#383838" points="1178.72,764.5,1187.72,768.5,1183.72,764.5,1187.72,760.5,1178.72,764.5" style="stroke: #383838; stroke-width: 1.0;"/><text fill="#000000" font-family="sans-serif" font-size="13" lengthAdjust="spacingAndGlyphs" textLength="32" x="1234.25" y="757.5669">Uses</text><!--link Member to School--><path d="M914.607,571.5 C949.401,571.5 984.195,571.5 1018.99,571.5 " fill="none" id="Member-School" style="stroke: #383838; stroke-width: 1.0;"/><polygon fill="#383838" points="1024.12,571.5,1015.12,567.5,1019.12,571.5,1015.12,575.5,1024.12,571.5" style="stroke: #383838; stroke-width: 1.0;"/><text fill="#000000" font-family="sans-serif" font-size="13" lengthAdjust="spacingAndGlyphs" textLength="50" x="966.3294" y="568.1006">- school</text><!--link Party to Transaction--><path d="M1316.65,702.277 C1288.94,695.31 1260.88,688.687 1234,683 C1104.03,655.506 955.171,679.537 843.323,708.467 " fill="none" id="Party-Transaction" style="stroke: #383838; stroke-width: 1.0;"/><polygon fill="#383838" points="1321.82,703.581,1314.0614,697.5144,1316.9698,702.3663,1312.1179,705.2747,1321.82,703.581" style="stroke: #383838; stroke-width: 1.0;"/><text fill="#000000" font-family="sans-serif" font-size="13" lengthAdjust="spacingAndGlyphs" textLength="70" x="1243.6438" y="698.4011">- party 0..1</text><!--link Member to Transaction--><path d="M672,671.126 C672,683.889 672,696.578 672,708.278 " fill="none" id="Member-Transaction" style="stroke: #383838; stroke-width: 1.0;"/><polygon fill="#383838" points="672,666.042,668,675.042,672,671.042,676,675.042,672,666.042" style="stroke: #383838; stroke-width: 1.0;"/><text fill="#000000" font-family="sans-serif" font-size="13" lengthAdjust="spacingAndGlyphs" textLength="64" x="605.55" y="685.9323">- member</text><!--link RESTDataManager to RESTfulDataManager--><path d="M192.723,222.831 C189.628,237.055 186.466,251.594 183.605,264.747 " fill="none" id="RESTDataManager-RESTfulDataManager" style="stroke: #383838; stroke-width: 1.0; stroke-dasharray: 7.0,7.0;"/><polygon fill="none" points="185.921,221.164,197.013,203.109,199.601,224.14,185.921,221.164" style="stroke: #383838; stroke-width: 1.0;"/><!--link RESTDataManager to PartyController--><path d="M288.739,88.094 C330.174,60.884 382.936,31.275 435,16 C435,16 863,16 863,16 C894.001,25.829 924.9,41.597 952.952,58.841 " fill="none" id="RESTDataManager-PartyController" style="stroke: #383838; stroke-width: 1.0;"/><polygon fill="#383838" points="284.51,90.888,294.2242,89.2647,288.6819,88.132,289.8146,82.5897,284.51,90.888" style="stroke: #383838; stroke-width: 1.0;"/><text fill="#000000" font-family="sans-serif" font-size="13" lengthAdjust="spacingAndGlyphs" textLength="94" x="194.1628" y="79.8116">- dataManager</text><!--link RESTDataManager to ProductController--><path d="M335.255,204.836 C367.194,216.906 401.853,228.082 435,235 C603.1,270.082 651.559,224.103 821,252 C838.962,254.957 857.556,258.934 875.931,263.451 " fill="none" id="RESTDataManager-ProductController" style="stroke: #383838; stroke-width: 1.0;"/><polygon fill="#383838" points="330.563,203.049,337.5489,209.9914,335.2353,204.8293,340.3974,202.5158,330.563,203.049" style="stroke: #383838; stroke-width: 1.0;"/><text fill="#000000" font-family="sans-serif" font-size="13" lengthAdjust="spacingAndGlyphs" textLength="94" x="246.1164" y="223.2651">- dataManager</text><!--link MemberController to RESTDataManager--><path d="M490.341,147 C455.29,147 420.239,147 385.187,147 " fill="none" id="MemberController-RESTDataManager" style="stroke: #383838; stroke-width: 1.0;"/><polygon fill="#383838" points="380.016,147,389.016,151,385.016,147,389.016,143,380.016,147" style="stroke: #383838; stroke-width: 1.0;"/><text fill="#000000" font-family="sans-serif" font-size="13" lengthAdjust="spacingAndGlyphs" textLength="94" x="387.851" y="143.7993">- dataManager</text><!--link RESTDataManager to TransactionController--><path d="M341.202,205.126 C396.771,229.139 459.731,256.345 508.668,277.491 " fill="none" id="RESTDataManager-TransactionController" style="stroke: #383838; stroke-width: 1.0;"/><polygon fill="#383838" points="336.533,203.109,343.2087,210.3502,341.123,205.0919,346.3813,203.0061,336.533,203.109" style="stroke: #383838; stroke-width: 1.0;"/><text fill="#000000" font-family="sans-serif" font-size="13" lengthAdjust="spacingAndGlyphs" textLength="94" x="357.8042" y="222.9349">- dataManager</text><!--link PartyController to Party--><path d="M1218.22,155.985 C1395.26,174.572 1681.01,235.54 1805,434 C1859.63,521.448 1864.2,581.576 1805,666 C1791.68,685.001 1774.26,700.313 1754.68,712.651 " fill="none" id="PartyController-Party" style="stroke: #383838; stroke-width: 1.0; stroke-dasharray: 7.0,7.0;"/><polygon fill="#383838" points="1750.2,715.4,1759.9631,714.1033,1754.4619,712.7854,1755.7798,707.2842,1750.2,715.4" style="stroke: #383838; stroke-width: 1.0;"/><text fill="#000000" font-family="sans-serif" font-size="13" lengthAdjust="spacingAndGlyphs" textLength="32" x="1800" y="422.0669">Uses</text><!--link ProductController to Product--><path d="M1190.09,376.53 C1217.45,385.695 1245.84,394.302 1273,401 C1374.12,425.935 1410.76,389.657 1505,434 C1546.31,453.44 1584.26,488.211 1611.65,517.792 " fill="none" id="ProductController-Product" style="stroke: #383838; stroke-width: 1.0; stroke-dasharray: 7.0,7.0;"/><polygon fill="#383838" points="1615.28,521.743,1612.1451,512.4064,1611.9006,518.0579,1606.249,517.8134,1615.28,521.743" style="stroke: #383838; stroke-width: 1.0;"/><text fill="#000000" font-family="sans-serif" font-size="13" lengthAdjust="spacingAndGlyphs" textLength="32" x="1484" y="422.0669">Uses</text><!--link MemberController to Member--><path d="M807.78,219.427 C826.121,225.608 844.781,231.016 863,235 C904.506,244.077 1207.98,231.152 1245,252 C1323.7,296.322 1413.19,361.463 1350,426 C1335.23,441.087 990.582,429.283 970,434 C929.758,443.223 888.391,458.181 849.769,474.884 " fill="none" id="MemberController-Member" style="stroke: #383838; stroke-width: 1.0; stroke-dasharray: 7.0,7.0;"/><polygon fill="#383838" points="845.073,476.929,854.9216,477.0016,849.6569,474.932,851.7264,469.6673,845.073,476.929" style="stroke: #383838; stroke-width: 1.0;"/><text fill="#000000" font-family="sans-serif" font-size="13" lengthAdjust="spacingAndGlyphs" textLength="32" x="1372" y="319.0669">Uses</text><!--link TransactionController to Transaction--><path d="M446.568,351.568 C405.017,369.325 364.421,395.531 340,434 C284.739,521.052 278.21,583.454 340,666 C360.171,692.946 426.298,714.984 494.283,731.247 " fill="none" id="TransactionController-Transaction" style="stroke: #383838; stroke-width: 1.0; stroke-dasharray: 7.0,7.0;"/><polygon fill="#383838" points="499.181,732.408,491.3457,726.4408,494.3157,731.2552,489.5013,734.2253,499.181,732.408" style="stroke: #383838; stroke-width: 1.0;"/><text fill="#000000" font-family="sans-serif" font-size="13" lengthAdjust="spacingAndGlyphs" textLength="32" x="341" y="576.0669">Uses</text><!--
@startuml
skinparam monochrome true
skinparam classAttributeIconSize 0
skinparam nodesep 110
skinparam ranksep 10

package Model {
	class Party {
		- id: int
		- name: String
		- date: Date
		- numberOfAttendees: int
		- balance: float
		- normalBeerPrice: float
		- specialBeerPrice: float
		+ Party(id, name, date, numberOfAttendees, balance)
		+ Party(id, name, date, normalBeerPrice, specialBeerPrice, servedBeers)
	}

	class Product {
		- id: int
		- name: String
		- price: float
		+ Product(id, name, price, type)
	}

	enum ProductType {
		BEER,
		DEPOSIT,
		FOOD
	}

	ProductType "- type" <- Product

	enum BeerCategory {
		NORMAL,
		SPECIAL
	}

	Product "- servedBeers: Map<Product, BeerCategory>" <- -o Party

	BeerCategory <. Party: Uses
	
	class Member {
		- id: int
		- firstName: String
		- lastName: String
		- balance: float
		- lastMembershipPayment: Date
		- formerStaff: boolean
		- email: String
		- phone: String
		+ Member(id, firstName, lastName, balance, lastMembershipPayment, formerStaff)
		
		+ isMembershipValid(): Boolean
	}

	enum School {
		CPP,
		ENSE3,
		ENSIMAG,
		ESISAR,
		GI,
		PAPET,
		PHELMA
		+ {static} getSchool(name: String): School
	}

	Member -> "- school" School

	class Transaction {
		- id: int
		- label: String
		- timestamp: Date
		- amount: float
		Transaction(id, label, timestamp, amount, party, member)
	}

	Party "- party 0..1" <- Transaction
	Member "- member" <- - Transaction
}

package Controller {
	interface RESTDataManager {
		+ getObject(ressource: String): Map<String, Object>
		+ getArray(ressource: String): List<Object>
		+ post(resource: String, jsonObject: Map<String, Object>)
		+ put(resource: String, jsonObject: Map<String, Object)
		+ delete(resource: String): Map<String, Object>
	}

	class RESTfulDataManager {
		- host: String
		- port: String
		- authToken: String
		+ RESTfulDataManager(host, port, authToken)
	}

	RESTDataManager <|.. RESTfulDataManager
		

	class PartyController {
		+ PartyController(dataManager: RESTDataManager)
		+ getAllParties(): List<Party>
		+ addParty(party: Party): int
		+ editParty(party: Party)
		+ getParty(id: int): Party
		+ deleteParty(id: int)
		+ getDefaultNormalBeerPrice(): float
		+ setDefaultNormalBeerPrice(newPrice: float)
		+ getDefaultSpecialBeerPrice(): float
		+ setDefaultSpecialBeerPrice(newPrice: float)
	}

	RESTDataManager "- dataManager" <- PartyController

	class ProductController {
		+ ProductController(dataManager: RESTDataManager)
		+ getAllProducts(): List<Product>
		+ getProductsByType(type: string): List<Product>
		+ deleteProduct(id: int)
		+ addProduct(product: Product): int
		+ editProduct(product: Product)
	}

	RESTDataManager "- dataManager" <- - ProductController

	class MemberController {
		+ MemberController(dataManager: RESTDataManager)
		+ getAllMembers(): List<Member>
		+ getBalanceTooLowThreshold(): float
		+ setBalanceTooLowThreshold(newThreshold: float)
		+ getMember(id: int): Member
		+ deleteMember(id: int)
		+ addMember(member: Member): int
		+ renewMembership(id: int)
	}
	
	MemberController -> "- dataManager" RESTDataManager

	Class TransactionController {
		+ TransactionController(dataManager: RESTDataManager)
		+ getTransactionsForParty(party: Party): List<Transaction>
	}
	
	RESTDataManager "- dataManager" <- - TransactionController

}

PartyController ..> Party: Uses
ProductController ..> Product: Uses
MemberController ..> Member: Uses
TransactionController ..> Transaction: Uses
@enduml

PlantUML version 1.2018.00(Thu Jan 04 19:42:56 UTC 2018)
(GPL source distribution)
Java Runtime: Java(TM) SE Runtime Environment
JVM: Java HotSpot(TM) 64-Bit Server VM
Java Version: 1.7.0_25-b15
Operating System: Linux
Default Encoding: UTF-8
Language: en
Country: US
--></g></svg>